<svg width="1440" height="125" viewBox="0 0 1440 125" fill="none" xmlns="http://www.w3.org/2000/svg">
<rect width="1440" height="125" fill="#FC036C"/>
<path d="M0 0L521 125L1440 0V125H0V0Z" fill="#D20059"/>
<path d="M22.4752 49.25L32.5813 66.7542C33.9285 69.0876 32.2445 72.0042 29.5502 72.0042H9.33807C6.64377 72.0042 4.95983 69.0876 6.30698 66.7542L16.4131 49.25C17.7602 46.9167 21.1281 46.9167 22.4752 49.25Z" stroke="white" stroke-width="3"/>
<rect x="-6.14282" y="52.8423" width="24.0869" height="24.0869" rx="6.5" stroke="white" stroke-width="3"/>
<circle cx="-4.44155" cy="53.5585" r="11.0585" stroke="white" stroke-width="3"/>
<line x1="13.5342" y1="72.0042" x2="21.9065" y2="72.0042" stroke="white" stroke-width="3"/>
<path d="M45.356 59.366C45.356 61.1113 45.5687 62.3653 45.994 63.128C46.4193 63.876 47.05 64.25 47.886 64.25C48.414 64.25 48.876 64.2133 49.272 64.14C49.668 64.052 50.0273 64.008 50.35 64.008C50.9367 64.008 51.362 64.1327 51.626 64.382C51.89 64.6167 52.022 64.9247 52.022 65.306C52.022 65.8047 51.8387 66.186 51.472 66.45C51.12 66.714 50.6653 66.8973 50.108 67C49.5653 67.1027 49.008 67.154 48.436 67.154C46.852 67.154 45.5907 66.8607 44.652 66.274C43.728 65.6873 43.0607 64.822 42.65 63.678C42.254 62.5193 42.056 61.082 42.056 59.366C42.056 57.65 42.254 56.198 42.65 55.01C43.0607 53.8073 43.728 52.898 44.652 52.282C45.5907 51.666 46.852 51.358 48.436 51.358C49.008 51.358 49.5653 51.4093 50.108 51.512C50.6653 51.6147 51.12 51.798 51.472 52.062C51.8387 52.326 52.022 52.7073 52.022 53.206C52.022 53.5727 51.89 53.8807 51.626 54.13C51.362 54.3793 50.9367 54.504 50.35 54.504C50.0273 54.504 49.668 54.4673 49.272 54.394C48.876 54.306 48.414 54.262 47.886 54.262C46.8593 54.262 46.1773 54.68 45.84 55.516C45.5173 56.3373 45.356 57.6207 45.356 59.366ZM59.4267 67.176C58.1507 67.176 57.0654 66.9267 56.1707 66.428C55.2761 65.9147 54.5941 65.0787 54.1247 63.92C53.6701 62.7613 53.4427 61.192 53.4427 59.212C53.4427 57.232 53.6701 55.67 54.1247 54.526C54.5941 53.382 55.2761 52.568 56.1707 52.084C57.0654 51.6 58.1507 51.358 59.4267 51.358C60.7174 51.358 61.8027 51.6 62.6827 52.084C63.5774 52.568 64.2521 53.382 64.7067 54.526C65.1761 55.67 65.4107 57.232 65.4107 59.212C65.4107 61.192 65.1761 62.7613 64.7067 63.92C64.2521 65.0787 63.5774 65.9147 62.6827 66.428C61.8027 66.9267 60.7174 67.176 59.4267 67.176ZM59.4267 64.272C60.0134 64.272 60.5121 64.1327 60.9227 63.854C61.3481 63.5753 61.6707 63.0693 61.8907 62.336C62.1254 61.6027 62.2427 60.5613 62.2427 59.212C62.2427 57.848 62.1254 56.814 61.8907 56.11C61.6707 55.3913 61.3481 54.9073 60.9227 54.658C60.5121 54.394 60.0134 54.262 59.4267 54.262C58.8547 54.262 58.3561 54.394 57.9307 54.658C57.5054 54.9073 57.1754 55.3913 56.9407 56.11C56.7207 56.814 56.6107 57.848 56.6107 59.212C56.6107 60.5613 56.7207 61.6027 56.9407 62.336C57.1754 63.0693 57.5054 63.5753 57.9307 63.854C58.3561 64.1327 58.8547 64.272 59.4267 64.272ZM69.627 67C68.571 67 68.043 66.428 68.043 65.284V53.074C68.043 51.93 68.571 51.358 69.627 51.358C70.683 51.358 71.211 51.93 71.211 53.074V62.842C71.211 63.0767 71.189 63.3773 71.145 63.744C71.1157 64.096 71.079 64.3893 71.035 64.624C71.4163 64.1693 71.8857 63.942 72.443 63.942H75.677C76.2197 63.942 76.6377 64.074 76.931 64.338C77.2243 64.602 77.371 64.9833 77.371 65.482C77.371 66.494 76.8063 67 75.677 67H69.627ZM81.7143 65.702C81.7143 66.6847 81.2009 67.176 80.1743 67.176C79.6756 67.176 79.2796 67.0513 78.9863 66.802C78.6929 66.5527 78.5463 66.186 78.5463 65.702V56.99C78.5463 54.966 78.9569 53.5213 79.7783 52.656C80.5996 51.7907 81.8829 51.358 83.6283 51.358C85.4176 51.358 86.7376 51.798 87.5883 52.678C88.4389 53.558 88.8643 54.9953 88.8643 56.99V65.702C88.8643 66.6847 88.3509 67.176 87.3243 67.176C86.8256 67.176 86.4296 67.0513 86.1363 66.802C85.8429 66.5527 85.6963 66.186 85.6963 65.702V60.4C85.4176 60.6493 85.1096 60.862 84.7723 61.038C84.4496 61.214 84.0683 61.302 83.6283 61.302C82.9829 61.302 82.4989 61.4193 82.1763 61.654C81.8683 61.8887 81.7143 62.3067 81.7143 62.908V65.702ZM81.5823 59.256C81.8169 59.0213 82.0956 58.838 82.4183 58.706C82.7556 58.574 83.1589 58.508 83.6283 58.508C84.1856 58.508 84.6109 58.464 84.9043 58.376C85.2123 58.288 85.4249 58.1193 85.5423 57.87C85.6596 57.6207 85.7183 57.254 85.7183 56.77C85.7183 55.6847 85.5643 54.944 85.2563 54.548C84.9483 54.1373 84.3983 53.932 83.6063 53.932C82.8729 53.932 82.3669 54.1447 82.0883 54.57C81.8243 54.9807 81.6923 55.7433 81.6923 56.858C81.6923 57.43 81.6849 57.914 81.6703 58.31C81.6556 58.706 81.6263 59.0213 81.5823 59.256ZM92.7921 67C92.5135 67 92.2788 66.89 92.0881 66.67C91.8975 66.45 91.8021 66.1713 91.8021 65.834V55.934C91.8021 55.45 91.8681 54.944 92.0001 54.416C92.1468 53.888 92.4108 53.3967 92.7921 52.942C93.1881 52.4727 93.7455 52.0913 94.4641 51.798C95.1828 51.5047 96.1215 51.358 97.2801 51.358C98.8201 51.358 100.015 51.7393 100.866 52.502C101.717 53.2647 102.142 54.4087 102.142 55.934C102.142 56.55 102.025 57.1147 101.79 57.628C101.57 58.1413 101.233 58.53 100.778 58.794C101.497 59.1167 102.01 59.564 102.318 60.136C102.641 60.708 102.802 61.5 102.802 62.512C102.802 63.9787 102.347 65.0933 101.438 65.856C100.543 66.6187 99.1575 67 97.2801 67H92.7921ZM94.8161 58.398C95.0068 58.1633 95.3148 57.98 95.7401 57.848C96.1801 57.716 96.6935 57.65 97.2801 57.65C97.9695 57.65 98.4388 57.5253 98.6881 57.276C98.9521 57.012 99.0841 56.5647 99.0841 55.934C99.0841 55.2007 98.9301 54.68 98.6221 54.372C98.3288 54.0493 97.8815 53.888 97.2801 53.888C96.4295 53.888 95.8281 54.042 95.4761 54.35C95.1388 54.658 94.9701 55.186 94.9701 55.934C94.9701 56.3887 94.9628 56.7553 94.9481 57.034C94.9481 57.298 94.9335 57.5327 94.9041 57.738C94.8895 57.9433 94.8601 58.1633 94.8161 58.398ZM94.9701 64.448H97.2801C98.1601 64.448 98.7688 64.294 99.1061 63.986C99.4581 63.678 99.6341 63.1867 99.6341 62.512C99.6341 61.5587 99.4508 60.8767 99.0841 60.466C98.7321 60.0553 98.1308 59.85 97.2801 59.85C96.6788 59.85 96.2095 59.9307 95.8721 60.092C95.5348 60.2387 95.3001 60.5027 95.1681 60.884C95.0361 61.2653 94.9701 61.808 94.9701 62.512V64.448Z" fill="white"/>
<path d="M189.475 49.25L199.581 66.7542C200.928 69.0876 199.245 72.0042 196.55 72.0042H176.338C173.644 72.0042 171.96 69.0876 173.307 66.7542L183.413 49.25C184.76 46.9167 188.128 46.9167 189.475 49.25Z" stroke="white" stroke-width="3"/>
<rect x="160.857" y="52.8423" width="24.0869" height="24.0869" rx="6.5" stroke="white" stroke-width="3"/>
<circle cx="162.558" cy="53.5585" r="11.0585" stroke="white" stroke-width="3"/>
<line x1="180.534" y1="72.0042" x2="188.906" y2="72.0042" stroke="white" stroke-width="3"/>
<line x1="160.857" y1="60.6995" x2="160.857" y2="66.1169" stroke="white" stroke-width="3"/>
<path d="M212.356 59.366C212.356 61.1113 212.569 62.3653 212.994 63.128C213.419 63.876 214.05 64.25 214.886 64.25C215.414 64.25 215.876 64.2133 216.272 64.14C216.668 64.052 217.027 64.008 217.35 64.008C217.937 64.008 218.362 64.1327 218.626 64.382C218.89 64.6167 219.022 64.9247 219.022 65.306C219.022 65.8047 218.839 66.186 218.472 66.45C218.12 66.714 217.665 66.8973 217.108 67C216.565 67.1027 216.008 67.154 215.436 67.154C213.852 67.154 212.591 66.8607 211.652 66.274C210.728 65.6873 210.061 64.822 209.65 63.678C209.254 62.5193 209.056 61.082 209.056 59.366C209.056 57.65 209.254 56.198 209.65 55.01C210.061 53.8073 210.728 52.898 211.652 52.282C212.591 51.666 213.852 51.358 215.436 51.358C216.008 51.358 216.565 51.4093 217.108 51.512C217.665 51.6147 218.12 51.798 218.472 52.062C218.839 52.326 219.022 52.7073 219.022 53.206C219.022 53.5727 218.89 53.8807 218.626 54.13C218.362 54.3793 217.937 54.504 217.35 54.504C217.027 54.504 216.668 54.4673 216.272 54.394C215.876 54.306 215.414 54.262 214.886 54.262C213.859 54.262 213.177 54.68 212.84 55.516C212.517 56.3373 212.356 57.6207 212.356 59.366ZM226.427 67.176C225.151 67.176 224.065 66.9267 223.171 66.428C222.276 65.9147 221.594 65.0787 221.125 63.92C220.67 62.7613 220.443 61.192 220.443 59.212C220.443 57.232 220.67 55.67 221.125 54.526C221.594 53.382 222.276 52.568 223.171 52.084C224.065 51.6 225.151 51.358 226.427 51.358C227.717 51.358 228.803 51.6 229.683 52.084C230.577 52.568 231.252 53.382 231.707 54.526C232.176 55.67 232.411 57.232 232.411 59.212C232.411 61.192 232.176 62.7613 231.707 63.92C231.252 65.0787 230.577 65.9147 229.683 66.428C228.803 66.9267 227.717 67.176 226.427 67.176ZM226.427 64.272C227.013 64.272 227.512 64.1327 227.923 63.854C228.348 63.5753 228.671 63.0693 228.891 62.336C229.125 61.6027 229.243 60.5613 229.243 59.212C229.243 57.848 229.125 56.814 228.891 56.11C228.671 55.3913 228.348 54.9073 227.923 54.658C227.512 54.394 227.013 54.262 226.427 54.262C225.855 54.262 225.356 54.394 224.931 54.658C224.505 54.9073 224.175 55.3913 223.941 56.11C223.721 56.814 223.611 57.848 223.611 59.212C223.611 60.5613 223.721 61.6027 223.941 62.336C224.175 63.0693 224.505 63.5753 224.931 63.854C225.356 64.1327 225.855 64.272 226.427 64.272ZM236.627 67C235.571 67 235.043 66.428 235.043 65.284V53.074C235.043 51.93 235.571 51.358 236.627 51.358C237.683 51.358 238.211 51.93 238.211 53.074V62.842C238.211 63.0767 238.189 63.3773 238.145 63.744C238.116 64.096 238.079 64.3893 238.035 64.624C238.416 64.1693 238.886 63.942 239.443 63.942H242.677C243.22 63.942 243.638 64.074 243.931 64.338C244.224 64.602 244.371 64.9833 244.371 65.482C244.371 66.494 243.806 67 242.677 67H236.627ZM248.714 65.702C248.714 66.6847 248.201 67.176 247.174 67.176C246.676 67.176 246.28 67.0513 245.986 66.802C245.693 66.5527 245.546 66.186 245.546 65.702V56.99C245.546 54.966 245.957 53.5213 246.778 52.656C247.6 51.7907 248.883 51.358 250.628 51.358C252.418 51.358 253.738 51.798 254.588 52.678C255.439 53.558 255.864 54.9953 255.864 56.99V65.702C255.864 66.6847 255.351 67.176 254.324 67.176C253.826 67.176 253.43 67.0513 253.136 66.802C252.843 66.5527 252.696 66.186 252.696 65.702V60.4C252.418 60.6493 252.11 60.862 251.772 61.038C251.45 61.214 251.068 61.302 250.628 61.302C249.983 61.302 249.499 61.4193 249.176 61.654C248.868 61.8887 248.714 62.3067 248.714 62.908V65.702ZM248.582 59.256C248.817 59.0213 249.096 58.838 249.418 58.706C249.756 58.574 250.159 58.508 250.628 58.508C251.186 58.508 251.611 58.464 251.904 58.376C252.212 58.288 252.425 58.1193 252.542 57.87C252.66 57.6207 252.718 57.254 252.718 56.77C252.718 55.6847 252.564 54.944 252.256 54.548C251.948 54.1373 251.398 53.932 250.606 53.932C249.873 53.932 249.367 54.1447 249.088 54.57C248.824 54.9807 248.692 55.7433 248.692 56.858C248.692 57.43 248.685 57.914 248.67 58.31C248.656 58.706 248.626 59.0213 248.582 59.256ZM259.792 67C259.513 67 259.279 66.89 259.088 66.67C258.897 66.45 258.802 66.1713 258.802 65.834V55.934C258.802 55.45 258.868 54.944 259 54.416C259.147 53.888 259.411 53.3967 259.792 52.942C260.188 52.4727 260.745 52.0913 261.464 51.798C262.183 51.5047 263.121 51.358 264.28 51.358C265.82 51.358 267.015 51.7393 267.866 52.502C268.717 53.2647 269.142 54.4087 269.142 55.934C269.142 56.55 269.025 57.1147 268.79 57.628C268.57 58.1413 268.233 58.53 267.778 58.794C268.497 59.1167 269.01 59.564 269.318 60.136C269.641 60.708 269.802 61.5 269.802 62.512C269.802 63.9787 269.347 65.0933 268.438 65.856C267.543 66.6187 266.157 67 264.28 67H259.792ZM261.816 58.398C262.007 58.1633 262.315 57.98 262.74 57.848C263.18 57.716 263.693 57.65 264.28 57.65C264.969 57.65 265.439 57.5253 265.688 57.276C265.952 57.012 266.084 56.5647 266.084 55.934C266.084 55.2007 265.93 54.68 265.622 54.372C265.329 54.0493 264.881 53.888 264.28 53.888C263.429 53.888 262.828 54.042 262.476 54.35C262.139 54.658 261.97 55.186 261.97 55.934C261.97 56.3887 261.963 56.7553 261.948 57.034C261.948 57.298 261.933 57.5327 261.904 57.738C261.889 57.9433 261.86 58.1633 261.816 58.398ZM261.97 64.448H264.28C265.16 64.448 265.769 64.294 266.106 63.986C266.458 63.678 266.634 63.1867 266.634 62.512C266.634 61.5587 266.451 60.8767 266.084 60.466C265.732 60.0553 265.131 59.85 264.28 59.85C263.679 59.85 263.209 59.9307 262.872 60.092C262.535 60.2387 262.3 60.5027 262.168 60.884C262.036 61.2653 261.97 61.808 261.97 62.512V64.448Z" fill="white"/>
<path d="M356.475 49.25L366.581 66.7542C367.928 69.0876 366.245 72.0042 363.55 72.0042H343.338C340.644 72.0042 338.96 69.0876 340.307 66.7542L350.413 49.25C351.76 46.9167 355.128 46.9167 356.475 49.25Z" stroke="white" stroke-width="3"/>
<rect x="327.857" y="52.8423" width="24.0869" height="24.0869" rx="6.5" stroke="white" stroke-width="3"/>
<circle cx="329.558" cy="53.5585" r="11.0585" stroke="white" stroke-width="3"/>
<line x1="347.534" y1="72.0042" x2="355.906" y2="72.0042" stroke="white" stroke-width="3"/>
<line x1="327.857" y1="60.6995" x2="327.857" y2="66.1169" stroke="white" stroke-width="3"/>
<path d="M379.356 59.366C379.356 61.1113 379.569 62.3653 379.994 63.128C380.419 63.876 381.05 64.25 381.886 64.25C382.414 64.25 382.876 64.2133 383.272 64.14C383.668 64.052 384.027 64.008 384.35 64.008C384.937 64.008 385.362 64.1327 385.626 64.382C385.89 64.6167 386.022 64.9247 386.022 65.306C386.022 65.8047 385.839 66.186 385.472 66.45C385.12 66.714 384.665 66.8973 384.108 67C383.565 67.1027 383.008 67.154 382.436 67.154C380.852 67.154 379.591 66.8607 378.652 66.274C377.728 65.6873 377.061 64.822 376.65 63.678C376.254 62.5193 376.056 61.082 376.056 59.366C376.056 57.65 376.254 56.198 376.65 55.01C377.061 53.8073 377.728 52.898 378.652 52.282C379.591 51.666 380.852 51.358 382.436 51.358C383.008 51.358 383.565 51.4093 384.108 51.512C384.665 51.6147 385.12 51.798 385.472 52.062C385.839 52.326 386.022 52.7073 386.022 53.206C386.022 53.5727 385.89 53.8807 385.626 54.13C385.362 54.3793 384.937 54.504 384.35 54.504C384.027 54.504 383.668 54.4673 383.272 54.394C382.876 54.306 382.414 54.262 381.886 54.262C380.859 54.262 380.177 54.68 379.84 55.516C379.517 56.3373 379.356 57.6207 379.356 59.366ZM393.427 67.176C392.151 67.176 391.065 66.9267 390.171 66.428C389.276 65.9147 388.594 65.0787 388.125 63.92C387.67 62.7613 387.443 61.192 387.443 59.212C387.443 57.232 387.67 55.67 388.125 54.526C388.594 53.382 389.276 52.568 390.171 52.084C391.065 51.6 392.151 51.358 393.427 51.358C394.717 51.358 395.803 51.6 396.683 52.084C397.577 52.568 398.252 53.382 398.707 54.526C399.176 55.67 399.411 57.232 399.411 59.212C399.411 61.192 399.176 62.7613 398.707 63.92C398.252 65.0787 397.577 65.9147 396.683 66.428C395.803 66.9267 394.717 67.176 393.427 67.176ZM393.427 64.272C394.013 64.272 394.512 64.1327 394.923 63.854C395.348 63.5753 395.671 63.0693 395.891 62.336C396.125 61.6027 396.243 60.5613 396.243 59.212C396.243 57.848 396.125 56.814 395.891 56.11C395.671 55.3913 395.348 54.9073 394.923 54.658C394.512 54.394 394.013 54.262 393.427 54.262C392.855 54.262 392.356 54.394 391.931 54.658C391.505 54.9073 391.175 55.3913 390.941 56.11C390.721 56.814 390.611 57.848 390.611 59.212C390.611 60.5613 390.721 61.6027 390.941 62.336C391.175 63.0693 391.505 63.5753 391.931 63.854C392.356 64.1327 392.855 64.272 393.427 64.272ZM403.627 67C402.571 67 402.043 66.428 402.043 65.284V53.074C402.043 51.93 402.571 51.358 403.627 51.358C404.683 51.358 405.211 51.93 405.211 53.074V62.842C405.211 63.0767 405.189 63.3773 405.145 63.744C405.116 64.096 405.079 64.3893 405.035 64.624C405.416 64.1693 405.886 63.942 406.443 63.942H409.677C410.22 63.942 410.638 64.074 410.931 64.338C411.224 64.602 411.371 64.9833 411.371 65.482C411.371 66.494 410.806 67 409.677 67H403.627ZM415.714 65.702C415.714 66.6847 415.201 67.176 414.174 67.176C413.676 67.176 413.28 67.0513 412.986 66.802C412.693 66.5527 412.546 66.186 412.546 65.702V56.99C412.546 54.966 412.957 53.5213 413.778 52.656C414.6 51.7907 415.883 51.358 417.628 51.358C419.418 51.358 420.738 51.798 421.588 52.678C422.439 53.558 422.864 54.9953 422.864 56.99V65.702C422.864 66.6847 422.351 67.176 421.324 67.176C420.826 67.176 420.43 67.0513 420.136 66.802C419.843 66.5527 419.696 66.186 419.696 65.702V60.4C419.418 60.6493 419.11 60.862 418.772 61.038C418.45 61.214 418.068 61.302 417.628 61.302C416.983 61.302 416.499 61.4193 416.176 61.654C415.868 61.8887 415.714 62.3067 415.714 62.908V65.702ZM415.582 59.256C415.817 59.0213 416.096 58.838 416.418 58.706C416.756 58.574 417.159 58.508 417.628 58.508C418.186 58.508 418.611 58.464 418.904 58.376C419.212 58.288 419.425 58.1193 419.542 57.87C419.66 57.6207 419.718 57.254 419.718 56.77C419.718 55.6847 419.564 54.944 419.256 54.548C418.948 54.1373 418.398 53.932 417.606 53.932C416.873 53.932 416.367 54.1447 416.088 54.57C415.824 54.9807 415.692 55.7433 415.692 56.858C415.692 57.43 415.685 57.914 415.67 58.31C415.656 58.706 415.626 59.0213 415.582 59.256ZM426.792 67C426.513 67 426.279 66.89 426.088 66.67C425.897 66.45 425.802 66.1713 425.802 65.834V55.934C425.802 55.45 425.868 54.944 426 54.416C426.147 53.888 426.411 53.3967 426.792 52.942C427.188 52.4727 427.745 52.0913 428.464 51.798C429.183 51.5047 430.121 51.358 431.28 51.358C432.82 51.358 434.015 51.7393 434.866 52.502C435.717 53.2647 436.142 54.4087 436.142 55.934C436.142 56.55 436.025 57.1147 435.79 57.628C435.57 58.1413 435.233 58.53 434.778 58.794C435.497 59.1167 436.01 59.564 436.318 60.136C436.641 60.708 436.802 61.5 436.802 62.512C436.802 63.9787 436.347 65.0933 435.438 65.856C434.543 66.6187 433.157 67 431.28 67H426.792ZM428.816 58.398C429.007 58.1633 429.315 57.98 429.74 57.848C430.18 57.716 430.693 57.65 431.28 57.65C431.969 57.65 432.439 57.5253 432.688 57.276C432.952 57.012 433.084 56.5647 433.084 55.934C433.084 55.2007 432.93 54.68 432.622 54.372C432.329 54.0493 431.881 53.888 431.28 53.888C430.429 53.888 429.828 54.042 429.476 54.35C429.139 54.658 428.97 55.186 428.97 55.934C428.97 56.3887 428.963 56.7553 428.948 57.034C428.948 57.298 428.933 57.5327 428.904 57.738C428.889 57.9433 428.86 58.1633 428.816 58.398ZM428.97 64.448H431.28C432.16 64.448 432.769 64.294 433.106 63.986C433.458 63.678 433.634 63.1867 433.634 62.512C433.634 61.5587 433.451 60.8767 433.084 60.466C432.732 60.0553 432.131 59.85 431.28 59.85C430.679 59.85 430.209 59.9307 429.872 60.092C429.535 60.2387 429.3 60.5027 429.168 60.884C429.036 61.2653 428.97 61.808 428.97 62.512V64.448Z" fill="white"/>
<path d="M523.475 49.25L533.581 66.7542C534.928 69.0876 533.245 72.0042 530.55 72.0042H510.338C507.644 72.0042 505.96 69.0876 507.307 66.7542L517.413 49.25C518.76 46.9167 522.128 46.9167 523.475 49.25Z" stroke="white" stroke-width="3"/>
<rect x="494.857" y="52.8423" width="24.0869" height="24.0869" rx="6.5" stroke="white" stroke-width="3"/>
<circle cx="496.558" cy="53.5585" r="11.0585" stroke="white" stroke-width="3"/>
<line x1="514.534" y1="72.0042" x2="522.906" y2="72.0042" stroke="white" stroke-width="3"/>
<line x1="494.857" y1="60.6995" x2="494.857" y2="66.1169" stroke="white" stroke-width="3"/>
<path d="M546.356 59.366C546.356 61.1113 546.569 62.3653 546.994 63.128C547.419 63.876 548.05 64.25 548.886 64.25C549.414 64.25 549.876 64.2133 550.272 64.14C550.668 64.052 551.027 64.008 551.35 64.008C551.937 64.008 552.362 64.1327 552.626 64.382C552.89 64.6167 553.022 64.9247 553.022 65.306C553.022 65.8047 552.839 66.186 552.472 66.45C552.12 66.714 551.665 66.8973 551.108 67C550.565 67.1027 550.008 67.154 549.436 67.154C547.852 67.154 546.591 66.8607 545.652 66.274C544.728 65.6873 544.061 64.822 543.65 63.678C543.254 62.5193 543.056 61.082 543.056 59.366C543.056 57.65 543.254 56.198 543.65 55.01C544.061 53.8073 544.728 52.898 545.652 52.282C546.591 51.666 547.852 51.358 549.436 51.358C550.008 51.358 550.565 51.4093 551.108 51.512C551.665 51.6147 552.12 51.798 552.472 52.062C552.839 52.326 553.022 52.7073 553.022 53.206C553.022 53.5727 552.89 53.8807 552.626 54.13C552.362 54.3793 551.937 54.504 551.35 54.504C551.027 54.504 550.668 54.4673 550.272 54.394C549.876 54.306 549.414 54.262 548.886 54.262C547.859 54.262 547.177 54.68 546.84 55.516C546.517 56.3373 546.356 57.6207 546.356 59.366ZM560.427 67.176C559.151 67.176 558.065 66.9267 557.171 66.428C556.276 65.9147 555.594 65.0787 555.125 63.92C554.67 62.7613 554.443 61.192 554.443 59.212C554.443 57.232 554.67 55.67 555.125 54.526C555.594 53.382 556.276 52.568 557.171 52.084C558.065 51.6 559.151 51.358 560.427 51.358C561.717 51.358 562.803 51.6 563.683 52.084C564.577 52.568 565.252 53.382 565.707 54.526C566.176 55.67 566.411 57.232 566.411 59.212C566.411 61.192 566.176 62.7613 565.707 63.92C565.252 65.0787 564.577 65.9147 563.683 66.428C562.803 66.9267 561.717 67.176 560.427 67.176ZM560.427 64.272C561.013 64.272 561.512 64.1327 561.923 63.854C562.348 63.5753 562.671 63.0693 562.891 62.336C563.125 61.6027 563.243 60.5613 563.243 59.212C563.243 57.848 563.125 56.814 562.891 56.11C562.671 55.3913 562.348 54.9073 561.923 54.658C561.512 54.394 561.013 54.262 560.427 54.262C559.855 54.262 559.356 54.394 558.931 54.658C558.505 54.9073 558.175 55.3913 557.941 56.11C557.721 56.814 557.611 57.848 557.611 59.212C557.611 60.5613 557.721 61.6027 557.941 62.336C558.175 63.0693 558.505 63.5753 558.931 63.854C559.356 64.1327 559.855 64.272 560.427 64.272ZM570.627 67C569.571 67 569.043 66.428 569.043 65.284V53.074C569.043 51.93 569.571 51.358 570.627 51.358C571.683 51.358 572.211 51.93 572.211 53.074V62.842C572.211 63.0767 572.189 63.3773 572.145 63.744C572.116 64.096 572.079 64.3893 572.035 64.624C572.416 64.1693 572.886 63.942 573.443 63.942H576.677C577.22 63.942 577.638 64.074 577.931 64.338C578.224 64.602 578.371 64.9833 578.371 65.482C578.371 66.494 577.806 67 576.677 67H570.627ZM582.714 65.702C582.714 66.6847 582.201 67.176 581.174 67.176C580.676 67.176 580.28 67.0513 579.986 66.802C579.693 66.5527 579.546 66.186 579.546 65.702V56.99C579.546 54.966 579.957 53.5213 580.778 52.656C581.6 51.7907 582.883 51.358 584.628 51.358C586.418 51.358 587.738 51.798 588.588 52.678C589.439 53.558 589.864 54.9953 589.864 56.99V65.702C589.864 66.6847 589.351 67.176 588.324 67.176C587.826 67.176 587.43 67.0513 587.136 66.802C586.843 66.5527 586.696 66.186 586.696 65.702V60.4C586.418 60.6493 586.11 60.862 585.772 61.038C585.45 61.214 585.068 61.302 584.628 61.302C583.983 61.302 583.499 61.4193 583.176 61.654C582.868 61.8887 582.714 62.3067 582.714 62.908V65.702ZM582.582 59.256C582.817 59.0213 583.096 58.838 583.418 58.706C583.756 58.574 584.159 58.508 584.628 58.508C585.186 58.508 585.611 58.464 585.904 58.376C586.212 58.288 586.425 58.1193 586.542 57.87C586.66 57.6207 586.718 57.254 586.718 56.77C586.718 55.6847 586.564 54.944 586.256 54.548C585.948 54.1373 585.398 53.932 584.606 53.932C583.873 53.932 583.367 54.1447 583.088 54.57C582.824 54.9807 582.692 55.7433 582.692 56.858C582.692 57.43 582.685 57.914 582.67 58.31C582.656 58.706 582.626 59.0213 582.582 59.256ZM593.792 67C593.513 67 593.279 66.89 593.088 66.67C592.897 66.45 592.802 66.1713 592.802 65.834V55.934C592.802 55.45 592.868 54.944 593 54.416C593.147 53.888 593.411 53.3967 593.792 52.942C594.188 52.4727 594.745 52.0913 595.464 51.798C596.183 51.5047 597.121 51.358 598.28 51.358C599.82 51.358 601.015 51.7393 601.866 52.502C602.717 53.2647 603.142 54.4087 603.142 55.934C603.142 56.55 603.025 57.1147 602.79 57.628C602.57 58.1413 602.233 58.53 601.778 58.794C602.497 59.1167 603.01 59.564 603.318 60.136C603.641 60.708 603.802 61.5 603.802 62.512C603.802 63.9787 603.347 65.0933 602.438 65.856C601.543 66.6187 600.157 67 598.28 67H593.792ZM595.816 58.398C596.007 58.1633 596.315 57.98 596.74 57.848C597.18 57.716 597.693 57.65 598.28 57.65C598.969 57.65 599.439 57.5253 599.688 57.276C599.952 57.012 600.084 56.5647 600.084 55.934C600.084 55.2007 599.93 54.68 599.622 54.372C599.329 54.0493 598.881 53.888 598.28 53.888C597.429 53.888 596.828 54.042 596.476 54.35C596.139 54.658 595.97 55.186 595.97 55.934C595.97 56.3887 595.963 56.7553 595.948 57.034C595.948 57.298 595.933 57.5327 595.904 57.738C595.889 57.9433 595.86 58.1633 595.816 58.398ZM595.97 64.448H598.28C599.16 64.448 599.769 64.294 600.106 63.986C600.458 63.678 600.634 63.1867 600.634 62.512C600.634 61.5587 600.451 60.8767 600.084 60.466C599.732 60.0553 599.131 59.85 598.28 59.85C597.679 59.85 597.209 59.9307 596.872 60.092C596.535 60.2387 596.3 60.5027 596.168 60.884C596.036 61.2653 595.97 61.808 595.97 62.512V64.448Z" fill="white"/>
<path d="M690.475 49.25L700.581 66.7542C701.928 69.0876 700.245 72.0042 697.55 72.0042H677.338C674.644 72.0042 672.96 69.0876 674.307 66.7542L684.413 49.25C685.76 46.9167 689.128 46.9167 690.475 49.25Z" stroke="white" stroke-width="3"/>
<rect x="661.857" y="52.8423" width="24.0869" height="24.0869" rx="6.5" stroke="white" stroke-width="3"/>
<circle cx="663.558" cy="53.5585" r="11.0585" stroke="white" stroke-width="3"/>
<line x1="681.534" y1="72.0042" x2="689.906" y2="72.0042" stroke="white" stroke-width="3"/>
<line x1="661.857" y1="60.6995" x2="661.857" y2="66.1169" stroke="white" stroke-width="3"/>
<path d="M713.356 59.366C713.356 61.1113 713.569 62.3653 713.994 63.128C714.419 63.876 715.05 64.25 715.886 64.25C716.414 64.25 716.876 64.2133 717.272 64.14C717.668 64.052 718.027 64.008 718.35 64.008C718.937 64.008 719.362 64.1327 719.626 64.382C719.89 64.6167 720.022 64.9247 720.022 65.306C720.022 65.8047 719.839 66.186 719.472 66.45C719.12 66.714 718.665 66.8973 718.108 67C717.565 67.1027 717.008 67.154 716.436 67.154C714.852 67.154 713.591 66.8607 712.652 66.274C711.728 65.6873 711.061 64.822 710.65 63.678C710.254 62.5193 710.056 61.082 710.056 59.366C710.056 57.65 710.254 56.198 710.65 55.01C711.061 53.8073 711.728 52.898 712.652 52.282C713.591 51.666 714.852 51.358 716.436 51.358C717.008 51.358 717.565 51.4093 718.108 51.512C718.665 51.6147 719.12 51.798 719.472 52.062C719.839 52.326 720.022 52.7073 720.022 53.206C720.022 53.5727 719.89 53.8807 719.626 54.13C719.362 54.3793 718.937 54.504 718.35 54.504C718.027 54.504 717.668 54.4673 717.272 54.394C716.876 54.306 716.414 54.262 715.886 54.262C714.859 54.262 714.177 54.68 713.84 55.516C713.517 56.3373 713.356 57.6207 713.356 59.366ZM727.427 67.176C726.151 67.176 725.065 66.9267 724.171 66.428C723.276 65.9147 722.594 65.0787 722.125 63.92C721.67 62.7613 721.443 61.192 721.443 59.212C721.443 57.232 721.67 55.67 722.125 54.526C722.594 53.382 723.276 52.568 724.171 52.084C725.065 51.6 726.151 51.358 727.427 51.358C728.717 51.358 729.803 51.6 730.683 52.084C731.577 52.568 732.252 53.382 732.707 54.526C733.176 55.67 733.411 57.232 733.411 59.212C733.411 61.192 733.176 62.7613 732.707 63.92C732.252 65.0787 731.577 65.9147 730.683 66.428C729.803 66.9267 728.717 67.176 727.427 67.176ZM727.427 64.272C728.013 64.272 728.512 64.1327 728.923 63.854C729.348 63.5753 729.671 63.0693 729.891 62.336C730.125 61.6027 730.243 60.5613 730.243 59.212C730.243 57.848 730.125 56.814 729.891 56.11C729.671 55.3913 729.348 54.9073 728.923 54.658C728.512 54.394 728.013 54.262 727.427 54.262C726.855 54.262 726.356 54.394 725.931 54.658C725.505 54.9073 725.175 55.3913 724.941 56.11C724.721 56.814 724.611 57.848 724.611 59.212C724.611 60.5613 724.721 61.6027 724.941 62.336C725.175 63.0693 725.505 63.5753 725.931 63.854C726.356 64.1327 726.855 64.272 727.427 64.272ZM737.627 67C736.571 67 736.043 66.428 736.043 65.284V53.074C736.043 51.93 736.571 51.358 737.627 51.358C738.683 51.358 739.211 51.93 739.211 53.074V62.842C739.211 63.0767 739.189 63.3773 739.145 63.744C739.116 64.096 739.079 64.3893 739.035 64.624C739.416 64.1693 739.886 63.942 740.443 63.942H743.677C744.22 63.942 744.638 64.074 744.931 64.338C745.224 64.602 745.371 64.9833 745.371 65.482C745.371 66.494 744.806 67 743.677 67H737.627ZM749.714 65.702C749.714 66.6847 749.201 67.176 748.174 67.176C747.676 67.176 747.28 67.0513 746.986 66.802C746.693 66.5527 746.546 66.186 746.546 65.702V56.99C746.546 54.966 746.957 53.5213 747.778 52.656C748.6 51.7907 749.883 51.358 751.628 51.358C753.418 51.358 754.738 51.798 755.588 52.678C756.439 53.558 756.864 54.9953 756.864 56.99V65.702C756.864 66.6847 756.351 67.176 755.324 67.176C754.826 67.176 754.43 67.0513 754.136 66.802C753.843 66.5527 753.696 66.186 753.696 65.702V60.4C753.418 60.6493 753.11 60.862 752.772 61.038C752.45 61.214 752.068 61.302 751.628 61.302C750.983 61.302 750.499 61.4193 750.176 61.654C749.868 61.8887 749.714 62.3067 749.714 62.908V65.702ZM749.582 59.256C749.817 59.0213 750.096 58.838 750.418 58.706C750.756 58.574 751.159 58.508 751.628 58.508C752.186 58.508 752.611 58.464 752.904 58.376C753.212 58.288 753.425 58.1193 753.542 57.87C753.66 57.6207 753.718 57.254 753.718 56.77C753.718 55.6847 753.564 54.944 753.256 54.548C752.948 54.1373 752.398 53.932 751.606 53.932C750.873 53.932 750.367 54.1447 750.088 54.57C749.824 54.9807 749.692 55.7433 749.692 56.858C749.692 57.43 749.685 57.914 749.67 58.31C749.656 58.706 749.626 59.0213 749.582 59.256ZM760.792 67C760.513 67 760.279 66.89 760.088 66.67C759.897 66.45 759.802 66.1713 759.802 65.834V55.934C759.802 55.45 759.868 54.944 760 54.416C760.147 53.888 760.411 53.3967 760.792 52.942C761.188 52.4727 761.745 52.0913 762.464 51.798C763.183 51.5047 764.121 51.358 765.28 51.358C766.82 51.358 768.015 51.7393 768.866 52.502C769.717 53.2647 770.142 54.4087 770.142 55.934C770.142 56.55 770.025 57.1147 769.79 57.628C769.57 58.1413 769.233 58.53 768.778 58.794C769.497 59.1167 770.01 59.564 770.318 60.136C770.641 60.708 770.802 61.5 770.802 62.512C770.802 63.9787 770.347 65.0933 769.438 65.856C768.543 66.6187 767.157 67 765.28 67H760.792ZM762.816 58.398C763.007 58.1633 763.315 57.98 763.74 57.848C764.18 57.716 764.693 57.65 765.28 57.65C765.969 57.65 766.439 57.5253 766.688 57.276C766.952 57.012 767.084 56.5647 767.084 55.934C767.084 55.2007 766.93 54.68 766.622 54.372C766.329 54.0493 765.881 53.888 765.28 53.888C764.429 53.888 763.828 54.042 763.476 54.35C763.139 54.658 762.97 55.186 762.97 55.934C762.97 56.3887 762.963 56.7553 762.948 57.034C762.948 57.298 762.933 57.5327 762.904 57.738C762.889 57.9433 762.86 58.1633 762.816 58.398ZM762.97 64.448H765.28C766.16 64.448 766.769 64.294 767.106 63.986C767.458 63.678 767.634 63.1867 767.634 62.512C767.634 61.5587 767.451 60.8767 767.084 60.466C766.732 60.0553 766.131 59.85 765.28 59.85C764.679 59.85 764.209 59.9307 763.872 60.092C763.535 60.2387 763.3 60.5027 763.168 60.884C763.036 61.2653 762.97 61.808 762.97 62.512V64.448Z" fill="white"/>
<path d="M857.475 49.25L867.581 66.7542C868.928 69.0876 867.245 72.0042 864.55 72.0042H844.338C841.644 72.0042 839.96 69.0876 841.307 66.7542L851.413 49.25C852.76 46.9167 856.128 46.9167 857.475 49.25Z" stroke="white" stroke-width="3"/>
<rect x="828.857" y="52.8423" width="24.0869" height="24.0869" rx="6.5" stroke="white" stroke-width="3"/>
<circle cx="830.558" cy="53.5585" r="11.0585" stroke="white" stroke-width="3"/>
<line x1="848.534" y1="72.0042" x2="856.906" y2="72.0042" stroke="white" stroke-width="3"/>
<line x1="828.857" y1="60.6995" x2="828.857" y2="66.1169" stroke="white" stroke-width="3"/>
<path d="M880.356 59.366C880.356 61.1113 880.569 62.3653 880.994 63.128C881.419 63.876 882.05 64.25 882.886 64.25C883.414 64.25 883.876 64.2133 884.272 64.14C884.668 64.052 885.027 64.008 885.35 64.008C885.937 64.008 886.362 64.1327 886.626 64.382C886.89 64.6167 887.022 64.9247 887.022 65.306C887.022 65.8047 886.839 66.186 886.472 66.45C886.12 66.714 885.665 66.8973 885.108 67C884.565 67.1027 884.008 67.154 883.436 67.154C881.852 67.154 880.591 66.8607 879.652 66.274C878.728 65.6873 878.061 64.822 877.65 63.678C877.254 62.5193 877.056 61.082 877.056 59.366C877.056 57.65 877.254 56.198 877.65 55.01C878.061 53.8073 878.728 52.898 879.652 52.282C880.591 51.666 881.852 51.358 883.436 51.358C884.008 51.358 884.565 51.4093 885.108 51.512C885.665 51.6147 886.12 51.798 886.472 52.062C886.839 52.326 887.022 52.7073 887.022 53.206C887.022 53.5727 886.89 53.8807 886.626 54.13C886.362 54.3793 885.937 54.504 885.35 54.504C885.027 54.504 884.668 54.4673 884.272 54.394C883.876 54.306 883.414 54.262 882.886 54.262C881.859 54.262 881.177 54.68 880.84 55.516C880.517 56.3373 880.356 57.6207 880.356 59.366ZM894.427 67.176C893.151 67.176 892.065 66.9267 891.171 66.428C890.276 65.9147 889.594 65.0787 889.125 63.92C888.67 62.7613 888.443 61.192 888.443 59.212C888.443 57.232 888.67 55.67 889.125 54.526C889.594 53.382 890.276 52.568 891.171 52.084C892.065 51.6 893.151 51.358 894.427 51.358C895.717 51.358 896.803 51.6 897.683 52.084C898.577 52.568 899.252 53.382 899.707 54.526C900.176 55.67 900.411 57.232 900.411 59.212C900.411 61.192 900.176 62.7613 899.707 63.92C899.252 65.0787 898.577 65.9147 897.683 66.428C896.803 66.9267 895.717 67.176 894.427 67.176ZM894.427 64.272C895.013 64.272 895.512 64.1327 895.923 63.854C896.348 63.5753 896.671 63.0693 896.891 62.336C897.125 61.6027 897.243 60.5613 897.243 59.212C897.243 57.848 897.125 56.814 896.891 56.11C896.671 55.3913 896.348 54.9073 895.923 54.658C895.512 54.394 895.013 54.262 894.427 54.262C893.855 54.262 893.356 54.394 892.931 54.658C892.505 54.9073 892.175 55.3913 891.941 56.11C891.721 56.814 891.611 57.848 891.611 59.212C891.611 60.5613 891.721 61.6027 891.941 62.336C892.175 63.0693 892.505 63.5753 892.931 63.854C893.356 64.1327 893.855 64.272 894.427 64.272ZM904.627 67C903.571 67 903.043 66.428 903.043 65.284V53.074C903.043 51.93 903.571 51.358 904.627 51.358C905.683 51.358 906.211 51.93 906.211 53.074V62.842C906.211 63.0767 906.189 63.3773 906.145 63.744C906.116 64.096 906.079 64.3893 906.035 64.624C906.416 64.1693 906.886 63.942 907.443 63.942H910.677C911.22 63.942 911.638 64.074 911.931 64.338C912.224 64.602 912.371 64.9833 912.371 65.482C912.371 66.494 911.806 67 910.677 67H904.627ZM916.714 65.702C916.714 66.6847 916.201 67.176 915.174 67.176C914.676 67.176 914.28 67.0513 913.986 66.802C913.693 66.5527 913.546 66.186 913.546 65.702V56.99C913.546 54.966 913.957 53.5213 914.778 52.656C915.6 51.7907 916.883 51.358 918.628 51.358C920.418 51.358 921.738 51.798 922.588 52.678C923.439 53.558 923.864 54.9953 923.864 56.99V65.702C923.864 66.6847 923.351 67.176 922.324 67.176C921.826 67.176 921.43 67.0513 921.136 66.802C920.843 66.5527 920.696 66.186 920.696 65.702V60.4C920.418 60.6493 920.11 60.862 919.772 61.038C919.45 61.214 919.068 61.302 918.628 61.302C917.983 61.302 917.499 61.4193 917.176 61.654C916.868 61.8887 916.714 62.3067 916.714 62.908V65.702ZM916.582 59.256C916.817 59.0213 917.096 58.838 917.418 58.706C917.756 58.574 918.159 58.508 918.628 58.508C919.186 58.508 919.611 58.464 919.904 58.376C920.212 58.288 920.425 58.1193 920.542 57.87C920.66 57.6207 920.718 57.254 920.718 56.77C920.718 55.6847 920.564 54.944 920.256 54.548C919.948 54.1373 919.398 53.932 918.606 53.932C917.873 53.932 917.367 54.1447 917.088 54.57C916.824 54.9807 916.692 55.7433 916.692 56.858C916.692 57.43 916.685 57.914 916.67 58.31C916.656 58.706 916.626 59.0213 916.582 59.256ZM927.792 67C927.513 67 927.279 66.89 927.088 66.67C926.897 66.45 926.802 66.1713 926.802 65.834V55.934C926.802 55.45 926.868 54.944 927 54.416C927.147 53.888 927.411 53.3967 927.792 52.942C928.188 52.4727 928.745 52.0913 929.464 51.798C930.183 51.5047 931.121 51.358 932.28 51.358C933.82 51.358 935.015 51.7393 935.866 52.502C936.717 53.2647 937.142 54.4087 937.142 55.934C937.142 56.55 937.025 57.1147 936.79 57.628C936.57 58.1413 936.233 58.53 935.778 58.794C936.497 59.1167 937.01 59.564 937.318 60.136C937.641 60.708 937.802 61.5 937.802 62.512C937.802 63.9787 937.347 65.0933 936.438 65.856C935.543 66.6187 934.157 67 932.28 67H927.792ZM929.816 58.398C930.007 58.1633 930.315 57.98 930.74 57.848C931.18 57.716 931.693 57.65 932.28 57.65C932.969 57.65 933.439 57.5253 933.688 57.276C933.952 57.012 934.084 56.5647 934.084 55.934C934.084 55.2007 933.93 54.68 933.622 54.372C933.329 54.0493 932.881 53.888 932.28 53.888C931.429 53.888 930.828 54.042 930.476 54.35C930.139 54.658 929.97 55.186 929.97 55.934C929.97 56.3887 929.963 56.7553 929.948 57.034C929.948 57.298 929.933 57.5327 929.904 57.738C929.889 57.9433 929.86 58.1633 929.816 58.398ZM929.97 64.448H932.28C933.16 64.448 933.769 64.294 934.106 63.986C934.458 63.678 934.634 63.1867 934.634 62.512C934.634 61.5587 934.451 60.8767 934.084 60.466C933.732 60.0553 933.131 59.85 932.28 59.85C931.679 59.85 931.209 59.9307 930.872 60.092C930.535 60.2387 930.3 60.5027 930.168 60.884C930.036 61.2653 929.97 61.808 929.97 62.512V64.448Z" fill="white"/>
<path d="M1024.48 49.25L1034.58 66.7542C1035.93 69.0876 1034.24 72.0042 1031.55 72.0042H1011.34C1008.64 72.0042 1006.96 69.0876 1008.31 66.7542L1018.41 49.25C1019.76 46.9167 1023.13 46.9167 1024.48 49.25Z" stroke="white" stroke-width="3"/>
<rect x="995.857" y="52.8423" width="24.0869" height="24.0869" rx="6.5" stroke="white" stroke-width="3"/>
<circle cx="997.558" cy="53.5585" r="11.0585" stroke="white" stroke-width="3"/>
<line x1="1015.53" y1="72.0042" x2="1023.91" y2="72.0042" stroke="white" stroke-width="3"/>
<line x1="995.857" y1="60.6995" x2="995.857" y2="66.1169" stroke="white" stroke-width="3"/>
<path d="M1047.36 59.366C1047.36 61.1113 1047.57 62.3653 1047.99 63.128C1048.42 63.876 1049.05 64.25 1049.89 64.25C1050.41 64.25 1050.88 64.2133 1051.27 64.14C1051.67 64.052 1052.03 64.008 1052.35 64.008C1052.94 64.008 1053.36 64.1327 1053.63 64.382C1053.89 64.6167 1054.02 64.9247 1054.02 65.306C1054.02 65.8047 1053.84 66.186 1053.47 66.45C1053.12 66.714 1052.67 66.8973 1052.11 67C1051.57 67.1027 1051.01 67.154 1050.44 67.154C1048.85 67.154 1047.59 66.8607 1046.65 66.274C1045.73 65.6873 1045.06 64.822 1044.65 63.678C1044.25 62.5193 1044.06 61.082 1044.06 59.366C1044.06 57.65 1044.25 56.198 1044.65 55.01C1045.06 53.8073 1045.73 52.898 1046.65 52.282C1047.59 51.666 1048.85 51.358 1050.44 51.358C1051.01 51.358 1051.57 51.4093 1052.11 51.512C1052.67 51.6147 1053.12 51.798 1053.47 52.062C1053.84 52.326 1054.02 52.7073 1054.02 53.206C1054.02 53.5727 1053.89 53.8807 1053.63 54.13C1053.36 54.3793 1052.94 54.504 1052.35 54.504C1052.03 54.504 1051.67 54.4673 1051.27 54.394C1050.88 54.306 1050.41 54.262 1049.89 54.262C1048.86 54.262 1048.18 54.68 1047.84 55.516C1047.52 56.3373 1047.36 57.6207 1047.36 59.366ZM1061.43 67.176C1060.15 67.176 1059.07 66.9267 1058.17 66.428C1057.28 65.9147 1056.59 65.0787 1056.12 63.92C1055.67 62.7613 1055.44 61.192 1055.44 59.212C1055.44 57.232 1055.67 55.67 1056.12 54.526C1056.59 53.382 1057.28 52.568 1058.17 52.084C1059.07 51.6 1060.15 51.358 1061.43 51.358C1062.72 51.358 1063.8 51.6 1064.68 52.084C1065.58 52.568 1066.25 53.382 1066.71 54.526C1067.18 55.67 1067.41 57.232 1067.41 59.212C1067.41 61.192 1067.18 62.7613 1066.71 63.92C1066.25 65.0787 1065.58 65.9147 1064.68 66.428C1063.8 66.9267 1062.72 67.176 1061.43 67.176ZM1061.43 64.272C1062.01 64.272 1062.51 64.1327 1062.92 63.854C1063.35 63.5753 1063.67 63.0693 1063.89 62.336C1064.13 61.6027 1064.24 60.5613 1064.24 59.212C1064.24 57.848 1064.13 56.814 1063.89 56.11C1063.67 55.3913 1063.35 54.9073 1062.92 54.658C1062.51 54.394 1062.01 54.262 1061.43 54.262C1060.85 54.262 1060.36 54.394 1059.93 54.658C1059.51 54.9073 1059.18 55.3913 1058.94 56.11C1058.72 56.814 1058.61 57.848 1058.61 59.212C1058.61 60.5613 1058.72 61.6027 1058.94 62.336C1059.18 63.0693 1059.51 63.5753 1059.93 63.854C1060.36 64.1327 1060.85 64.272 1061.43 64.272ZM1071.63 67C1070.57 67 1070.04 66.428 1070.04 65.284V53.074C1070.04 51.93 1070.57 51.358 1071.63 51.358C1072.68 51.358 1073.21 51.93 1073.21 53.074V62.842C1073.21 63.0767 1073.19 63.3773 1073.14 63.744C1073.12 64.096 1073.08 64.3893 1073.03 64.624C1073.42 64.1693 1073.89 63.942 1074.44 63.942H1077.68C1078.22 63.942 1078.64 64.074 1078.93 64.338C1079.22 64.602 1079.37 64.9833 1079.37 65.482C1079.37 66.494 1078.81 67 1077.68 67H1071.63ZM1083.71 65.702C1083.71 66.6847 1083.2 67.176 1082.17 67.176C1081.68 67.176 1081.28 67.0513 1080.99 66.802C1080.69 66.5527 1080.55 66.186 1080.55 65.702V56.99C1080.55 54.966 1080.96 53.5213 1081.78 52.656C1082.6 51.7907 1083.88 51.358 1085.63 51.358C1087.42 51.358 1088.74 51.798 1089.59 52.678C1090.44 53.558 1090.86 54.9953 1090.86 56.99V65.702C1090.86 66.6847 1090.35 67.176 1089.32 67.176C1088.83 67.176 1088.43 67.0513 1088.14 66.802C1087.84 66.5527 1087.7 66.186 1087.7 65.702V60.4C1087.42 60.6493 1087.11 60.862 1086.77 61.038C1086.45 61.214 1086.07 61.302 1085.63 61.302C1084.98 61.302 1084.5 61.4193 1084.18 61.654C1083.87 61.8887 1083.71 62.3067 1083.71 62.908V65.702ZM1083.58 59.256C1083.82 59.0213 1084.1 58.838 1084.42 58.706C1084.76 58.574 1085.16 58.508 1085.63 58.508C1086.19 58.508 1086.61 58.464 1086.9 58.376C1087.21 58.288 1087.42 58.1193 1087.54 57.87C1087.66 57.6207 1087.72 57.254 1087.72 56.77C1087.72 55.6847 1087.56 54.944 1087.26 54.548C1086.95 54.1373 1086.4 53.932 1085.61 53.932C1084.87 53.932 1084.37 54.1447 1084.09 54.57C1083.82 54.9807 1083.69 55.7433 1083.69 56.858C1083.69 57.43 1083.68 57.914 1083.67 58.31C1083.66 58.706 1083.63 59.0213 1083.58 59.256ZM1094.79 67C1094.51 67 1094.28 66.89 1094.09 66.67C1093.9 66.45 1093.8 66.1713 1093.8 65.834V55.934C1093.8 55.45 1093.87 54.944 1094 54.416C1094.15 53.888 1094.41 53.3967 1094.79 52.942C1095.19 52.4727 1095.75 52.0913 1096.46 51.798C1097.18 51.5047 1098.12 51.358 1099.28 51.358C1100.82 51.358 1102.02 51.7393 1102.87 52.502C1103.72 53.2647 1104.14 54.4087 1104.14 55.934C1104.14 56.55 1104.02 57.1147 1103.79 57.628C1103.57 58.1413 1103.23 58.53 1102.78 58.794C1103.5 59.1167 1104.01 59.564 1104.32 60.136C1104.64 60.708 1104.8 61.5 1104.8 62.512C1104.8 63.9787 1104.35 65.0933 1103.44 65.856C1102.54 66.6187 1101.16 67 1099.28 67H1094.79ZM1096.82 58.398C1097.01 58.1633 1097.31 57.98 1097.74 57.848C1098.18 57.716 1098.69 57.65 1099.28 57.65C1099.97 57.65 1100.44 57.5253 1100.69 57.276C1100.95 57.012 1101.08 56.5647 1101.08 55.934C1101.08 55.2007 1100.93 54.68 1100.62 54.372C1100.33 54.0493 1099.88 53.888 1099.28 53.888C1098.43 53.888 1097.83 54.042 1097.48 54.35C1097.14 54.658 1096.97 55.186 1096.97 55.934C1096.97 56.3887 1096.96 56.7553 1096.95 57.034C1096.95 57.298 1096.93 57.5327 1096.9 57.738C1096.89 57.9433 1096.86 58.1633 1096.82 58.398ZM1096.97 64.448H1099.28C1100.16 64.448 1100.77 64.294 1101.11 63.986C1101.46 63.678 1101.63 63.1867 1101.63 62.512C1101.63 61.5587 1101.45 60.8767 1101.08 60.466C1100.73 60.0553 1100.13 59.85 1099.28 59.85C1098.68 59.85 1098.21 59.9307 1097.87 60.092C1097.53 60.2387 1097.3 60.5027 1097.17 60.884C1097.04 61.2653 1096.97 61.808 1096.97 62.512V64.448Z" fill="white"/>
<path d="M1191.48 49.25L1201.58 66.7542C1202.93 69.0876 1201.24 72.0042 1198.55 72.0042H1178.34C1175.64 72.0042 1173.96 69.0876 1175.31 66.7542L1185.41 49.25C1186.76 46.9167 1190.13 46.9167 1191.48 49.25Z" stroke="white" stroke-width="3"/>
<rect x="1162.86" y="52.8423" width="24.0869" height="24.0869" rx="6.5" stroke="white" stroke-width="3"/>
<circle cx="1164.56" cy="53.5585" r="11.0585" stroke="white" stroke-width="3"/>
<line x1="1182.53" y1="72.0042" x2="1190.91" y2="72.0042" stroke="white" stroke-width="3"/>
<line x1="1162.86" y1="60.6995" x2="1162.86" y2="66.1169" stroke="white" stroke-width="3"/>
<path d="M1214.36 59.366C1214.36 61.1113 1214.57 62.3653 1214.99 63.128C1215.42 63.876 1216.05 64.25 1216.89 64.25C1217.41 64.25 1217.88 64.2133 1218.27 64.14C1218.67 64.052 1219.03 64.008 1219.35 64.008C1219.94 64.008 1220.36 64.1327 1220.63 64.382C1220.89 64.6167 1221.02 64.9247 1221.02 65.306C1221.02 65.8047 1220.84 66.186 1220.47 66.45C1220.12 66.714 1219.67 66.8973 1219.11 67C1218.57 67.1027 1218.01 67.154 1217.44 67.154C1215.85 67.154 1214.59 66.8607 1213.65 66.274C1212.73 65.6873 1212.06 64.822 1211.65 63.678C1211.25 62.5193 1211.06 61.082 1211.06 59.366C1211.06 57.65 1211.25 56.198 1211.65 55.01C1212.06 53.8073 1212.73 52.898 1213.65 52.282C1214.59 51.666 1215.85 51.358 1217.44 51.358C1218.01 51.358 1218.57 51.4093 1219.11 51.512C1219.67 51.6147 1220.12 51.798 1220.47 52.062C1220.84 52.326 1221.02 52.7073 1221.02 53.206C1221.02 53.5727 1220.89 53.8807 1220.63 54.13C1220.36 54.3793 1219.94 54.504 1219.35 54.504C1219.03 54.504 1218.67 54.4673 1218.27 54.394C1217.88 54.306 1217.41 54.262 1216.89 54.262C1215.86 54.262 1215.18 54.68 1214.84 55.516C1214.52 56.3373 1214.36 57.6207 1214.36 59.366ZM1228.43 67.176C1227.15 67.176 1226.07 66.9267 1225.17 66.428C1224.28 65.9147 1223.59 65.0787 1223.12 63.92C1222.67 62.7613 1222.44 61.192 1222.44 59.212C1222.44 57.232 1222.67 55.67 1223.12 54.526C1223.59 53.382 1224.28 52.568 1225.17 52.084C1226.07 51.6 1227.15 51.358 1228.43 51.358C1229.72 51.358 1230.8 51.6 1231.68 52.084C1232.58 52.568 1233.25 53.382 1233.71 54.526C1234.18 55.67 1234.41 57.232 1234.41 59.212C1234.41 61.192 1234.18 62.7613 1233.71 63.92C1233.25 65.0787 1232.58 65.9147 1231.68 66.428C1230.8 66.9267 1229.72 67.176 1228.43 67.176ZM1228.43 64.272C1229.01 64.272 1229.51 64.1327 1229.92 63.854C1230.35 63.5753 1230.67 63.0693 1230.89 62.336C1231.13 61.6027 1231.24 60.5613 1231.24 59.212C1231.24 57.848 1231.13 56.814 1230.89 56.11C1230.67 55.3913 1230.35 54.9073 1229.92 54.658C1229.51 54.394 1229.01 54.262 1228.43 54.262C1227.85 54.262 1227.36 54.394 1226.93 54.658C1226.51 54.9073 1226.18 55.3913 1225.94 56.11C1225.72 56.814 1225.61 57.848 1225.61 59.212C1225.61 60.5613 1225.72 61.6027 1225.94 62.336C1226.18 63.0693 1226.51 63.5753 1226.93 63.854C1227.36 64.1327 1227.85 64.272 1228.43 64.272ZM1238.63 67C1237.57 67 1237.04 66.428 1237.04 65.284V53.074C1237.04 51.93 1237.57 51.358 1238.63 51.358C1239.68 51.358 1240.21 51.93 1240.21 53.074V62.842C1240.21 63.0767 1240.19 63.3773 1240.14 63.744C1240.12 64.096 1240.08 64.3893 1240.03 64.624C1240.42 64.1693 1240.89 63.942 1241.44 63.942H1244.68C1245.22 63.942 1245.64 64.074 1245.93 64.338C1246.22 64.602 1246.37 64.9833 1246.37 65.482C1246.37 66.494 1245.81 67 1244.68 67H1238.63ZM1250.71 65.702C1250.71 66.6847 1250.2 67.176 1249.17 67.176C1248.68 67.176 1248.28 67.0513 1247.99 66.802C1247.69 66.5527 1247.55 66.186 1247.55 65.702V56.99C1247.55 54.966 1247.96 53.5213 1248.78 52.656C1249.6 51.7907 1250.88 51.358 1252.63 51.358C1254.42 51.358 1255.74 51.798 1256.59 52.678C1257.44 53.558 1257.86 54.9953 1257.86 56.99V65.702C1257.86 66.6847 1257.35 67.176 1256.32 67.176C1255.83 67.176 1255.43 67.0513 1255.14 66.802C1254.84 66.5527 1254.7 66.186 1254.7 65.702V60.4C1254.42 60.6493 1254.11 60.862 1253.77 61.038C1253.45 61.214 1253.07 61.302 1252.63 61.302C1251.98 61.302 1251.5 61.4193 1251.18 61.654C1250.87 61.8887 1250.71 62.3067 1250.71 62.908V65.702ZM1250.58 59.256C1250.82 59.0213 1251.1 58.838 1251.42 58.706C1251.76 58.574 1252.16 58.508 1252.63 58.508C1253.19 58.508 1253.61 58.464 1253.9 58.376C1254.21 58.288 1254.42 58.1193 1254.54 57.87C1254.66 57.6207 1254.72 57.254 1254.72 56.77C1254.72 55.6847 1254.56 54.944 1254.26 54.548C1253.95 54.1373 1253.4 53.932 1252.61 53.932C1251.87 53.932 1251.37 54.1447 1251.09 54.57C1250.82 54.9807 1250.69 55.7433 1250.69 56.858C1250.69 57.43 1250.68 57.914 1250.67 58.31C1250.66 58.706 1250.63 59.0213 1250.58 59.256ZM1261.79 67C1261.51 67 1261.28 66.89 1261.09 66.67C1260.9 66.45 1260.8 66.1713 1260.8 65.834V55.934C1260.8 55.45 1260.87 54.944 1261 54.416C1261.15 53.888 1261.41 53.3967 1261.79 52.942C1262.19 52.4727 1262.75 52.0913 1263.46 51.798C1264.18 51.5047 1265.12 51.358 1266.28 51.358C1267.82 51.358 1269.02 51.7393 1269.87 52.502C1270.72 53.2647 1271.14 54.4087 1271.14 55.934C1271.14 56.55 1271.02 57.1147 1270.79 57.628C1270.57 58.1413 1270.23 58.53 1269.78 58.794C1270.5 59.1167 1271.01 59.564 1271.32 60.136C1271.64 60.708 1271.8 61.5 1271.8 62.512C1271.8 63.9787 1271.35 65.0933 1270.44 65.856C1269.54 66.6187 1268.16 67 1266.28 67H1261.79ZM1263.82 58.398C1264.01 58.1633 1264.31 57.98 1264.74 57.848C1265.18 57.716 1265.69 57.65 1266.28 57.65C1266.97 57.65 1267.44 57.5253 1267.69 57.276C1267.95 57.012 1268.08 56.5647 1268.08 55.934C1268.08 55.2007 1267.93 54.68 1267.62 54.372C1267.33 54.0493 1266.88 53.888 1266.28 53.888C1265.43 53.888 1264.83 54.042 1264.48 54.35C1264.14 54.658 1263.97 55.186 1263.97 55.934C1263.97 56.3887 1263.96 56.7553 1263.95 57.034C1263.95 57.298 1263.93 57.5327 1263.9 57.738C1263.89 57.9433 1263.86 58.1633 1263.82 58.398ZM1263.97 64.448H1266.28C1267.16 64.448 1267.77 64.294 1268.11 63.986C1268.46 63.678 1268.63 63.1867 1268.63 62.512C1268.63 61.5587 1268.45 60.8767 1268.08 60.466C1267.73 60.0553 1267.13 59.85 1266.28 59.85C1265.68 59.85 1265.21 59.9307 1264.87 60.092C1264.53 60.2387 1264.3 60.5027 1264.17 60.884C1264.04 61.2653 1263.97 61.808 1263.97 62.512V64.448Z" fill="white"/>
<path d="M1358.48 49.25L1368.58 66.7542C1369.93 69.0876 1368.24 72.0042 1365.55 72.0042H1345.34C1342.64 72.0042 1340.96 69.0876 1342.31 66.7542L1352.41 49.25C1353.76 46.9167 1357.13 46.9167 1358.48 49.25Z" stroke="white" stroke-width="3"/>
<rect x="1329.86" y="52.8423" width="24.0869" height="24.0869" rx="6.5" stroke="white" stroke-width="3"/>
<circle cx="1331.56" cy="53.5585" r="11.0585" stroke="white" stroke-width="3"/>
<line x1="1349.53" y1="72.0042" x2="1357.91" y2="72.0042" stroke="white" stroke-width="3"/>
<line x1="1329.86" y1="60.6995" x2="1329.86" y2="66.1169" stroke="white" stroke-width="3"/>
<path d="M1381.36 59.366C1381.36 61.1113 1381.57 62.3653 1381.99 63.128C1382.42 63.876 1383.05 64.25 1383.89 64.25C1384.41 64.25 1384.88 64.2133 1385.27 64.14C1385.67 64.052 1386.03 64.008 1386.35 64.008C1386.94 64.008 1387.36 64.1327 1387.63 64.382C1387.89 64.6167 1388.02 64.9247 1388.02 65.306C1388.02 65.8047 1387.84 66.186 1387.47 66.45C1387.12 66.714 1386.67 66.8973 1386.11 67C1385.57 67.1027 1385.01 67.154 1384.44 67.154C1382.85 67.154 1381.59 66.8607 1380.65 66.274C1379.73 65.6873 1379.06 64.822 1378.65 63.678C1378.25 62.5193 1378.06 61.082 1378.06 59.366C1378.06 57.65 1378.25 56.198 1378.65 55.01C1379.06 53.8073 1379.73 52.898 1380.65 52.282C1381.59 51.666 1382.85 51.358 1384.44 51.358C1385.01 51.358 1385.57 51.4093 1386.11 51.512C1386.67 51.6147 1387.12 51.798 1387.47 52.062C1387.84 52.326 1388.02 52.7073 1388.02 53.206C1388.02 53.5727 1387.89 53.8807 1387.63 54.13C1387.36 54.3793 1386.94 54.504 1386.35 54.504C1386.03 54.504 1385.67 54.4673 1385.27 54.394C1384.88 54.306 1384.41 54.262 1383.89 54.262C1382.86 54.262 1382.18 54.68 1381.84 55.516C1381.52 56.3373 1381.36 57.6207 1381.36 59.366ZM1395.43 67.176C1394.15 67.176 1393.07 66.9267 1392.17 66.428C1391.28 65.9147 1390.59 65.0787 1390.12 63.92C1389.67 62.7613 1389.44 61.192 1389.44 59.212C1389.44 57.232 1389.67 55.67 1390.12 54.526C1390.59 53.382 1391.28 52.568 1392.17 52.084C1393.07 51.6 1394.15 51.358 1395.43 51.358C1396.72 51.358 1397.8 51.6 1398.68 52.084C1399.58 52.568 1400.25 53.382 1400.71 54.526C1401.18 55.67 1401.41 57.232 1401.41 59.212C1401.41 61.192 1401.18 62.7613 1400.71 63.92C1400.25 65.0787 1399.58 65.9147 1398.68 66.428C1397.8 66.9267 1396.72 67.176 1395.43 67.176ZM1395.43 64.272C1396.01 64.272 1396.51 64.1327 1396.92 63.854C1397.35 63.5753 1397.67 63.0693 1397.89 62.336C1398.13 61.6027 1398.24 60.5613 1398.24 59.212C1398.24 57.848 1398.13 56.814 1397.89 56.11C1397.67 55.3913 1397.35 54.9073 1396.92 54.658C1396.51 54.394 1396.01 54.262 1395.43 54.262C1394.85 54.262 1394.36 54.394 1393.93 54.658C1393.51 54.9073 1393.18 55.3913 1392.94 56.11C1392.72 56.814 1392.61 57.848 1392.61 59.212C1392.61 60.5613 1392.72 61.6027 1392.94 62.336C1393.18 63.0693 1393.51 63.5753 1393.93 63.854C1394.36 64.1327 1394.85 64.272 1395.43 64.272ZM1405.63 67C1404.57 67 1404.04 66.428 1404.04 65.284V53.074C1404.04 51.93 1404.57 51.358 1405.63 51.358C1406.68 51.358 1407.21 51.93 1407.21 53.074V62.842C1407.21 63.0767 1407.19 63.3773 1407.14 63.744C1407.12 64.096 1407.08 64.3893 1407.03 64.624C1407.42 64.1693 1407.89 63.942 1408.44 63.942H1411.68C1412.22 63.942 1412.64 64.074 1412.93 64.338C1413.22 64.602 1413.37 64.9833 1413.37 65.482C1413.37 66.494 1412.81 67 1411.68 67H1405.63ZM1417.71 65.702C1417.71 66.6847 1417.2 67.176 1416.17 67.176C1415.68 67.176 1415.28 67.0513 1414.99 66.802C1414.69 66.5527 1414.55 66.186 1414.55 65.702V56.99C1414.55 54.966 1414.96 53.5213 1415.78 52.656C1416.6 51.7907 1417.88 51.358 1419.63 51.358C1421.42 51.358 1422.74 51.798 1423.59 52.678C1424.44 53.558 1424.86 54.9953 1424.86 56.99V65.702C1424.86 66.6847 1424.35 67.176 1423.32 67.176C1422.83 67.176 1422.43 67.0513 1422.14 66.802C1421.84 66.5527 1421.7 66.186 1421.7 65.702V60.4C1421.42 60.6493 1421.11 60.862 1420.77 61.038C1420.45 61.214 1420.07 61.302 1419.63 61.302C1418.98 61.302 1418.5 61.4193 1418.18 61.654C1417.87 61.8887 1417.71 62.3067 1417.71 62.908V65.702ZM1417.58 59.256C1417.82 59.0213 1418.1 58.838 1418.42 58.706C1418.76 58.574 1419.16 58.508 1419.63 58.508C1420.19 58.508 1420.61 58.464 1420.9 58.376C1421.21 58.288 1421.42 58.1193 1421.54 57.87C1421.66 57.6207 1421.72 57.254 1421.72 56.77C1421.72 55.6847 1421.56 54.944 1421.26 54.548C1420.95 54.1373 1420.4 53.932 1419.61 53.932C1418.87 53.932 1418.37 54.1447 1418.09 54.57C1417.82 54.9807 1417.69 55.7433 1417.69 56.858C1417.69 57.43 1417.68 57.914 1417.67 58.31C1417.66 58.706 1417.63 59.0213 1417.58 59.256ZM1428.79 67C1428.51 67 1428.28 66.89 1428.09 66.67C1427.9 66.45 1427.8 66.1713 1427.8 65.834V55.934C1427.8 55.45 1427.87 54.944 1428 54.416C1428.15 53.888 1428.41 53.3967 1428.79 52.942C1429.19 52.4727 1429.75 52.0913 1430.46 51.798C1431.18 51.5047 1432.12 51.358 1433.28 51.358C1434.82 51.358 1436.02 51.7393 1436.87 52.502C1437.72 53.2647 1438.14 54.4087 1438.14 55.934C1438.14 56.55 1438.02 57.1147 1437.79 57.628C1437.57 58.1413 1437.23 58.53 1436.78 58.794C1437.5 59.1167 1438.01 59.564 1438.32 60.136C1438.64 60.708 1438.8 61.5 1438.8 62.512C1438.8 63.9787 1438.35 65.0933 1437.44 65.856C1436.54 66.6187 1435.16 67 1433.28 67H1428.79ZM1430.82 58.398C1431.01 58.1633 1431.31 57.98 1431.74 57.848C1432.18 57.716 1432.69 57.65 1433.28 57.65C1433.97 57.65 1434.44 57.5253 1434.69 57.276C1434.95 57.012 1435.08 56.5647 1435.08 55.934C1435.08 55.2007 1434.93 54.68 1434.62 54.372C1434.33 54.0493 1433.88 53.888 1433.28 53.888C1432.43 53.888 1431.83 54.042 1431.48 54.35C1431.14 54.658 1430.97 55.186 1430.97 55.934C1430.97 56.3887 1430.96 56.7553 1430.95 57.034C1430.95 57.298 1430.93 57.5327 1430.9 57.738C1430.89 57.9433 1430.86 58.1633 1430.82 58.398ZM1430.97 64.448H1433.28C1434.16 64.448 1434.77 64.294 1435.11 63.986C1435.46 63.678 1435.63 63.1867 1435.63 62.512C1435.63 61.5587 1435.45 60.8767 1435.08 60.466C1434.73 60.0553 1434.13 59.85 1433.28 59.85C1432.68 59.85 1432.21 59.9307 1431.87 60.092C1431.53 60.2387 1431.3 60.5027 1431.17 60.884C1431.04 61.2653 1430.97 61.808 1430.97 62.512V64.448Z" fill="white"/>
</svg>
