<svg width="500" height="500" viewBox="0 0 500 500" fill="none" xmlns="http://www.w3.org/2000/svg">
<g clip-path="url(#clip0_214_1343)">
<path opacity="0.62" d="M309.051 158.732C220.987 128.377 184.953 -11.348 76.925 104.332C-26.157 214.716 67.32 393.893 189.634 410.043C311.948 426.193 459.658 354.468 475.499 257.638C502.567 92.179 368.128 179.096 309.051 158.732Z" fill="#F8F5F5"/>
<path opacity="0.62" d="M330 135C352.644 135 371 116.644 371 94C371 71.3563 352.644 53 330 53C307.356 53 289 71.3563 289 94C289 116.644 307.356 135 330 135Z" fill="#F8F5F5"/>
<path d="M262.708 281H352.873V304.411H352.978V419H317.978L313.978 339.583H300.978L297.978 419H262.978V341.375H262.708V281Z" fill="#0F0F1E"/>
<path d="M392.32 207.01L398.673 227.015C398.871 227.216 398.509 227.244 398.673 227.015L415.855 192.155L423.093 179.278C418.97 174.954 419.946 166.642 419.973 166.66L417.949 160.29C417.583 159.138 418.078 157.826 419.188 157.347C420.464 156.796 421.902 157.475 422.312 158.765C422.312 158.765 423.466 162.419 424.225 164.827C424.541 165.831 425.957 165.928 426.371 164.96C426.973 163.552 426.975 161.904 426.815 160.577C426.798 160.518 423.324 144.13 423.324 144.13C423.06 142.882 423.859 141.656 425.107 141.393C426.405 141.393 427.687 142.432 427.956 143.703L430.367 155.124C430.475 155.635 430.926 156 431.448 156H431.806C432.412 155.999 432.913 155.53 432.954 154.926L433.943 140.326C434.025 139.121 434.966 138.081 436.174 138.042C437.563 137.997 438.653 139.156 438.561 140.507L437.599 154.709C437.549 155.45 438.045 156.117 438.768 156.282C439.692 156.493 440.612 155.915 440.822 154.991L443.649 142.592C443.918 141.414 445.01 140.534 446.209 140.684C447.588 140.856 448.484 142.17 448.183 143.491L445.245 156.376C445.05 157.232 445.137 158.128 445.492 158.931C445.911 159.877 447.247 159.892 447.688 158.957L450.225 153.576C450.74 152.483 451.996 151.858 453.135 152.262C454.445 152.726 455.037 154.202 454.46 155.427L449.182 167.283C445.278 177.957 441.048 184.166 439.586 186.133L410.896 255.573C407.023 263.705 394.29 263.594 387.873 257.274L351 211.386L392.32 207.01Z" fill="#B3633D"/>
<path d="M434.625 172.571C434.644 172.571 434.664 172.57 434.684 172.568C434.976 172.536 435.186 172.274 435.154 171.982C434.86 169.301 433.836 167.324 432.11 166.108C429.222 164.072 425.459 164.935 425.299 164.974C425.014 165.041 424.838 165.328 424.905 165.613C424.973 165.898 425.261 166.072 425.544 166.008C425.578 165.999 429.013 165.219 431.503 166.981C432.965 168.015 433.838 169.737 434.097 172.099C434.128 172.37 434.357 172.571 434.625 172.571Z" fill="#A25632"/>
<path d="M246.939 324.494L230 205L263.799 208.965L263.048 312.278L263.079 312.285L263.044 312.838L262.978 322L262.863 322.022C265.605 329.761 268.313 334.664 268.464 335.012L271.503 342.008C271.952 343.041 271.617 344.305 270.634 344.854C269.503 345.486 268.105 344.993 267.602 343.836L264.514 336.727C264.495 336.683 264.487 336.638 264.471 336.593C263.538 338.046 263.804 358.779 263.804 358.779C263.798 360.041 262.708 361.045 261.419 360.91C260.299 360.793 259.493 359.763 259.498 358.637L259.544 348.47C259.546 348.01 259.164 347.64 258.704 347.658C258.291 347.674 257.964 348.013 257.962 348.426L257.904 361.239C257.899 362.428 256.777 363.387 255.399 363.381C254.021 363.375 252.908 362.406 252.914 361.217L252.972 348.418C252.973 348.059 252.699 347.758 252.341 347.727C251.841 347.684 251.407 348.067 251.387 348.568L250.922 360.481C250.878 361.606 250.028 362.6 248.904 362.669C247.611 362.748 246.565 361.698 246.614 360.436L247.092 348.202C247.112 347.683 246.976 347.001 246.204 347.195C245.929 347.264 245.924 348.296 245.924 348.296L245.737 352.999C245.737 354.125 244.927 355.151 243.806 355.264C242.517 355.393 241.431 354.384 241.431 353.122C241.431 353.122 241.615 337.429 241.909 337.061C242.176 330.442 244.974 326.484 246.939 324.494Z" fill="#B3633D"/>
<path d="M232.356 207.588C232.331 207.581 232.308 207.57 232.283 207.562C232.319 207.61 232.347 207.628 232.356 207.588Z" fill="#FF9B39"/>
<path d="M352.979 223.5C353.255 223.5 353.479 223.276 353.479 223V201C353.479 200.724 353.255 200.5 352.979 200.5C352.703 200.5 352.479 200.724 352.479 201V223C352.479 223.276 352.702 223.5 352.979 223.5Z" fill="#124CA0"/>
<path d="M383.203 207.588C383.228 207.581 383.251 207.57 383.276 207.562C383.24 207.61 383.213 207.628 383.203 207.588Z" fill="#FF9B39"/>
<path d="M394.559 207L389 177C384.808 148.518 360.934 130.124 332.955 123.342C332.518 123.236 332.073 123.139 331.63 123.04C331.608 123.035 331.586 123.024 331.564 123.019C331.523 123.011 331.481 123.005 331.439 122.996C331.266 122.958 331.096 122.915 330.921 122.878C327.183 122.077 323.228 121.665 319.235 121.549C318.852 121.533 313.267 121.526 307.778 121.528C302.289 121.526 296.704 121.533 296.321 121.549C292.328 121.665 288.373 122.077 284.635 122.878C284.46 122.915 284.291 122.958 284.117 122.996C284.076 123.004 284.033 123.01 283.992 123.019C283.97 123.024 283.948 123.035 283.926 123.04C283.483 123.139 283.038 123.237 282.601 123.342C254.622 130.124 233.844 153.683 229.652 182.165L226 207L262.502 212.96C262.501 212.967 262.499 212.985 262.499 212.985V238.203V244.371V286.641C262.499 287.777 263.42 288.699 264.557 288.699L269.557 292.331C269.622 292.378 269.69 292.422 269.755 292.469C270.247 292.823 270.744 293.165 271.243 293.504C271.483 293.667 271.721 293.834 271.963 293.994C272.471 294.329 272.985 294.652 273.499 294.971C273.741 295.121 273.981 295.275 274.225 295.422C274.741 295.733 275.261 296.03 275.783 296.326C276.034 296.468 276.282 296.613 276.534 296.751C277.049 297.034 277.569 297.303 278.09 297.57C278.356 297.707 278.621 297.848 278.889 297.98C279.398 298.232 279.911 298.472 280.424 298.71C280.71 298.843 280.995 298.979 281.283 299.108C281.782 299.331 282.284 299.54 282.787 299.75C283.095 299.878 283.402 300.01 283.711 300.134C284.198 300.328 284.688 300.509 285.179 300.691C285.509 300.813 285.838 300.939 286.17 301.056C286.643 301.222 287.119 301.377 287.595 301.532C287.949 301.647 288.302 301.766 288.657 301.876C289.116 302.017 289.577 302.146 290.038 302.277C290.414 302.384 290.789 302.493 291.166 302.593C291.613 302.711 292.063 302.817 292.512 302.926C292.905 303.021 293.297 303.118 293.691 303.206C294.131 303.304 294.573 303.39 295.015 303.478C295.42 303.559 295.825 303.643 296.232 303.716C296.667 303.794 297.103 303.861 297.539 303.931C297.954 303.997 298.369 304.066 298.785 304.124C299.216 304.184 299.648 304.233 300.08 304.284C300.503 304.334 300.925 304.387 301.349 304.429C301.777 304.471 302.205 304.502 302.633 304.536C303.061 304.57 303.49 304.606 303.919 304.632C304.347 304.657 304.775 304.671 305.203 304.688C305.632 304.705 306.061 304.725 306.49 304.733C306.919 304.741 307.348 304.739 307.777 304.739C308.206 304.739 308.635 304.742 309.064 304.733C309.493 304.724 309.922 304.705 310.351 304.688C310.779 304.671 311.207 304.657 311.635 304.632C312.064 304.606 312.492 304.57 312.921 304.536C313.349 304.502 313.778 304.471 314.205 304.429C314.629 304.387 315.051 304.334 315.474 304.284C315.906 304.233 316.338 304.184 316.769 304.124C317.185 304.066 317.6 303.997 318.015 303.931C318.451 303.862 318.887 303.795 319.322 303.716C319.728 303.643 320.133 303.559 320.539 303.478C320.981 303.39 321.423 303.304 321.863 303.206C322.257 303.119 322.649 303.021 323.042 302.926C323.491 302.818 323.941 302.711 324.388 302.593C324.765 302.493 325.14 302.384 325.516 302.277C325.977 302.147 326.438 302.017 326.897 301.876C327.252 301.767 327.605 301.648 327.959 301.532C328.435 301.377 328.911 301.222 329.384 301.056C329.716 300.939 330.045 300.813 330.375 300.691C330.865 300.509 331.356 300.328 331.843 300.134C332.153 300.011 332.459 299.879 332.767 299.75C333.27 299.541 333.773 299.331 334.271 299.108C334.559 298.98 334.844 298.843 335.13 298.71C335.644 298.472 336.157 298.232 336.665 297.98C336.933 297.847 337.198 297.707 337.464 297.57C337.985 297.303 338.505 297.033 339.02 296.751C339.272 296.613 339.521 296.467 339.771 296.326C340.293 296.031 340.814 295.733 341.329 295.422C341.572 295.275 341.813 295.121 342.055 294.971C342.57 294.651 343.084 294.329 343.591 293.994C343.833 293.834 344.071 293.668 344.311 293.504C344.81 293.165 345.308 292.823 345.799 292.469C345.864 292.422 345.932 292.379 345.997 292.331L350.997 288.699C352.133 288.699 353.055 287.778 353.055 286.641V244.371V238.203V212.985C353.055 212.985 353.053 212.967 353.052 212.96L394.559 207Z" fill="#FF9B39"/>
<path d="M262.582 223.234C262.306 223.234 262.082 222.892 262.082 222.468V188.766C262.082 188.343 262.306 188 262.582 188C262.858 188 263.082 188.343 263.082 188.766V222.468C263.082 222.891 262.858 223.234 262.582 223.234Z" fill="#C54F17"/>
<path d="M353.082 224C352.806 224 352.582 223.657 352.582 223.234V189.532C352.582 189.109 352.806 188.766 353.082 188.766C353.358 188.766 353.582 189.108 353.582 189.532V223.234C353.582 223.657 353.358 224 353.082 224Z" fill="#C54F17"/>
<path d="M333 67.634V59.5C333 45.417 321.583 34 307.5 34C293.417 34 282 45.417 282 59.5V67.631H281.615C277.398 67.631 273.979 71.05 273.979 75.267V76.095C273.979 80.312 277.398 83.731 281.615 83.731H282V86.5C282 87.738 282.093 88.953 282.263 90.144V98.576C282.263 104.202 286.354 108.858 291.721 109.77V131.375C291.721 137.21 296.45 141.941 302.286 141.941H309.297C315.588 141.941 320.688 136.841 320.688 130.55V109.948H320.72H321.372C327.652 109.948 332.743 104.857 332.743 98.577V90.086C332.909 88.913 333 87.717 333 86.5V83.729C337.19 83.697 340.578 80.293 340.578 76.096V75.268C340.578 71.07 337.19 67.665 333 67.634Z" fill="#B3633D"/>
<path d="M320.999 120V129.464L292.071 119.838C292.672 119.936 293.284 120 293.912 120H320.999Z" fill="#A25632"/>
<path d="M317.25 121H297.75C289.051 121 282 113.949 282 105.25V68L287.556 86L289.166 89.839C289.632 90.951 291.006 91.351 291.996 90.663L294.841 88.686C297.357 86.938 300.347 86.001 303.411 86.001H309.638C312.432 86.001 316.177 86.74 318.593 88.144L321.965 90.102C323.568 91.033 325.61 91.11 325.971 89.292L333 68V105.25C333 113.949 325.948 121 317.25 121Z" fill="#2F150B"/>
<path d="M275.82 75.73C276.096 75.73 276.32 75.506 276.32 75.23C276.32 70.844 280.191 70.771 280.356 70.77C280.631 70.768 280.855 70.544 280.854 70.268C280.853 69.993 280.63 69.77 280.355 69.77C280.305 69.77 275.321 69.833 275.321 75.23C275.32 75.506 275.543 75.73 275.82 75.73Z" fill="#A25632"/>
<path d="M338.452 75.73C338.728 75.73 338.952 75.506 338.952 75.23C338.952 69.833 333.968 69.77 333.917 69.77C333.642 69.77 333.418 69.993 333.417 70.268C333.417 70.543 333.64 70.768 333.915 70.77C334.08 70.771 337.951 70.844 337.951 75.23C337.952 75.506 338.175 75.73 338.452 75.73Z" fill="#A25632"/>
<path d="M296.107 78.194C295.348 78.194 294.733 77.579 294.733 76.82V74.073C294.733 73.315 295.348 72.7 296.107 72.7C296.866 72.7 297.481 73.315 297.481 74.073V76.82C297.481 77.579 296.866 78.194 296.107 78.194Z" fill="black"/>
<path d="M317.175 78.194C316.417 78.194 315.801 77.579 315.801 76.82V74.073C315.801 73.315 316.416 72.7 317.175 72.7C317.934 72.7 318.549 73.315 318.549 74.073V76.82C318.549 77.579 317.934 78.194 317.175 78.194Z" fill="black"/>
<path d="M299.68 65.515C299.222 66.168 298.383 66.423 297.594 66.733C296.79 67.022 295.993 67.341 295.314 67.651C294.633 67.962 293.867 68.356 293.117 68.776C292.362 69.17 291.609 69.641 290.848 69.545C290.119 69.464 289.465 68.577 289.644 67.037C289.795 65.549 290.953 63.478 293.202 62.442C295.455 61.423 297.669 61.956 298.791 62.862C299.968 63.785 300.126 64.897 299.68 65.515Z" fill="#2F150B"/>
<path d="M322.345 67.743C321.531 67.998 320.657 67.673 319.788 67.427C318.921 67.153 318.041 66.909 317.265 66.733C316.487 66.556 315.583 66.396 314.676 66.267C313.782 66.113 312.837 66.025 312.26 65.454C311.699 64.916 311.73 63.747 312.892 62.565C313.996 61.408 316.33 60.408 318.905 60.983C321.472 61.575 322.987 63.449 323.337 64.936C323.723 66.47 323.126 67.51 322.345 67.743Z" fill="#2F150B"/>
<path d="M295.97 78.7729C296.72 78.7729 297.601 78.6119 298.56 78.1319C298.807 78.0079 298.907 77.7079 298.784 77.4609C298.66 77.2139 298.36 77.1139 298.113 77.2369C295.79 78.3999 294.075 77.3139 294.004 77.2669C293.773 77.1159 293.463 77.1809 293.312 77.4099C293.161 77.6389 293.222 77.9479 293.451 78.0999C293.511 78.1409 294.485 78.7729 295.97 78.7729Z" fill="#A25632"/>
<path d="M317.038 78.7729C317.788 78.7729 318.669 78.6119 319.628 78.1319C319.875 78.0079 319.975 77.7079 319.852 77.4609C319.728 77.2139 319.428 77.1139 319.181 77.2369C316.857 78.3999 315.143 77.3139 315.072 77.2669C314.84 77.1159 314.532 77.1809 314.38 77.4099C314.229 77.6389 314.29 77.9479 314.519 78.0999C314.579 78.1409 315.552 78.7729 317.038 78.7729Z" fill="#A25632"/>
<path d="M305.918 84.039H312.546C312.822 84.039 313.046 83.815 313.046 83.539C313.046 83.263 312.822 83.039 312.546 83.039H305.918C303.426 83.039 301.398 81.011 301.398 78.519V77.267C301.398 76.555 301.978 75.975 302.69 75.975C304.781 75.975 306.08 74.41 306.08 71.891L306.27 65.465C306.278 65.189 306.06 64.959 305.785 64.95C305.526 64.958 305.279 65.159 305.27 65.435L305.08 71.876C305.08 72.614 304.908 74.975 302.69 74.975C301.426 74.975 300.398 76.003 300.398 77.267V78.519C300.398 81.563 302.874 84.039 305.918 84.039Z" fill="#A25632"/>
<path d="M306.856 98.0001H304.626C303.544 98.0001 302.667 97.5391 302.667 96.9701V92.6501L314.962 92.6111V93.7361C314.962 96.0911 311.332 98.0001 306.856 98.0001Z" fill="white"/>
<path d="M260.185 188C260.185 188 271.529 317.875 271.529 317.923L271.926 325.185C271.969 325.977 271.289 326.62 270.499 326.536C269.947 326.477 269.496 326.073 269.379 325.532L267.978 319.024L267.671 328.458C267.653 328.995 267.305 329.465 266.796 329.639L266.453 329.756C265.652 330.029 264.811 329.465 264.76 328.62L264.18 319.094L263.309 330.173C263.258 330.83 262.716 331.343 262.055 331.361L261.907 331.365C261.19 331.385 260.595 330.813 260.587 330.095L260.465 319.208L259.254 328.186C259.157 328.904 258.488 329.401 257.773 329.288L257.462 329.239C256.811 329.136 256.344 328.554 256.385 327.896L256.918 319.302C256.917 319.236 256.916 319.17 256.915 319.104L256.296 312.444C256.201 311.42 255.004 310.914 254.203 311.56L249.99 314.957C249.482 315.367 248.747 315.332 248.28 314.876L248.111 314.711C247.672 314.281 247.6 313.601 247.94 313.087L252.566 306.096C253.305 304.867 254.008 303.862 254.678 303.012L242.185 205L260.185 188Z" fill="#FFC5A7"/>
<path d="M149.341 188C149.341 188 137.997 317.875 137.997 317.923L137.6 325.185C137.557 325.977 138.237 326.62 139.028 326.536C139.58 326.477 140.031 326.073 140.148 325.532L141.549 319.024L141.856 328.458C141.874 328.995 142.222 329.465 142.73 329.639L143.073 329.756C143.874 330.029 144.715 329.465 144.766 328.62L145.346 319.094L146.217 330.173C146.268 330.83 146.81 331.343 147.471 331.361L147.619 331.365C148.336 331.385 148.931 330.813 148.939 330.095L149.061 319.208L150.272 328.186C150.369 328.904 151.038 329.401 151.753 329.288L152.064 329.239C152.715 329.136 153.182 328.554 153.141 327.896L152.608 319.302C152.609 319.236 152.61 319.17 152.611 319.104L153.23 312.444C153.325 311.42 154.522 310.914 155.323 311.56L159.536 314.957C160.044 315.367 160.779 315.332 161.246 314.876L161.415 314.711C161.854 314.281 161.926 313.601 161.586 313.087L156.96 306.096C156.221 304.867 155.518 303.862 154.848 303.012L167.341 205L149.341 188Z" fill="#FFC5A7"/>
<path d="M148.453 183.915C164.749 165.198 182.691 159.937 190.046 158.509C191.827 158.163 193.65 157.999 195.482 157.999H200.474H215.452C216.162 157.999 216.867 158.044 217.567 158.142C222.823 158.872 243.758 163.069 262.257 184.978C266.364 189.842 264.503 196.495 258.214 199.49L248.538 204.099C244.681 205.936 242.315 209.275 242.315 212.882V254.795C242.315 260.431 236.637 265.001 229.633 265.001H179.639C172.635 265.001 166.957 260.432 166.957 254.795V210.622C166.957 206.649 164.093 203.038 159.615 201.365L153.469 199.069C146.29 196.386 143.911 189.133 148.453 183.915Z" fill="#EE777D"/>
<path d="M241.928 214.814C242.204 214.814 242.428 214.59 242.428 214.314V191.685C242.428 191.409 242.204 191.185 241.928 191.185C241.652 191.185 241.428 191.409 241.428 191.685V214.314C241.428 214.591 241.652 214.814 241.928 214.814Z" fill="#D85966"/>
<path d="M166.842 214.814C167.118 214.814 167.342 214.59 167.342 214.314V191.685C167.342 191.409 167.118 191.185 166.842 191.185C166.566 191.185 166.342 191.409 166.342 191.685V214.314C166.342 214.591 166.566 214.814 166.842 214.814Z" fill="#D85966"/>
<path d="M163.513 354C156.258 315.516 159.344 274.484 166.599 236H242.6C249.273 274.615 254.416 315.385 247.743 354H163.513Z" fill="#D85966"/>
<path d="M161.503 101.584C159.919 100.159 158.989 98.436 158.989 96.578C158.989 93.058 162.318 90.023 167.139 88.594C170.553 87.582 172.662 85.411 172.662 83.075C172.662 73.645 185.056 66 200.345 66H207.924C223.213 66 235.607 73.645 235.607 83.075C235.607 85.378 237.704 87.54 241.12 88.468C246.173 89.841 249.7 92.953 249.7 96.578C249.7 99.237 247.793 101.616 244.787 103.241C248.082 106.443 249.999 110.238 249.999 114.311C250 125.737 234.983 135 216.459 135C211.358 135 206.527 134.294 202.198 133.038C197.87 134.294 193.038 135 187.937 135C169.413 135 154.396 125.737 154.396 114.311C154.395 109.51 157.054 105.095 161.503 101.584Z" fill="#B3633D"/>
<path d="M228.152 116.063H228.12V107.026C228.12 105.633 227.977 104.275 227.718 102.958C201.972 108.023 198.545 93.9449 198.051 89.3799C195.054 96.4249 188.402 101.17 180.919 101.824C180.891 104.271 180.866 106.548 180.866 107.027V116.065C176.711 116.073 173.346 119.443 173.346 123.6C173.346 127.757 176.712 131.126 180.866 131.135V134.685C180.866 143.873 186.778 151.659 195 154.501V173.189C195 178.432 199.25 182.682 204.493 182.682C209.736 182.682 213.986 178.432 213.986 173.189V154.507C222.207 151.663 228.12 143.874 228.12 134.686V131.137H228.152C232.314 131.137 235.688 127.763 235.688 123.601C235.688 119.437 232.314 116.063 228.152 116.063Z" fill="#FFC5A7"/>
<path d="M207.545 155.486C209.132 155.486 210.676 155.304 212.166 154.968L213.642 155.939L195.128 163.597V154.282C197.322 155.058 199.672 155.485 202.12 155.485L207.545 155.486Z" fill="#FF8971"/>
<path opacity="0.32" d="M218.054 129.899H222.829C224.336 129.899 225.558 128.677 225.558 127.17C225.558 125.663 224.336 124.441 222.829 124.441H218.054C216.547 124.441 215.325 125.663 215.325 127.17C215.325 128.678 216.547 129.899 218.054 129.899Z" fill="#FF8971"/>
<path opacity="0.32" d="M189.404 129.899H194.179C195.686 129.899 196.908 128.677 196.908 127.17C196.908 125.663 195.686 124.441 194.179 124.441H189.404C187.897 124.441 186.675 125.663 186.675 127.17C186.675 128.678 187.897 129.899 189.404 129.899Z" fill="#FF8971"/>
<path d="M208.308 144.861C208.393 144.861 208.48 144.84 208.558 144.794C208.797 144.656 208.879 144.35 208.741 144.111C207.983 142.8 206.572 141.986 205.058 141.986C203.545 141.986 202.134 142.8 201.376 144.11C201.237 144.349 201.319 144.655 201.559 144.793C201.796 144.931 202.103 144.85 202.242 144.611C202.822 143.609 203.901 142.986 205.058 142.986C206.215 142.986 207.295 143.609 207.875 144.612C207.968 144.771 208.136 144.861 208.308 144.861Z" fill="#FF8971"/>
<path d="M233.521 124.047C233.786 124.047 234 123.833 234 123.568C234 118.569 229.382 118.511 229.335 118.511C229.071 118.511 228.857 118.725 228.857 118.989C228.857 119.253 229.069 119.468 229.334 119.47C229.486 119.471 233.042 119.538 233.042 123.568C233.041 123.833 233.256 124.047 233.521 124.047Z" fill="#FF8971"/>
<path d="M175.71 124.047C175.975 124.047 176.189 123.833 176.189 123.568C176.189 119.538 179.745 119.471 179.896 119.47C180.16 119.469 180.373 119.253 180.373 118.989C180.372 118.725 180.159 118.511 179.895 118.511C179.848 118.511 175.231 118.569 175.231 123.568C175.231 123.833 175.445 124.047 175.71 124.047Z" fill="#FF8971"/>
<path d="M216.893 120C217.679 120 218.316 119.536 218.316 118.963V116.889C218.316 116.316 217.679 115.852 216.893 115.852C216.107 115.852 215.47 116.316 215.47 116.889V118.963C215.469 119.536 216.107 120 216.893 120Z" fill="#2F150B"/>
<path d="M195.546 120C196.332 120 196.969 119.536 196.969 118.963V116.889C196.969 116.316 196.332 115.852 195.546 115.852C194.76 115.852 194.123 116.316 194.123 116.889V118.963C194.123 119.536 194.76 120 195.546 120Z" fill="#2F150B"/>
<path d="M204.215 136.121C206.346 136.121 208.155 135.766 208.298 135.737C208.488 135.699 208.612 135.513 208.573 135.323C208.535 135.133 208.351 135.009 208.159 135.048C208.095 135.06 201.666 136.322 198.92 134.073C198.101 133.402 197.703 132.506 197.703 131.332C197.703 131.138 197.546 130.981 197.351 130.981C197.157 130.981 197 131.138 197 131.332C197 132.711 197.496 133.816 198.475 134.618C199.93 135.807 202.215 136.121 204.215 136.121Z" fill="#FF8971"/>
<path d="M211.719 109.982C212.263 110.404 213.075 110.533 213.852 110.702C214.639 110.856 215.425 111.03 216.102 111.205C216.781 111.38 217.554 111.608 218.317 111.854C219.08 112.082 219.857 112.363 220.528 112.255C221.174 112.159 221.594 111.514 221.128 110.468C220.698 109.456 219.24 108.1 216.994 107.514C214.748 106.94 212.843 107.429 212.003 108.113C211.117 108.811 211.193 109.584 211.719 109.982Z" fill="#B3633D"/>
<path d="M189.62 113.004C190.291 113.079 191.037 112.771 191.774 112.515C192.511 112.241 193.258 111.985 193.915 111.785C194.573 111.584 195.337 111.379 196.102 111.195C196.857 110.996 197.651 110.834 198.158 110.4C198.65 109.989 198.671 109.235 197.746 108.597C196.868 107.97 194.954 107.58 192.774 108.24C190.6 108.909 189.256 110.292 188.903 111.296C188.517 112.332 188.975 112.94 189.62 113.004Z" fill="#B3633D"/>
<path d="M217.58 120.848C219.114 120.848 220.118 120.196 220.181 120.155C220.41 120.002 220.473 119.692 220.32 119.462C220.166 119.233 219.858 119.171 219.629 119.322C219.555 119.37 217.771 120.504 215.353 119.292C215.105 119.17 214.806 119.269 214.682 119.516C214.559 119.763 214.659 120.063 214.906 120.187C215.895 120.681 216.805 120.848 217.58 120.848Z" fill="#FF8971"/>
<path d="M195.75 120.848C197.283 120.848 198.288 120.196 198.35 120.155C198.58 120.002 198.642 119.691 198.489 119.462C198.336 119.233 198.027 119.171 197.797 119.322C197.723 119.37 195.939 120.5 193.522 119.292C193.274 119.17 192.975 119.269 192.851 119.516C192.728 119.763 192.828 120.063 193.075 120.187C194.065 120.681 194.975 120.848 195.75 120.848Z" fill="#FF8971"/>
<path d="M203.822 129H205.89C208.594 129 210.794 126.8 210.794 124.096V122.809C210.794 121.615 209.823 120.645 208.63 120.645C207.527 120.645 206.631 119.749 206.631 118.646V112.363C206.631 112.113 206.429 111.91 206.178 111.91C205.928 111.91 205.725 112.112 205.725 112.363V118.646C205.725 120.247 207.028 121.55 208.63 121.55C209.324 121.55 209.889 122.115 209.889 122.809V124.096C209.889 126.301 208.095 128.094 205.891 128.094H203.823C203.573 128.094 203.37 128.296 203.37 128.547C203.37 128.798 203.572 129 203.822 129Z" fill="#FF8971"/>
<path d="M200.744 123.75H191.259C189.739 123.75 188.502 122.513 188.502 120.993V117.508C188.502 115.987 189.739 114.751 191.259 114.751H200.744C202.265 114.751 203.501 115.988 203.501 117.508V120.993C203.501 122.513 202.264 123.75 200.744 123.75ZM191.258 115.75C190.289 115.75 189.501 116.538 189.501 117.507V120.992C189.501 121.961 190.289 122.749 191.258 122.749H200.743C201.712 122.749 202.5 121.961 202.5 120.992V117.507C202.5 116.538 201.712 115.75 200.743 115.75H191.258Z" fill="#F8F5F5"/>
<path d="M223.244 123.75H213.759C212.239 123.75 211.002 122.513 211.002 120.993V117.508C211.002 115.987 212.239 114.751 213.759 114.751H223.244C224.765 114.751 226.001 115.988 226.001 117.508V120.993C226.001 122.513 224.764 123.75 223.244 123.75ZM213.758 115.75C212.789 115.75 212.001 116.538 212.001 117.507V120.992C212.001 121.961 212.789 122.749 213.758 122.749H223.243C224.212 122.749 225 121.961 225 120.992V117.507C225 116.538 224.212 115.75 223.243 115.75H213.758Z" fill="#F8F5F5"/>
<path d="M211.5 118C211.413 118 211.324 117.977 211.243 117.929C206.662 115.179 203.965 117.745 203.852 117.855C203.655 118.048 203.339 118.047 203.145 117.851C202.952 117.656 202.951 117.341 203.146 117.146C203.179 117.113 206.483 113.906 211.757 117.071C211.994 117.213 212.071 117.52 211.928 117.757C211.836 117.914 211.67 118 211.5 118Z" fill="#F8F5F5"/>
<path d="M188.501 118C188.449 118 188.396 117.992 188.343 117.974L179.343 114.974C179.081 114.887 178.94 114.604 179.027 114.342C179.114 114.08 179.395 113.938 179.659 114.026L188.659 117.026C188.921 117.113 189.062 117.396 188.975 117.658C188.905 117.868 188.71 118 188.501 118Z" fill="#F8F5F5"/>
<path d="M225.501 117C225.317 117 225.141 116.899 225.053 116.724C224.93 116.477 225.03 116.177 225.277 116.053L229.277 114.053C229.524 113.931 229.824 114.03 229.948 114.277C230.072 114.524 229.971 114.824 229.724 114.948L225.724 116.948C225.653 116.983 225.577 117 225.501 117Z" fill="#F8F5F5"/>
<path d="M232.127 143H232.184C232.736 143 233.184 142.286 233.184 141.406V128.195C233.184 127.314 232.736 126.601 232.184 126.601H232.127C231.575 126.601 231.127 127.315 231.127 128.195V141.406C231.127 142.286 231.575 143 232.127 143Z" fill="#FF9B39"/>
<path d="M177.613 143H177.67C178.222 143 178.67 142.286 178.67 141.406V128.195C178.67 127.314 178.222 126.601 177.67 126.601H177.613C177.061 126.601 176.613 127.315 176.613 128.195V141.406C176.613 142.286 177.061 143 177.613 143Z" fill="#FF9B39"/>
<path d="M195.576 165.297C195.576 159.238 192.76 153.845 188.374 150.329C188.961 148.682 189.297 146.916 189.297 145.067C189.297 136.399 182.27 129.371 173.601 129.371C171.198 129.371 168.93 129.927 166.893 130.893C164.274 125.065 158.43 121 151.627 121C144.824 121 138.98 125.065 136.361 130.893C134.325 129.928 132.057 129.371 129.653 129.371C120.985 129.371 113.957 136.398 113.957 145.067C113.957 146.099 114.064 147.105 114.255 148.081C107.888 151.202 103.494 157.728 103.494 165.297C103.494 175.253 111.079 183.434 120.785 184.385C120.888 194.752 129.314 203.126 139.705 203.126H158.94C169.324 203.126 177.745 194.763 177.859 184.407C187.766 183.654 195.576 175.396 195.576 165.297Z" fill="#2F150B"/>
<path d="M159.726 152.392C157.326 153.722 154.567 154.484 151.629 154.484C148.691 154.484 145.932 153.722 143.531 152.392C140.899 157.368 135.676 160.762 129.655 160.762C128.656 160.762 127.683 160.659 126.736 160.48C125.878 162.587 125.396 164.886 125.396 167.301V178.437H124.362C119.962 178.437 116.396 182.592 116.396 187.718C116.396 192.844 119.963 196.999 124.362 196.999H125.396V200.884C125.396 207.966 134.471 214.077 140.396 217.051V245.152L159.091 245.255V217.795C165.901 215.191 174.745 208.609 174.745 200.884V196.975C178.952 196.724 182.3 192.682 182.3 187.718C182.3 182.754 178.952 178.712 174.745 178.461V167.301C174.745 164.99 174.296 162.789 173.507 160.757C167.526 160.721 162.344 157.341 159.726 152.392Z" fill="#A1525A"/>
<path opacity="0.25" d="M154.674 218.18C156.321 218.18 157.906 217.921 159.396 217.448V225.486L141.396 218.041C142.047 218.124 142.707 218.181 143.38 218.181H154.674V218.18Z" fill="#33322F"/>
<path d="M147.178 210.09C147.293 210.09 147.404 210.031 147.466 209.924C148.041 208.931 149.109 208.314 150.256 208.314C151.402 208.314 152.471 208.931 153.046 209.924C153.139 210.084 153.345 210.137 153.5 210.045C153.659 209.953 153.714 209.749 153.622 209.59C152.929 208.392 151.639 207.648 150.256 207.648C148.873 207.648 147.583 208.392 146.89 209.59C146.798 209.749 146.852 209.953 147.012 210.045C147.064 210.075 147.121 210.09 147.178 210.09Z" fill="#722F39"/>
<path d="M179.618 186.533C179.986 186.533 180.284 186.235 180.284 185.867C180.284 181.763 177.144 180.678 175.483 180.678C175.115 180.678 174.817 180.976 174.817 181.344C174.817 181.711 175.113 182.008 175.48 182.01C175.836 182.013 178.952 182.148 178.952 185.867C178.952 186.235 179.25 186.533 179.618 186.533Z" fill="#722F39"/>
<path d="M119.505 186.533C119.873 186.533 120.171 186.235 120.171 185.867C120.171 182.054 123.498 182.01 123.64 182.01C124.008 182.01 124.306 181.712 124.306 181.344C124.306 180.976 124.008 180.678 123.64 180.678C121.98 180.678 118.84 181.762 118.84 185.867C118.839 186.235 119.137 186.533 119.505 186.533Z" fill="#722F39"/>
<path d="M160.436 187.122C161.18 187.122 161.784 186.518 161.784 185.774V183.078C161.784 182.334 161.18 181.73 160.436 181.73C159.692 181.73 159.088 182.334 159.088 183.078V185.774C159.087 186.518 159.691 187.122 160.436 187.122Z" fill="#2F150B"/>
<path d="M164.727 173C160.646 173 157.052 175.11 154.966 178.293C153.518 177.543 150.02 176.259 145.851 178.335C143.769 175.129 140.164 173 136.065 173C129.631 173 124.396 178.235 124.396 184.669C124.396 191.103 129.631 196.338 136.065 196.338C142.499 196.338 147.733 191.104 147.733 184.669C147.733 183.046 147.398 181.5 146.797 180.094C150.14 178.461 152.909 179.482 154.015 180.05C153.401 181.468 153.058 183.028 153.058 184.668C153.058 191.102 158.293 196.337 164.727 196.337C171.161 196.337 176.396 191.103 176.396 184.668C176.395 178.235 171.161 173 164.727 173ZM136.063 194.337C130.731 194.337 126.395 190 126.395 184.668C126.395 179.337 130.731 174.999 136.063 174.999C141.394 174.999 145.731 179.336 145.731 184.668C145.732 190 141.394 194.337 136.063 194.337ZM164.727 194.337C159.395 194.337 155.058 190 155.058 184.668C155.058 179.337 159.395 174.999 164.727 174.999C170.058 174.999 174.396 179.336 174.396 184.668C174.395 190 170.058 194.337 164.727 194.337Z" fill="white"/>
<path d="M140.219 187.122C140.963 187.122 141.567 186.518 141.567 185.774V183.078C141.567 182.334 140.963 181.73 140.219 181.73C139.475 181.73 138.871 182.334 138.871 183.078V185.774C138.871 186.518 139.474 187.122 140.219 187.122Z" fill="#2F150B"/>
<path d="M160.223 168.569C160.761 168.822 161.496 168.799 162.205 168.814C162.92 168.815 163.638 168.833 164.26 168.868C164.884 168.903 165.597 168.966 166.305 169.044C167.01 169.108 167.734 169.213 168.312 169.023C168.869 168.847 169.15 168.267 168.594 167.504C168.074 166.762 166.6 165.905 164.537 165.784C162.475 165.673 160.863 166.357 160.215 167.033C159.529 167.727 159.703 168.331 160.223 168.569Z" fill="#2F150B"/>
<path d="M131.659 168.472C132.257 168.631 132.967 168.488 133.664 168.386C134.363 168.27 135.069 168.17 135.686 168.102C136.305 168.034 137.02 167.978 137.733 167.939C138.439 167.886 139.176 167.87 139.686 167.59C140.179 167.326 140.288 166.715 139.526 166.061C138.807 165.422 137.122 164.827 135.073 165.047C133.029 165.276 131.65 166.208 131.211 166.974C130.741 167.764 131.084 168.325 131.659 168.472Z" fill="#2F150B"/>
<path d="M144.307 205H146.484C147.54 205 148.396 204.315 148.396 203.471V199.4L136.396 198V198.671C136.395 202.166 139.938 205 144.307 205Z" fill="white"/>
<path d="M146.94 196H149.888C152.768 196 155.11 193.658 155.11 190.778C155.11 189.453 154.032 188.375 152.707 188.375C151.029 188.375 149.664 187.01 149.664 185.332V181.295C149.664 180.994 149.42 180.75 149.119 180.75C148.818 180.75 148.574 180.994 148.574 181.295V185.332C148.574 187.611 150.428 189.465 152.707 189.465C153.431 189.465 154.021 190.054 154.021 190.779C154.021 193.058 152.167 194.912 149.888 194.912H146.94C146.639 194.912 146.395 195.156 146.395 195.457C146.395 195.756 146.639 196 146.94 196Z" fill="#722F39"/>
<path d="M176.896 195C178.276 195 179.396 193.881 179.396 192.5C179.396 191.119 178.276 190 176.896 190C175.515 190 174.396 191.119 174.396 192.5C174.396 193.881 175.515 195 176.896 195Z" fill="#2F150B"/>
<path d="M122.896 195C124.276 195 125.396 193.881 125.396 192.5C125.396 191.119 124.276 190 122.896 190C121.515 190 120.396 191.119 120.396 192.5C120.396 193.881 121.515 195 122.896 195Z" fill="#2F150B"/>
<path d="M192.396 389H104.396V419H192.396V389Z" fill="#0F0F1E"/>
<path d="M75.8041 315.051C74.1431 289.628 85.1371 264.89 105.439 249.496C111.979 244.537 118.036 241.385 122.945 239.388C125.995 238.147 129.165 237.262 132.395 236.703V221H166.395V237.098C168.013 237.471 169.612 237.932 171.179 238.5C179.408 241.484 191.807 247.954 204.35 261.841C215.765 274.48 221.614 291.191 220.653 308.195L214.395 419H192.395V388.243C192.08 388.939 191.382 389.426 190.568 389.426H106.443C106.057 389.426 105.701 389.312 105.395 389.124V419H82.6621L75.8041 315.051Z" fill="#2B6DE5"/>
<path d="M192.396 294H104.396V306H192.396V294Z" fill="#3481E4"/>
<path d="M192.396 325H104.396V337H192.396V325Z" fill="#3481E4"/>
<path d="M192.396 392.777C192.672 392.777 192.896 391.782 192.896 390.554V292.724C192.896 291.495 192.672 290.501 192.396 290.501C192.12 290.501 191.896 291.496 191.896 292.724V390.554C191.896 391.782 192.12 392.777 192.396 392.777Z" fill="#122760"/>
<path d="M104.896 395C105.172 395 105.396 394.005 105.396 392.777V294.947C105.396 293.718 105.172 292.724 104.896 292.724C104.62 292.724 104.396 293.719 104.396 294.947V392.777C104.396 394.005 104.62 395 104.896 395Z" fill="#122760"/>
<path d="M157.896 235C159.271 235 160.396 233.875 160.396 232.5C160.396 231.125 159.271 230 157.896 230C156.521 230 155.396 231.125 155.396 232.5C155.396 233.875 156.521 235 157.896 235Z" fill="#122760"/>
<path d="M139.896 235C141.271 235 142.396 233.875 142.396 232.5C142.396 231.125 141.271 230 139.896 230C138.521 230 137.396 231.125 137.396 232.5C137.396 233.875 138.521 235 139.896 235Z" fill="#122760"/>
<path d="M157.395 259.5C157.267 259.5 157.139 259.451 157.042 259.353C156.847 259.158 156.847 258.841 157.042 258.646C159.027 256.661 158.639 252.604 155.948 247.223C152.872 241.07 156.78 233.112 156.948 232.776C157.072 232.53 157.371 232.43 157.619 232.552C157.866 232.676 157.967 232.976 157.843 233.223C157.804 233.301 153.992 241.074 156.843 246.776C159.741 252.573 160.063 257.04 157.749 259.353C157.651 259.451 157.523 259.5 157.395 259.5Z" fill="#FFE6EA"/>
<path d="M139.675 259.5C139.547 259.5 139.419 259.451 139.321 259.353C137.007 257.04 137.329 252.573 140.227 246.776C143.078 241.074 139.265 233.301 139.227 233.223C139.103 232.976 139.204 232.676 139.451 232.552C139.699 232.43 139.998 232.53 140.121 232.776C140.289 233.112 144.197 241.07 141.121 247.223C138.431 252.604 138.042 256.661 140.027 258.646C140.222 258.841 140.222 259.158 140.027 259.353C139.931 259.451 139.803 259.5 139.675 259.5Z" fill="#FFE6EA"/>
<path d="M424.295 403.923C424.295 403.874 424.295 403.834 424.295 403.785C424.314 403.424 418.897 349.722 415.234 313.466L397.2 328.871L407.445 389.01C406.775 389.86 406.072 390.865 405.333 392.094L400.707 399.085C400.367 399.599 400.439 400.279 400.878 400.709L401.047 400.874C401.514 401.33 402.249 401.365 402.757 400.955L406.97 397.558C407.771 396.912 408.968 397.418 409.063 398.442L409.682 405.102C409.683 405.168 409.684 405.234 409.685 405.3L409.152 413.894C409.111 414.552 409.577 415.134 410.229 415.237L410.54 415.286C411.256 415.4 411.924 414.902 412.021 414.184L413.232 405.206L413.354 416.093C413.362 416.811 413.956 417.382 414.674 417.363L414.822 417.359C415.483 417.341 416.025 416.828 416.076 416.171L416.947 405.092L417.527 414.618C417.579 415.462 418.419 416.026 419.22 415.754L419.562 415.637C420.071 415.464 420.419 414.994 420.437 414.456L420.744 405.022L422.145 411.53C422.262 412.071 422.713 412.475 423.265 412.534C424.056 412.618 424.736 411.974 424.692 411.183L424.295 403.923Z" fill="#E88E60"/>
<path d="M287.656 403.785C287.656 403.834 287.656 403.874 287.656 403.923L287.259 411.185C287.216 411.977 287.896 412.62 288.686 412.536C289.238 412.477 289.689 412.073 289.806 411.532L291.207 405.024L291.514 414.458C291.531 414.995 291.88 415.465 292.388 415.639L292.731 415.756C293.532 416.029 294.373 415.465 294.424 414.62L295.005 405.094L295.875 416.173C295.926 416.83 296.468 417.343 297.129 417.361L297.277 417.365C297.994 417.385 298.589 416.813 298.597 416.095L298.719 405.208L299.93 414.186C300.027 414.904 300.696 415.401 301.411 415.288L301.722 415.239C302.373 415.136 302.839 414.554 302.799 413.896L302.266 405.302C302.267 405.236 302.268 405.17 302.269 405.104L302.888 398.444C302.983 397.42 304.18 396.914 304.981 397.56L309.194 400.957C309.702 401.367 310.437 401.332 310.904 400.876L311.073 400.711C311.512 400.281 311.584 399.601 311.244 399.087L306.618 392.096C305.879 390.867 305.176 389.862 304.506 389.012L314.575 329.902L296.508 314.468C292.864 350.971 287.637 403.431 287.656 403.785Z" fill="#E88E60"/>
<path d="M416.951 312L413.54 282.081C412.047 259.697 393.43 242 370.668 242H368.255H342.315H339.902C317.14 242 298.523 259.697 297.031 282.081L293.62 312L296.508 314.467L314.575 329.901L315.537 330.723L314.529 346.469C321.963 352.617 329.501 356.313 339.902 356.313H342.315H368.255H370.668C381.069 356.313 387.607 352.618 395.041 346.469L395.033 330.723L397.2 328.872L415.234 313.467L416.951 312Z" fill="#EE777D"/>
<path d="M395.451 300H394.451V331H395.451V300Z" fill="#D85966"/>
<path d="M315.951 300H314.951V331H315.951V300Z" fill="#D85966"/>
<path d="M314.83 337.802C314.706 337.535 314.597 337.267 314.469 337H315.372H394.869H395.771C395.642 337.267 395.534 337.535 395.41 337.802C411.885 361.886 415.782 388.802 407.678 408.645C406.324 411.961 406.306 415.668 407.747 418.947L407.771 419H401.869H308.372H302.469C302.477 418.982 302.485 418.964 302.493 418.947C303.932 415.673 303.923 411.972 302.57 408.662C294.456 388.817 298.349 361.892 314.83 337.802Z" fill="#0E3170"/>
<path d="M364.371 140.589C362.113 138.453 359.255 136.955 356.122 136.369C350.586 135.334 341.776 135.974 331.215 144.894C313.012 160.269 301.682 187.45 314.312 216.847C327.266 247 376.995 251.912 394 226C413.202 196.739 397.287 156.608 380.219 143.992C377.522 141.999 374.407 140.618 371.116 139.974C368.759 139.513 365.996 139.36 364.371 140.589Z" fill="#33322F"/>
<path d="M379.151 187.063H379.119V181.233C364.822 179.846 352.989 170.194 348.407 157.14L344.021 172.924C342.287 179.164 337.674 183.992 331.865 186.166V187.064C327.71 187.072 324.345 190.442 324.345 194.599C324.345 198.756 327.711 202.126 331.865 202.134V205.684C331.865 214.872 337.777 222.658 345.999 225.5V244.188C345.999 249.431 350.249 253.681 355.492 253.681C360.735 253.681 364.985 249.431 364.985 244.188V225.506C373.206 222.662 379.119 214.873 379.119 205.685V202.136H379.151C383.313 202.136 386.687 198.762 386.687 194.6C386.687 190.437 383.313 187.063 379.151 187.063Z" fill="#E88E60"/>
<path d="M358.129 226.674C360.521 226.674 362.81 226.255 364.951 225.518V233.887L346.951 226.442L347.633 225.993C349.305 226.422 351.048 226.674 352.854 226.674H358.129Z" fill="#DD7243"/>
<path d="M328.07 203.461C329.535 203.461 330.723 202.273 330.723 200.808C330.723 199.343 329.535 198.155 328.07 198.155C326.605 198.155 325.417 199.343 325.417 200.808C325.417 202.273 326.605 203.461 328.07 203.461Z" fill="#FF9B39"/>
<path d="M381.791 203.461C383.256 203.461 384.444 202.273 384.444 200.808C384.444 199.343 383.256 198.155 381.791 198.155C380.325 198.155 379.138 199.343 379.138 200.808C379.138 202.273 380.325 203.461 381.791 203.461Z" fill="#FF9B39"/>
<path opacity="0.32" d="M342.661 204.124H338.018C336.553 204.124 335.365 202.936 335.365 201.471C335.365 200.006 336.553 198.818 338.018 198.818H342.661C344.126 198.818 345.314 200.006 345.314 201.471C345.314 202.937 344.126 204.124 342.661 204.124Z" fill="#DD7243"/>
<path opacity="0.32" d="M370.516 204.124H365.873C364.408 204.124 363.22 202.936 363.22 201.471C363.22 200.006 364.408 198.818 365.873 198.818H370.516C371.981 198.818 373.169 200.006 373.169 201.471C373.169 202.937 371.981 204.124 370.516 204.124Z" fill="#DD7243"/>
<path d="M353.108 217.712C353.281 217.712 353.448 217.623 353.541 217.463C354.103 216.492 355.148 215.889 356.268 215.889C357.388 215.889 358.432 216.492 358.995 217.462C359.134 217.701 359.438 217.783 359.678 217.644C359.917 217.506 359.999 217.2 359.86 216.961C359.12 215.683 357.744 214.889 356.268 214.889C354.792 214.889 353.416 215.683 352.676 216.962C352.537 217.201 352.619 217.507 352.858 217.645C352.936 217.69 353.023 217.712 353.108 217.712Z" fill="#DD7243"/>
<path d="M326.152 194.676C326.428 194.676 326.652 194.452 326.652 194.176C326.652 190.081 330.244 190.034 330.397 190.034C330.673 190.034 330.897 189.81 330.897 189.534C330.897 189.258 330.673 189.034 330.397 189.034C330.35 189.034 325.652 189.093 325.652 194.176C325.652 194.452 325.876 194.676 326.152 194.676Z" fill="#DD7243"/>
<path d="M384.78 194.676C385.056 194.676 385.28 194.452 385.28 194.176C385.28 189.093 380.583 189.034 380.535 189.034C380.26 189.034 380.036 189.257 380.036 189.532C380.035 189.807 380.258 190.032 380.534 190.034C380.687 190.035 384.28 190.104 384.28 194.176C384.28 194.452 384.504 194.676 384.78 194.676Z" fill="#DD7243"/>
<path d="M359.342 209.782C360.601 209.782 362.055 209.582 362.993 208.815C363.652 208.276 363.986 207.536 363.986 206.616C363.986 206.34 363.762 206.116 363.486 206.116C363.21 206.116 362.986 206.34 362.986 206.616C362.986 207.23 362.781 207.696 362.36 208.041C361.074 209.093 358.088 208.777 357.044 208.568C356.774 208.512 356.509 208.688 356.455 208.96C356.4 209.23 356.576 209.494 356.847 209.549C356.934 209.566 358.033 209.782 359.342 209.782Z" fill="#DD7243"/>
<path d="M343.791 196.003C343.027 196.003 342.407 195.383 342.407 194.619V191.852C342.407 191.088 343.027 190.468 343.791 190.468C344.555 190.468 345.175 191.088 345.175 191.852V194.619C345.175 195.383 344.555 196.003 343.791 196.003Z" fill="#33322F"/>
<path d="M346.398 184.218C345.954 184.562 345.292 184.667 344.658 184.805C344.016 184.93 343.375 185.072 342.823 185.215C342.269 185.358 341.639 185.544 341.016 185.745C340.394 185.931 339.76 186.16 339.213 186.072C338.686 185.994 338.344 185.468 338.724 184.615C339.075 183.789 340.264 182.683 342.095 182.206C343.927 181.738 345.48 182.136 346.166 182.695C346.889 183.263 346.827 183.892 346.398 184.218Z" fill="#33322F"/>
<path d="M364.544 196.003C363.78 196.003 363.16 195.383 363.16 194.619V191.852C363.16 191.088 363.78 190.468 364.544 190.468C365.308 190.468 365.928 191.088 365.928 191.852V194.619C365.927 195.383 365.308 196.003 364.544 196.003Z" fill="#33322F"/>
<path d="M369.568 186.212C369.01 186.274 368.39 186.018 367.778 185.805C367.165 185.577 366.544 185.364 365.998 185.198C365.451 185.031 364.816 184.861 364.18 184.708C363.552 184.542 362.892 184.408 362.471 184.047C362.062 183.705 362.045 183.078 362.814 182.548C363.544 182.027 365.135 181.703 366.947 182.251C368.754 182.807 369.871 183.957 370.165 184.791C370.486 185.653 370.104 186.158 369.568 186.212Z" fill="#33322F"/>
<path d="M356.155 201H354.208C351.662 201 349.591 199.198 349.591 196.983V195.928C349.591 194.95 350.505 194.155 351.629 194.155C352.667 194.155 353.511 193.421 353.511 192.518V187.371C353.511 187.166 353.702 187 353.937 187C354.173 187 354.363 187.166 354.363 187.371V192.518C354.363 193.83 353.136 194.897 351.629 194.897C350.975 194.897 350.444 195.36 350.444 195.929V196.984C350.444 198.79 352.133 200.259 354.208 200.259H356.155C356.391 200.259 356.581 200.425 356.581 200.63C356.581 200.834 356.39 201 356.155 201Z" fill="#DD7243"/>
<path d="M283.564 255.237L218.64 257.175C216.342 257.175 217.671 205.892 217.671 203.594V177.946C217.671 159.75 232.422 145 250.617 145C268.813 145 283.563 159.751 283.563 177.946V205.406C283.564 206.703 284.862 255.237 283.564 255.237Z" fill="#0F0F1E"/>
<path d="M270.012 240.149C268.102 239.321 266.086 238.694 263.989 238.29C262.094 237.852 261.01 237.757 261.01 237.757C261.01 237.757 259.326 237.757 258.444 237.757H255.046H245.983H242.585C241.411 237.757 239.203 237.757 239.203 237.757C239.203 237.757 209.811 240.276 187.977 281.425L190.702 284.853L206.895 305.227L207.981 306.594L213.504 301.643V366.598H286.526V301.48L292.231 306.594L293.317 305.227L309.51 284.853L312.235 281.425C297.945 254.491 280.418 244.109 270.012 240.149Z" fill="#FFE6EA"/>
<path d="M210.167 419C203.137 392.345 206.127 363.926 213.157 337.271H286.803C293.269 364.016 298.252 392.255 291.787 419H210.167Z" fill="#EE777D"/>
<path d="M222.037 343.319C221.983 343.048 221.724 342.87 221.449 342.926C221.179 342.98 221.003 343.243 221.057 343.514C221.069 343.573 221.428 345.446 221.582 348.249C221.746 351.248 221.67 355.314 220.685 359.374C220.421 360.463 220.09 361.55 219.681 362.617C219.139 364.032 218.461 365.408 217.611 366.7C216.531 368.343 215.184 369.85 213.495 371.117C213.274 371.283 213.229 371.596 213.395 371.817C213.493 371.948 213.643 372.017 213.795 372.017C213.899 372.017 214.005 371.985 214.094 371.917C225.839 363.109 222.077 343.516 222.037 343.319Z" fill="#D85966"/>
<path d="M279.333 359.439C278.334 355.357 278.255 351.263 278.42 348.248C278.573 345.446 278.931 343.574 278.943 343.515C278.997 343.245 278.822 342.981 278.55 342.927C278.283 342.872 278.017 343.047 277.962 343.32C277.923 343.516 274.16 363.11 285.904 371.92C285.994 371.987 286.099 372.02 286.204 372.02C286.355 372.02 286.506 371.951 286.604 371.82C286.769 371.599 286.724 371.286 286.503 371.12C284.814 369.854 283.467 368.346 282.388 366.702C281.531 365.398 280.848 364.007 280.304 362.578C279.912 361.543 279.591 360.492 279.333 359.439Z" fill="#D85966"/>
<path d="M286.151 308.368C285.875 308.368 285.651 308.144 285.651 307.868V285.94C285.651 285.664 285.875 285.44 286.151 285.44C286.427 285.44 286.651 285.664 286.651 285.94V307.868C286.651 308.145 286.428 308.368 286.151 308.368Z" fill="#FFD2DB"/>
<path d="M213.393 308.368C213.117 308.368 212.893 308.144 212.893 307.868V285.94C212.893 285.664 213.117 285.44 213.393 285.44C213.669 285.44 213.893 285.664 213.893 285.94V307.868C213.893 308.145 213.669 308.368 213.393 308.368Z" fill="#FFD2DB"/>
<path d="M220.685 359.375C221.67 355.315 221.747 351.249 221.582 348.25L195.116 320.467L206.894 305.228L190.701 284.854L178.522 312.149C174.867 320.34 176.839 329.948 183.423 336.038L217.611 366.701C218.46 365.409 219.139 364.033 219.681 362.618C220.05 361.547 220.383 360.465 220.685 359.375Z" fill="#FFCCCA"/>
<path d="M321.477 312.148L309.298 284.853L293.105 305.227L304.883 320.466L278.419 348.247C278.254 351.262 278.333 355.356 279.332 359.438C279.626 360.493 279.948 361.54 280.304 362.576C280.848 364.005 281.531 365.396 282.388 366.7L316.576 336.037C323.161 329.948 325.132 320.339 321.477 312.148Z" fill="#FFCCCA"/>
<path d="M273.764 191.621H273.756V185.467H262.731C257.766 185.467 253.357 183.016 250.618 179.274C247.88 183.015 243.47 185.467 238.505 185.467H226.657V191.621H226.649C222.501 191.621 219.138 194.984 219.138 199.132C219.138 203.28 222.501 206.643 226.649 206.643H226.657V210.118C226.657 219.264 232.551 227.016 240.744 229.847V248.557C240.744 253.783 244.98 258.019 250.206 258.019C255.432 258.019 259.668 253.783 259.668 248.557V229.84C267.862 227.011 273.755 219.263 273.755 210.118V206.643H273.763C277.911 206.643 281.274 203.28 281.274 199.132C281.274 194.984 277.912 191.621 273.764 191.621Z" fill="#FFCCCA"/>
<path opacity="0.32" d="M263.018 208.626H267.645C269.105 208.626 270.289 207.442 270.289 205.982C270.289 204.522 269.105 203.338 267.645 203.338H263.018C261.558 203.338 260.374 204.522 260.374 205.982C260.374 207.443 261.558 208.626 263.018 208.626Z" fill="#EA8C6C"/>
<path opacity="0.32" d="M235.255 208.626H239.882C241.342 208.626 242.526 207.442 242.526 205.982C242.526 204.522 241.342 203.338 239.882 203.338H235.255C233.795 203.338 232.611 204.522 232.611 205.982C232.611 207.443 233.795 208.626 235.255 208.626Z" fill="#EA8C6C"/>
<path d="M252.605 222.171C252.433 222.171 252.265 222.082 252.172 221.921C251.612 220.954 250.572 220.354 249.456 220.354C248.34 220.354 247.3 220.955 246.74 221.921C246.601 222.159 246.294 222.241 246.057 222.103C245.818 221.965 245.736 221.659 245.875 221.42C246.613 220.146 247.985 219.354 249.457 219.354C250.929 219.354 252.302 220.146 253.038 221.421C253.177 221.66 253.095 221.966 252.855 222.104C252.777 222.149 252.69 222.171 252.605 222.171Z" fill="#EA8C6C"/>
<path d="M279.473 199.211C279.197 199.211 278.973 198.987 278.973 198.711C278.973 194.631 275.395 194.584 275.243 194.584C274.967 194.584 274.743 194.36 274.743 194.084C274.743 193.808 274.967 193.584 275.243 193.584C275.29 193.584 279.973 193.643 279.973 198.711C279.973 198.987 279.749 199.211 279.473 199.211Z" fill="#EA8C6C"/>
<path d="M221.038 199.211C220.762 199.211 220.538 198.987 220.538 198.711C220.538 193.643 225.221 193.584 225.268 193.584C225.543 193.584 225.766 193.807 225.767 194.083C225.768 194.358 225.545 194.583 225.269 194.584C225.117 194.585 221.537 194.654 221.537 198.711C221.538 198.987 221.314 199.211 221.038 199.211Z" fill="#EA8C6C"/>
<path d="M256.854 191.527C257.422 191.815 258.216 191.823 258.981 191.87C259.753 191.903 260.528 191.953 261.198 192.018C261.87 192.082 262.637 192.179 263.396 192.292C264.153 192.39 264.93 192.531 265.564 192.359C266.175 192.2 266.51 191.608 265.951 190.789C265.43 189.993 263.885 189.034 261.663 188.817C259.443 188.61 257.664 189.251 256.928 189.927C256.151 190.619 256.306 191.257 256.854 191.527Z" fill="#0F0F1E"/>
<path d="M236.251 191.188C236.876 191.379 237.636 191.267 238.379 191.196C239.125 191.111 239.877 191.042 240.535 191.002C241.194 190.962 241.954 190.939 242.71 190.933C243.461 190.913 244.242 190.931 244.796 190.669C245.332 190.423 245.478 189.802 244.706 189.097C243.977 188.409 242.224 187.72 240.043 187.848C237.866 187.985 236.358 188.873 235.855 189.635C235.316 190.42 235.649 191.011 236.251 191.188Z" fill="#0F0F1E"/>
<path d="M250.723 207.286H249.274C248.998 207.286 248.774 207.062 248.774 206.786C248.774 206.51 248.998 206.286 249.274 206.286H250.723C252.167 206.286 253.342 205.434 253.342 204.388V203.694C253.342 203.495 253.043 203.272 252.643 203.272C251.42 203.272 250.425 202.455 250.425 201.451V198.065C250.425 197.789 250.649 197.565 250.925 197.565C251.201 197.565 251.425 197.789 251.425 198.065V201.451C251.425 201.896 251.983 202.272 252.643 202.272C253.579 202.272 254.342 202.91 254.342 203.694V204.388C254.342 205.986 252.719 207.286 250.723 207.286Z" fill="#EA8C6C"/>
<path d="M241.897 198.065H238.99C238.457 198.065 238.021 197.629 238.021 197.096C238.021 196.563 238.457 196.127 238.99 196.127H241.897C242.43 196.127 242.866 196.563 242.866 197.096C242.866 197.629 242.43 198.065 241.897 198.065Z" fill="#2F150B"/>
<path d="M262.246 198.065H259.339C258.806 198.065 258.37 197.629 258.37 197.096C258.37 196.563 258.806 196.127 259.339 196.127H262.246C262.779 196.127 263.215 196.563 263.215 197.096C263.215 197.629 262.779 198.065 262.246 198.065Z" fill="#2F150B"/>
<path d="M247.626 215.507H249.735C250.758 215.507 251.587 214.885 251.587 214.118V210.42L239.959 209.693V209.757C239.959 212.933 243.391 215.507 247.626 215.507Z" fill="white"/>
<path d="M247.578 231.012C245.203 231.012 242.93 230.598 240.802 229.87V238.374L258.743 230.953L257.868 230.377C256.253 230.776 254.573 231.011 252.835 231.011L247.578 231.012Z" fill="#EA8C6C"/>
</g>
<defs>
<clipPath id="clip0_214_1343">
<rect width="500" height="500" fill="white"/>
</clipPath>
</defs>
</svg>
