<svg width="160" height="51" viewBox="0 0 160 51" fill="none" xmlns="http://www.w3.org/2000/svg">
<path d="M1.81033 6.36738C0.902613 3.17471 3.30053 0 6.61973 0H155C157.761 0 160 2.23858 160 5V33.5C160 36.2614 157.761 38.5 155 38.5H83.9073C82.6789 38.5 81.4935 38.9522 80.5772 39.7703L69.4228 49.7297C68.5065 50.5478 67.3211 51 66.0927 51H18.2766C16.0418 51 14.0784 49.517 13.4672 47.3674L1.81033 6.36738Z" fill="white"/>
<path d="M49.4131 13.25C50.7602 10.9167 54.1281 10.9167 55.4752 13.25L65.5813 30.7542C66.9285 33.0876 65.2445 36.0042 62.5502 36.0042H42.3381C39.6438 36.0042 37.9598 33.0876 39.307 30.7542L49.4131 13.25Z" stroke="#F1A20B" stroke-width="3"/>
<rect x="26.8573" y="16.8423" width="24.0869" height="24.0869" rx="6.5" stroke="#FC036C" stroke-width="3"/>
<circle cx="28.5585" cy="17.5585" r="11.0585" stroke="#420B58" stroke-width="3"/>
<line x1="46.5343" y1="36.0042" x2="54.9066" y2="36.0042" stroke="#F1A20B" stroke-width="3"/>
<line x1="26.8573" y1="24.6995" x2="26.8573" y2="30.1169" stroke="#FC036C" stroke-width="3"/>
<path d="M78.356 19.366C78.356 21.1113 78.5687 22.3653 78.994 23.128C79.4193 23.876 80.05 24.25 80.886 24.25C81.414 24.25 81.876 24.2133 82.272 24.14C82.668 24.052 83.0273 24.008 83.35 24.008C83.9367 24.008 84.362 24.1327 84.626 24.382C84.89 24.6167 85.022 24.9247 85.022 25.306C85.022 25.8047 84.8387 26.186 84.472 26.45C84.12 26.714 83.6653 26.8973 83.108 27C82.5653 27.1027 82.008 27.154 81.436 27.154C79.852 27.154 78.5907 26.8607 77.652 26.274C76.728 25.6873 76.0607 24.822 75.65 23.678C75.254 22.5193 75.056 21.082 75.056 19.366C75.056 17.65 75.254 16.198 75.65 15.01C76.0607 13.8073 76.728 12.898 77.652 12.282C78.5907 11.666 79.852 11.358 81.436 11.358C82.008 11.358 82.5653 11.4093 83.108 11.512C83.6653 11.6147 84.12 11.798 84.472 12.062C84.8387 12.326 85.022 12.7073 85.022 13.206C85.022 13.5727 84.89 13.8807 84.626 14.13C84.362 14.3793 83.9367 14.504 83.35 14.504C83.0273 14.504 82.668 14.4673 82.272 14.394C81.876 14.306 81.414 14.262 80.886 14.262C79.8593 14.262 79.1773 14.68 78.84 15.516C78.5173 16.3373 78.356 17.6207 78.356 19.366Z" fill="#420B58"/>
<path d="M92.4267 27.176C91.1507 27.176 90.0654 26.9267 89.1707 26.428C88.2761 25.9147 87.5941 25.0787 87.1247 23.92C86.6701 22.7613 86.4427 21.192 86.4427 19.212C86.4427 17.232 86.6701 15.67 87.1247 14.526C87.5941 13.382 88.2761 12.568 89.1707 12.084C90.0654 11.6 91.1507 11.358 92.4267 11.358C93.7174 11.358 94.8027 11.6 95.6827 12.084C96.5774 12.568 97.2521 13.382 97.7067 14.526C98.1761 15.67 98.4107 17.232 98.4107 19.212C98.4107 21.192 98.1761 22.7613 97.7067 23.92C97.2521 25.0787 96.5774 25.9147 95.6827 26.428C94.8027 26.9267 93.7174 27.176 92.4267 27.176ZM92.4267 24.272C93.0134 24.272 93.5121 24.1327 93.9227 23.854C94.3481 23.5753 94.6707 23.0693 94.8907 22.336C95.1254 21.6027 95.2427 20.5613 95.2427 19.212C95.2427 17.848 95.1254 16.814 94.8907 16.11C94.6707 15.3913 94.3481 14.9073 93.9227 14.658C93.5121 14.394 93.0134 14.262 92.4267 14.262C91.8547 14.262 91.3561 14.394 90.9307 14.658C90.5054 14.9073 90.1754 15.3913 89.9407 16.11C89.7207 16.814 89.6107 17.848 89.6107 19.212C89.6107 20.5613 89.7207 21.6027 89.9407 22.336C90.1754 23.0693 90.5054 23.5753 90.9307 23.854C91.3561 24.1327 91.8547 24.272 92.4267 24.272ZM114.714 25.702C114.714 26.6847 114.201 27.176 113.174 27.176C112.676 27.176 112.28 27.0513 111.986 26.802C111.693 26.5527 111.546 26.186 111.546 25.702V16.99C111.546 14.966 111.957 13.5213 112.778 12.656C113.6 11.7907 114.883 11.358 116.628 11.358C118.418 11.358 119.738 11.798 120.588 12.678C121.439 13.558 121.864 14.9953 121.864 16.99V25.702C121.864 26.6847 121.351 27.176 120.324 27.176C119.826 27.176 119.43 27.0513 119.136 26.802C118.843 26.5527 118.696 26.186 118.696 25.702V20.4C118.418 20.6493 118.11 20.862 117.772 21.038C117.45 21.214 117.068 21.302 116.628 21.302C115.983 21.302 115.499 21.4193 115.176 21.654C114.868 21.8887 114.714 22.3067 114.714 22.908V25.702ZM114.582 19.256C114.817 19.0213 115.096 18.838 115.418 18.706C115.756 18.574 116.159 18.508 116.628 18.508C117.186 18.508 117.611 18.464 117.904 18.376C118.212 18.288 118.425 18.1193 118.542 17.87C118.66 17.6207 118.718 17.254 118.718 16.77C118.718 15.6847 118.564 14.944 118.256 14.548C117.948 14.1373 117.398 13.932 116.606 13.932C115.873 13.932 115.367 14.1447 115.088 14.57C114.824 14.9807 114.692 15.7433 114.692 16.858C114.692 17.43 114.685 17.914 114.67 18.31C114.656 18.706 114.626 19.0213 114.582 19.256Z" fill="black"/>
<path d="M102.627 27C101.571 27 101.043 26.428 101.043 25.284V13.074C101.043 11.93 101.571 11.358 102.627 11.358C103.683 11.358 104.211 11.93 104.211 13.074V22.842C104.211 23.0767 104.189 23.3773 104.145 23.744C104.116 24.096 104.079 24.3893 104.035 24.624C104.416 24.1693 104.886 23.942 105.443 23.942H108.677C109.22 23.942 109.638 24.074 109.931 24.338C110.224 24.602 110.371 24.9833 110.371 25.482C110.371 26.494 109.806 27 108.677 27H102.627Z" fill="#FC036C"/>
<path d="M125.792 27C125.513 27 125.279 26.89 125.088 26.67C124.897 26.45 124.802 26.1713 124.802 25.834V15.934C124.802 15.45 124.868 14.944 125 14.416C125.147 13.888 125.411 13.3967 125.792 12.942C126.188 12.4727 126.745 12.0913 127.464 11.798C128.183 11.5047 129.121 11.358 130.28 11.358C131.82 11.358 133.015 11.7393 133.866 12.502C134.717 13.2647 135.142 14.4087 135.142 15.934C135.142 16.55 135.025 17.1147 134.79 17.628C134.57 18.1413 134.233 18.53 133.778 18.794C134.497 19.1167 135.01 19.564 135.318 20.136C135.641 20.708 135.802 21.5 135.802 22.512C135.802 23.9787 135.347 25.0933 134.438 25.856C133.543 26.6187 132.157 27 130.28 27H125.792ZM127.816 18.398C128.007 18.1633 128.315 17.98 128.74 17.848C129.18 17.716 129.693 17.65 130.28 17.65C130.969 17.65 131.439 17.5253 131.688 17.276C131.952 17.012 132.084 16.5647 132.084 15.934C132.084 15.2007 131.93 14.68 131.622 14.372C131.329 14.0493 130.881 13.888 130.28 13.888C129.429 13.888 128.828 14.042 128.476 14.35C128.139 14.658 127.97 15.186 127.97 15.934C127.97 16.3887 127.963 16.7553 127.948 17.034C127.948 17.298 127.933 17.5327 127.904 17.738C127.889 17.9433 127.86 18.1633 127.816 18.398ZM127.97 24.448H130.28C131.16 24.448 131.769 24.294 132.106 23.986C132.458 23.678 132.634 23.1867 132.634 22.512C132.634 21.5587 132.451 20.8767 132.084 20.466C131.732 20.0553 131.131 19.85 130.28 19.85C129.679 19.85 129.209 19.9307 128.872 20.092C128.535 20.2387 128.3 20.5027 128.168 20.884C128.036 21.2653 127.97 21.808 127.97 22.512V24.448Z" fill="#F1A20B"/>
</svg>
