<svg width="42" height="42" viewBox="0 0 42 42" fill="none" xmlns="http://www.w3.org/2000/svg">
<circle cx="21" cy="21" r="21" fill="white"/>
<path d="M7.356 21.366C7.356 23.1113 7.56867 24.3653 7.994 25.128C8.41933 25.876 9.05 26.25 9.886 26.25C10.414 26.25 10.876 26.2133 11.272 26.14C11.668 26.052 12.0273 26.008 12.35 26.008C12.9367 26.008 13.362 26.1327 13.626 26.382C13.89 26.6167 14.022 26.9247 14.022 27.306C14.022 27.8047 13.8387 28.186 13.472 28.45C13.12 28.714 12.6653 28.8973 12.108 29C11.5653 29.1027 11.008 29.154 10.436 29.154C8.852 29.154 7.59067 28.8607 6.652 28.274C5.728 27.6873 5.06067 26.822 4.65 25.678C4.254 24.5193 4.056 23.082 4.056 21.366C4.056 19.65 4.254 18.198 4.65 17.01C5.06067 15.8073 5.728 14.898 6.652 14.282C7.59067 13.666 8.852 13.358 10.436 13.358C11.008 13.358 11.5653 13.4093 12.108 13.512C12.6653 13.6147 13.12 13.798 13.472 14.062C13.8387 14.326 14.022 14.7073 14.022 15.206C14.022 15.5727 13.89 15.8807 13.626 16.13C13.362 16.3793 12.9367 16.504 12.35 16.504C12.0273 16.504 11.668 16.4673 11.272 16.394C10.876 16.306 10.414 16.262 9.886 16.262C8.85933 16.262 8.17733 16.68 7.84 17.516C7.51733 18.3373 7.356 19.6207 7.356 21.366Z" fill="#420B58"/>
<path d="M17.834 29C16.778 29 16.25 28.428 16.25 27.284V15.074C16.25 13.93 16.778 13.358 17.834 13.358C18.89 13.358 19.418 13.93 19.418 15.074V24.842C19.418 25.0767 19.396 25.3773 19.352 25.744C19.3227 26.096 19.286 26.3893 19.242 26.624C19.6233 26.1693 20.0927 25.942 20.65 25.942H23.884C24.4267 25.942 24.8447 26.074 25.138 26.338C25.4313 26.602 25.578 26.9833 25.578 27.482C25.578 28.494 25.0133 29 23.884 29H17.834Z" fill="#FC036C"/>
<path d="M27.7433 29C27.4646 29 27.23 28.89 27.0393 28.67C26.8486 28.45 26.7533 28.1713 26.7533 27.834V17.934C26.7533 17.45 26.8193 16.944 26.9513 16.416C27.098 15.888 27.362 15.3967 27.7433 14.942C28.1393 14.4727 28.6966 14.0913 29.4153 13.798C30.134 13.5047 31.0726 13.358 32.2313 13.358C33.7713 13.358 34.9666 13.7393 35.8173 14.502C36.668 15.2647 37.0933 16.4087 37.0933 17.934C37.0933 18.55 36.976 19.1147 36.7413 19.628C36.5213 20.1413 36.184 20.53 35.7293 20.794C36.448 21.1167 36.9613 21.564 37.2693 22.136C37.592 22.708 37.7533 23.5 37.7533 24.512C37.7533 25.9787 37.2986 27.0933 36.3893 27.856C35.4946 28.6187 34.1086 29 32.2313 29H27.7433ZM29.7673 20.398C29.958 20.1633 30.266 19.98 30.6913 19.848C31.1313 19.716 31.6446 19.65 32.2313 19.65C32.9206 19.65 33.39 19.5253 33.6393 19.276C33.9033 19.012 34.0353 18.5647 34.0353 17.934C34.0353 17.2007 33.8813 16.68 33.5733 16.372C33.28 16.0493 32.8326 15.888 32.2313 15.888C31.3806 15.888 30.7793 16.042 30.4273 16.35C30.09 16.658 29.9213 17.186 29.9213 17.934C29.9213 18.3887 29.914 18.7553 29.8993 19.034C29.8993 19.298 29.8846 19.5327 29.8553 19.738C29.8406 19.9433 29.8113 20.1633 29.7673 20.398ZM29.9213 26.448H32.2313C33.1113 26.448 33.72 26.294 34.0573 25.986C34.4093 25.678 34.5853 25.1867 34.5853 24.512C34.5853 23.5587 34.402 22.8767 34.0353 22.466C33.6833 22.0553 33.082 21.85 32.2313 21.85C31.63 21.85 31.1606 21.9307 30.8233 22.092C30.486 22.2387 30.2513 22.5027 30.1193 22.884C29.9873 23.2653 29.9213 23.808 29.9213 24.512V26.448Z" fill="#F1A20B"/>
</svg>
