<svg width="121" height="44" viewBox="0 0 121 44" fill="none" xmlns="http://www.w3.org/2000/svg">
<path d="M33.4131 8.24999C34.7602 5.91666 38.1281 5.91666 39.4752 8.25L49.5813 25.7542C50.9285 28.0876 49.2445 31.0042 46.5502 31.0042H26.3381C23.6438 31.0042 21.9598 28.0876 23.307 25.7542L33.4131 8.24999Z" stroke="#F1A20B" stroke-width="3"/>
<rect x="10.8572" y="11.8423" width="24.0869" height="24.0869" rx="6.5" stroke="#FC036C" stroke-width="3"/>
<circle cx="12.5585" cy="12.5585" r="11.0585" stroke="#420B58" stroke-width="3"/>
<line x1="30.5342" y1="31.0042" x2="38.9065" y2="31.0042" stroke="#F1A20B" stroke-width="3"/>
<line x1="10.8572" y1="19.6995" x2="10.8572" y2="25.1169" stroke="#FC036C" stroke-width="3"/>
<path d="M62.356 18.366C62.356 20.1113 62.5687 21.3653 62.994 22.128C63.4193 22.876 64.05 23.25 64.886 23.25C65.414 23.25 65.876 23.2133 66.272 23.14C66.668 23.052 67.0273 23.008 67.35 23.008C67.9367 23.008 68.362 23.1327 68.626 23.382C68.89 23.6167 69.022 23.9247 69.022 24.306C69.022 24.8047 68.8387 25.186 68.472 25.45C68.12 25.714 67.6653 25.8973 67.108 26C66.5653 26.1027 66.008 26.154 65.436 26.154C63.852 26.154 62.5907 25.8607 61.652 25.274C60.728 24.6873 60.0607 23.822 59.65 22.678C59.254 21.5193 59.056 20.082 59.056 18.366C59.056 16.65 59.254 15.198 59.65 14.01C60.0607 12.8073 60.728 11.898 61.652 11.282C62.5907 10.666 63.852 10.358 65.436 10.358C66.008 10.358 66.5653 10.4093 67.108 10.512C67.6653 10.6147 68.12 10.798 68.472 11.062C68.8387 11.326 69.022 11.7073 69.022 12.206C69.022 12.5727 68.89 12.8807 68.626 13.13C68.362 13.3793 67.9367 13.504 67.35 13.504C67.0273 13.504 66.668 13.4673 66.272 13.394C65.876 13.306 65.414 13.262 64.886 13.262C63.8593 13.262 63.1773 13.68 62.84 14.516C62.5173 15.3373 62.356 16.6207 62.356 18.366Z" fill="#420B58"/>
<path d="M76.4267 26.176C75.1507 26.176 74.0654 25.9267 73.1707 25.428C72.2761 24.9147 71.5941 24.0787 71.1247 22.92C70.6701 21.7613 70.4427 20.192 70.4427 18.212C70.4427 16.232 70.6701 14.67 71.1247 13.526C71.5941 12.382 72.2761 11.568 73.1707 11.084C74.0654 10.6 75.1507 10.358 76.4267 10.358C77.7174 10.358 78.8027 10.6 79.6827 11.084C80.5774 11.568 81.2521 12.382 81.7067 13.526C82.1761 14.67 82.4107 16.232 82.4107 18.212C82.4107 20.192 82.1761 21.7613 81.7067 22.92C81.2521 24.0787 80.5774 24.9147 79.6827 25.428C78.8027 25.9267 77.7174 26.176 76.4267 26.176ZM76.4267 23.272C77.0134 23.272 77.5121 23.1327 77.9227 22.854C78.3481 22.5753 78.6707 22.0693 78.8907 21.336C79.1254 20.6027 79.2427 19.5613 79.2427 18.212C79.2427 16.848 79.1254 15.814 78.8907 15.11C78.6707 14.3913 78.3481 13.9073 77.9227 13.658C77.5121 13.394 77.0134 13.262 76.4267 13.262C75.8547 13.262 75.3561 13.394 74.9307 13.658C74.5054 13.9073 74.1754 14.3913 73.9407 15.11C73.7207 15.814 73.6107 16.848 73.6107 18.212C73.6107 19.5613 73.7207 20.6027 73.9407 21.336C74.1754 22.0693 74.5054 22.5753 74.9307 22.854C75.3561 23.1327 75.8547 23.272 76.4267 23.272ZM98.7143 24.702C98.7143 25.6847 98.2009 26.176 97.1743 26.176C96.6756 26.176 96.2796 26.0513 95.9863 25.802C95.6929 25.5527 95.5463 25.186 95.5463 24.702V15.99C95.5463 13.966 95.9569 12.5213 96.7783 11.656C97.5996 10.7907 98.8829 10.358 100.628 10.358C102.418 10.358 103.738 10.798 104.588 11.678C105.439 12.558 105.864 13.9953 105.864 15.99V24.702C105.864 25.6847 105.351 26.176 104.324 26.176C103.826 26.176 103.43 26.0513 103.136 25.802C102.843 25.5527 102.696 25.186 102.696 24.702V19.4C102.418 19.6493 102.11 19.862 101.772 20.038C101.45 20.214 101.068 20.302 100.628 20.302C99.9829 20.302 99.4989 20.4193 99.1763 20.654C98.8683 20.8887 98.7143 21.3067 98.7143 21.908V24.702ZM98.5823 18.256C98.8169 18.0213 99.0956 17.838 99.4183 17.706C99.7556 17.574 100.159 17.508 100.628 17.508C101.186 17.508 101.611 17.464 101.904 17.376C102.212 17.288 102.425 17.1193 102.542 16.87C102.66 16.6207 102.718 16.254 102.718 15.77C102.718 14.6847 102.564 13.944 102.256 13.548C101.948 13.1373 101.398 12.932 100.606 12.932C99.8729 12.932 99.3669 13.1447 99.0883 13.57C98.8243 13.9807 98.6923 14.7433 98.6923 15.858C98.6923 16.43 98.6849 16.914 98.6703 17.31C98.6556 17.706 98.6263 18.0213 98.5823 18.256Z" fill="black"/>
<path d="M86.627 26C85.571 26 85.043 25.428 85.043 24.284V12.074C85.043 10.93 85.571 10.358 86.627 10.358C87.683 10.358 88.211 10.93 88.211 12.074V21.842C88.211 22.0767 88.189 22.3773 88.145 22.744C88.1157 23.096 88.079 23.3893 88.035 23.624C88.4163 23.1693 88.8857 22.942 89.443 22.942H92.677C93.2197 22.942 93.6377 23.074 93.931 23.338C94.2243 23.602 94.371 23.9833 94.371 24.482C94.371 25.494 93.8063 26 92.677 26H86.627Z" fill="#FC036C"/>
<path d="M109.792 26C109.513 26 109.279 25.89 109.088 25.67C108.897 25.45 108.802 25.1713 108.802 24.834V14.934C108.802 14.45 108.868 13.944 109 13.416C109.147 12.888 109.411 12.3967 109.792 11.942C110.188 11.4727 110.745 11.0913 111.464 10.798C112.183 10.5047 113.121 10.358 114.28 10.358C115.82 10.358 117.015 10.7393 117.866 11.502C118.717 12.2647 119.142 13.4087 119.142 14.934C119.142 15.55 119.025 16.1147 118.79 16.628C118.57 17.1413 118.233 17.53 117.778 17.794C118.497 18.1167 119.01 18.564 119.318 19.136C119.641 19.708 119.802 20.5 119.802 21.512C119.802 22.9787 119.347 24.0933 118.438 24.856C117.543 25.6187 116.157 26 114.28 26H109.792ZM111.816 17.398C112.007 17.1633 112.315 16.98 112.74 16.848C113.18 16.716 113.693 16.65 114.28 16.65C114.969 16.65 115.439 16.5253 115.688 16.276C115.952 16.012 116.084 15.5647 116.084 14.934C116.084 14.2007 115.93 13.68 115.622 13.372C115.329 13.0493 114.881 12.888 114.28 12.888C113.429 12.888 112.828 13.042 112.476 13.35C112.139 13.658 111.97 14.186 111.97 14.934C111.97 15.3887 111.963 15.7553 111.948 16.034C111.948 16.298 111.933 16.5327 111.904 16.738C111.889 16.9433 111.86 17.1633 111.816 17.398ZM111.97 23.448H114.28C115.16 23.448 115.769 23.294 116.106 22.986C116.458 22.678 116.634 22.1867 116.634 21.512C116.634 20.5587 116.451 19.8767 116.084 19.466C115.732 19.0553 115.131 18.85 114.28 18.85C113.679 18.85 113.209 18.9307 112.872 19.092C112.535 19.2387 112.3 19.5027 112.168 19.884C112.036 20.2653 111.97 20.808 111.97 21.512V23.448Z" fill="#F1A20B"/>
</svg>
