<svg width="442" height="363" viewBox="0 0 442 363" fill="none" xmlns="http://www.w3.org/2000/svg">
<path opacity="0.1" d="M408.36 142.335C431.03 81.4771 358.08 79.1691 316.842 80.3691C302.675 80.7811 297.263 79.1131 272.989 84.5171C220.299 96.2481 206.316 94.2861 157.013 57.0501C122.223 30.7751 39.3061 16.9441 65.7941 105.454C78.3061 147.265 83.8671 200.619 44.0551 213.586C4.24207 226.553 -8.12494 292.416 31.4841 315.076C71.0931 337.736 122.115 308.063 165.713 344.493C209.311 380.923 235.707 302.039 311.423 319.158C387.139 336.277 417.41 304.4 425.734 254.883C431.102 222.95 395.536 176.763 408.36 142.335Z" fill="black"/>
<path d="M208.966 122.727C195.022 67.9022 193.588 30.3062 204.897 13.6992C205.346 13.0402 205.175 12.1422 204.516 11.6932C203.857 11.2442 202.959 11.4152 202.51 12.0742C195.742 22.0142 193.218 38.6822 195.006 61.6192C196.335 78.6592 200.029 99.1832 205.987 122.728L208.966 122.727Z" fill="#00A498"/>
<path d="M195.116 41.0391C195.116 41.0391 183.252 43.2331 180.21 22.2241C180.21 22.2241 199.322 24.0161 195.116 41.0391Z" fill="#0D5366"/>
<path d="M196.123 51.9522C196.123 51.9522 193.272 40.2292 214.08 36.0222C214.08 36.0222 213.355 55.2042 196.123 51.9522Z" fill="#0D5366"/>
<path d="M199.736 21.0111C199.736 21.0111 193.14 10.9091 211.354 0.00610352C211.354 0.00610352 217.066 18.3331 199.736 21.0111Z" fill="#0D5366"/>
<path d="M197.475 73.9682C197.475 73.9682 187.053 80.0462 177.083 61.3042C177.083 61.3042 195.675 56.5252 197.475 73.9682Z" fill="#0D5366"/>
<path d="M200.185 84.93C200.185 84.93 195.35 73.876 215.116 66.134C215.116 66.134 217.719 85.153 200.185 84.93Z" fill="#0D5366"/>
<path d="M202.405 100.307C202.405 100.307 192.1 106.581 181.777 88.0322C181.777 88.0322 200.275 82.9012 202.405 100.307Z" fill="#0D5366"/>
<path d="M427.145 159.856C426.417 159.918 425.877 160.56 425.939 161.288C427.522 179.754 409.254 209.4 373.036 247.276C373.846 247.706 374.658 248.133 375.471 248.559C391.097 232.173 403.476 217.217 412.309 204.026C424.045 186.501 429.519 172.046 428.577 161.061C428.514 160.334 427.874 159.794 427.145 159.856Z" fill="#00A498"/>
<path d="M421.47 187.532C421.47 187.532 429.965 194.617 441.837 179.194C441.837 179.194 425.758 172.038 421.47 187.532Z" fill="#0D5366"/>
<path d="M415.76 195.799C415.76 195.799 423.306 187.712 408.569 174.999C408.569 174.999 400.529 190.655 415.76 195.799Z" fill="#0D5366"/>
<path d="M426.777 169.451C426.777 169.451 436.588 164.342 426.932 147.444C426.932 147.444 414.132 159.523 426.777 169.451Z" fill="#0D5366"/>
<path d="M404.787 212.786C404.787 212.786 410.385 222.326 426.774 211.829C426.774 211.829 414.063 199.656 404.787 212.786Z" fill="#0D5366"/>
<path d="M397.696 220.328C397.696 220.328 406.527 213.668 394.21 198.598C394.21 198.598 383.584 212.627 397.696 220.328Z" fill="#0D5366"/>
<path d="M389.011 231.619C389.011 231.619 394.427 241.264 411.012 231.079C411.012 231.079 398.535 218.667 389.011 231.619Z" fill="#0D5366"/>
<path d="M80.545 265.293C37.739 246.729 12.457 228.652 7.22202 212.77C7.01102 212.132 6.32302 211.785 5.68502 211.995C5.04602 212.206 4.70002 212.894 4.91002 213.532C8.08402 223.162 17.938 233.409 34.198 243.988C45.965 251.644 61.092 259.495 79.251 267.386C79.688 266.691 80.119 265.993 80.545 265.293Z" fill="#00A498"/>
<path d="M20.489 233.349C20.489 233.349 15.866 242.411 0.25 233.66C0.25 233.66 11.261 221.795 20.489 233.349Z" fill="#0D5366"/>
<path d="M28.306 238.277C28.306 238.277 19 234.165 26.869 218.087C26.869 218.087 39.328 228.42 28.306 238.277Z" fill="#0D5366"/>
<path d="M9.46412 219.975C9.46412 219.975 -0.679885 219.201 1.37811 201.419C1.37811 201.419 16.5701 207.008 9.46412 219.975Z" fill="#0D5366"/>
<path d="M43.7261 248.676C43.7261 248.676 42.4411 258.768 24.7861 255.815C24.7861 255.815 31.1351 240.925 43.7261 248.676Z" fill="#0D5366"/>
<path d="M52.4503 252.491C52.4503 252.491 42.5743 250.051 47.5433 232.854C47.5433 232.854 61.6023 240.877 52.4503 252.491Z" fill="#0D5366"/>
<path d="M63.8762 258.901C63.8762 258.901 62.7822 269.015 45.0742 266.397C45.0742 266.397 51.1392 251.39 63.8762 258.901Z" fill="#0D5366"/>
<path d="M279.29 87.652C275.993 135.26 237.816 154.197 230.61 158.373C221.345 163.743 211.047 164.496 204.751 164.329C203.423 164.294 202.274 164.215 201.348 164.132C199.735 163.99 198.801 163.824 198.801 163.824C198.801 163.824 201.871 137.472 206.053 108.864C209.778 83.377 223.298 40.922 263.468 1.83301C263.468 1.83301 282.78 37.188 279.29 87.652Z" fill="#008A8B"/>
<path d="M259.807 36.069C259.774 36.255 257.107 50.364 251.101 70.147C251.087 70.214 251.064 70.278 251.041 70.341C250.262 72.905 249.428 75.565 248.531 78.304C248.198 79.332 247.856 80.365 247.502 81.415C246.413 84.655 245.249 87.99 244.003 91.393C242.766 94.766 241.417 98.29 239.952 101.92C239.934 101.988 239.906 102.052 239.874 102.117C238.297 106.027 236.585 110.054 234.734 114.153C234.251 115.235 233.75 116.325 233.244 117.415C230.8 122.667 228.135 128.007 225.24 133.32L225.236 133.325C225.138 133.511 225.035 133.698 224.927 133.885C224.928 133.89 224.923 133.89 224.919 133.895C222.854 137.667 220.669 141.42 218.37 145.119C217.647 146.278 216.914 147.433 216.167 148.582C212.631 154.025 208.828 159.322 204.751 164.328C203.423 164.293 202.274 164.214 201.348 164.131C209.356 154.547 216.327 143.805 222.317 132.918C222.857 131.939 223.388 130.961 223.91 129.98C229.054 120.334 233.44 110.645 237.111 101.599C237.568 100.465 238.018 99.342 238.456 98.233C239.5 95.579 240.48 92.991 241.398 90.49C244.038 83.292 246.312 76.389 248.248 70.059C248.597 68.917 248.935 67.791 249.262 66.686C254.657 48.476 257.068 35.737 257.098 35.561C257.24 34.812 257.958 34.322 258.707 34.459C259.454 34.598 259.949 35.32 259.807 36.069Z" fill="#00A498"/>
<path d="M249.966 71.1809C249.475 71.2519 248.961 71.0549 248.65 70.6249C248.313 70.1589 240.371 59.1429 238.687 53.2989C238.476 52.5679 238.898 51.8039 239.629 51.5929C240.362 51.3819 241.124 51.8039 241.335 52.5359C242.887 57.9199 250.804 68.8999 250.883 69.0099C251.329 69.6269 251.191 70.4879 250.574 70.9339C250.388 71.0679 250.178 71.1499 249.966 71.1809Z" fill="#00A498"/>
<path d="M246.636 81.615C245.931 81.717 245.256 81.262 245.096 80.557C244.927 79.815 245.392 79.0759 246.134 78.9069C246.267 78.8769 259.519 75.8299 265.548 71.6349C266.172 71.1999 267.031 71.3539 267.467 71.9789C267.901 72.6039 267.747 73.4629 267.123 73.8969C260.653 78.3979 247.31 81.4659 246.745 81.5939C246.709 81.6029 246.672 81.61 246.636 81.615Z" fill="#00A498"/>
<path d="M238.835 102.878C238.286 102.958 237.72 102.699 237.433 102.186C237.029 101.462 227.512 84.3149 225.648 71.4819C225.539 70.7289 226.06 70.0299 226.814 69.9199C227.567 69.8109 228.266 70.3329 228.376 71.0859C230.166 83.4119 239.743 100.669 239.84 100.842C240.211 101.507 239.973 102.346 239.308 102.717C239.157 102.801 238.997 102.854 238.835 102.878Z" fill="#00A498"/>
<path d="M232.499 117.582C231.789 117.685 231.11 117.222 230.956 116.51C230.794 115.766 231.266 115.033 232.01 114.871C232.171 114.836 248.214 111.262 259.258 101.509C259.828 101.005 260.699 101.059 261.203 101.63C261.707 102.2 261.652 103.071 261.082 103.575C249.487 113.814 233.279 117.417 232.594 117.565C232.562 117.572 232.53 117.577 232.499 117.582Z" fill="#00A498"/>
<path d="M224.109 134.321C223.562 134.4 222.998 134.144 222.71 133.633C222.39 133.065 214.854 119.568 212.844 105.253C212.739 104.502 213.261 103.807 214.011 103.698C214.013 103.698 214.015 103.697 214.018 103.697C214.772 103.591 215.468 104.116 215.574 104.87C217.511 118.674 225.035 132.145 225.111 132.28C225.485 132.943 225.25 133.784 224.587 134.157C224.435 134.243 224.272 134.297 224.109 134.321Z" fill="#00A498"/>
<path d="M215.568 148.716C214.854 148.82 214.174 148.351 214.023 147.636C213.866 146.892 214.343 146.161 215.087 146.004C215.243 145.971 230.927 142.565 245.238 131.258C245.834 130.786 246.702 130.888 247.174 131.485C247.646 132.082 247.544 132.949 246.947 133.421C232.106 145.146 216.319 148.562 215.655 148.702C215.625 148.707 215.596 148.712 215.568 148.716Z" fill="#00A498"/>
<path d="M135.177 231.178C132.099 232.694 128.93 233.911 125.709 234.876C124.813 235.142 123.918 235.395 123.017 235.62C96.2045 242.478 67.4105 232.9 67.4105 232.9C67.4105 232.9 14.7435 220.727 20.9315 195.392C27.1195 170.058 48.7835 189.016 58.0665 185.722C67.3505 182.433 45.6865 163.213 29.1815 143.423C12.6765 123.633 21.2295 109.145 31.2855 111.125C41.3455 113.109 42.7375 99.719 32.8335 87.577C22.3365 74.715 7.44447 43.275 25.8695 39.463C46.9225 35.103 53.4595 78.785 70.2215 80.333C86.9835 81.881 74.0575 63.029 86.9515 63.029C99.8455 63.029 110.42 92.171 102.942 115.641C95.4635 139.11 107.839 160.756 113.255 154.315C118.671 147.879 117.536 124.093 128.731 121.828C150.396 117.447 164.581 216.694 135.177 231.178Z" fill="#008A8B"/>
<path d="M125.709 234.876C124.813 235.142 123.918 235.395 123.017 235.62C98.1881 181.933 39.3571 69.6821 38.7231 68.4731C38.3691 67.8021 38.6271 66.9661 39.3021 66.6131C39.9771 66.2591 40.8091 66.5211 41.1621 67.1961C41.7961 68.4091 100.949 181.263 125.709 234.876Z" fill="#00A498"/>
<path d="M71.7499 130.621C71.5229 130.621 71.2939 130.565 71.0819 130.447C70.4169 130.077 70.1769 129.238 70.5469 128.573C70.6489 128.389 80.8009 110.025 83.1449 97.234C83.2819 96.485 84.0019 95.989 84.7489 96.127C85.4979 96.264 85.9929 96.9821 85.8559 97.7311C83.4289 110.97 73.3819 129.145 72.9559 129.912C72.7039 130.366 72.2339 130.621 71.7499 130.621Z" fill="#00A498"/>
<path d="M78.1277 144.798C78.0997 144.798 78.0727 144.797 78.0447 144.795C77.1927 144.745 57.0267 143.485 42.8787 137.333C42.1807 137.03 41.8607 136.218 42.1647 135.52C42.4677 134.822 43.2797 134.502 43.9777 134.806C57.6727 140.76 78.0047 142.032 78.2087 142.044C78.9677 142.089 79.5477 142.742 79.5017 143.501C79.4577 144.234 78.8507 144.798 78.1277 144.798Z" fill="#00A498"/>
<path d="M106.595 199.671C106.249 199.671 105.903 199.541 105.635 199.281C105.089 198.751 105.076 197.878 105.607 197.332C105.772 197.162 122.106 180.222 124.452 167.343C124.588 166.594 125.307 166.098 126.054 166.234C126.803 166.37 127.299 167.088 127.163 167.836C124.667 181.543 108.28 198.536 107.583 199.253C107.314 199.531 106.955 199.671 106.595 199.671Z" fill="#00A498"/>
<path d="M90.5625 213.045C82.6805 213.045 73.9385 212.33 66.5855 209.962C65.8615 209.729 65.4635 208.952 65.6965 208.228C65.9295 207.504 66.7065 207.105 67.4305 207.339C84.9785 212.99 111.856 208.709 112.125 208.666C112.874 208.543 113.584 209.053 113.707 209.805C113.829 210.556 113.32 211.264 112.568 211.387C111.897 211.495 102.163 213.045 90.5625 213.045Z" fill="#00A498"/>
<path d="M307.327 163.698C309.87 165.419 312.531 166.887 315.267 168.137C316.029 168.483 316.792 168.817 317.562 169.127C340.493 178.495 367.195 173.533 367.195 173.533C367.195 173.533 415.38 169.197 413 145.978C410.62 122.759 389.089 136.911 381.262 132.853C373.435 128.799 394.997 114.415 412.056 98.8932C429.115 83.3712 423.308 69.4782 414.15 70.0002C404.988 70.5262 405.395 58.4842 415.664 48.9342C426.547 38.8172 443.604 12.7702 427.736 7.13121C409.606 0.685209 398.455 38.6102 383.404 37.9282C368.353 37.2462 382.125 22.1162 370.693 20.5352C359.261 18.9542 346.313 43.4952 350.067 65.2182C353.82 86.9422 340.195 104.615 336.183 98.2412C332.17 91.8712 336.092 70.9222 326.445 67.5422C307.777 61.0022 283.034 147.252 307.327 163.698Z" fill="#008A8B"/>
<path d="M315.268 168.137C316.03 168.483 316.793 168.817 317.563 169.127C346.157 124.574 412.076 32.2683 412.786 31.2743C413.182 30.7233 413.056 29.9502 412.501 29.5542C411.946 29.1582 411.176 29.2883 410.78 29.8433C410.07 30.8403 343.792 123.641 315.268 168.137Z" fill="#00A498"/>
<path d="M375.887 82.3232C376.088 82.3512 376.298 82.3303 376.5 82.2513C377.135 82.0053 377.451 81.2902 377.204 80.6552C377.136 80.4792 370.387 62.9542 369.877 51.3272C369.847 50.6462 369.27 50.1182 368.59 50.1492C367.91 50.1792 367.382 50.7552 367.412 51.4352C367.941 63.4702 374.62 80.8142 374.904 81.5472C375.073 81.9792 375.458 82.2632 375.887 82.3232Z" fill="#00A498"/>
<path d="M368.495 94.1102C368.52 94.1132 368.544 94.1162 368.569 94.1182C369.33 94.1782 387.363 95.5332 400.661 91.8142C401.317 91.6312 401.7 90.9502 401.516 90.2942C401.333 89.6382 400.652 89.2552 399.996 89.4392C387.124 93.0392 368.943 91.6742 368.76 91.6602C368.081 91.6072 367.488 92.1142 367.435 92.7942C367.384 93.4462 367.853 94.0212 368.495 94.1102Z" fill="#00A498"/>
<path d="M336.529 139.268C336.836 139.31 337.159 139.238 337.428 139.04C337.977 138.637 338.095 137.865 337.692 137.316C337.567 137.146 325.162 120.124 324.661 108.419C324.632 107.739 324.055 107.21 323.376 107.239C322.695 107.268 322.167 107.843 322.196 108.524C322.729 120.982 335.174 138.056 335.703 138.777C335.91 139.057 336.211 139.224 336.529 139.268Z" fill="#00A498"/>
<path d="M349.104 153.091C356.092 154.057 363.93 154.495 370.739 153.297C371.41 153.179 371.858 152.539 371.74 151.869C371.622 151.198 370.982 150.75 370.311 150.868C354.06 153.727 330.757 146.637 330.523 146.565C329.874 146.364 329.182 146.73 328.981 147.38C328.78 148.031 329.145 148.721 329.797 148.922C330.378 149.101 338.818 151.669 349.104 153.091Z" fill="#00A498"/>
<path d="M118.892 281H188.37L194.988 228.591C200.907 214.574 202.154 153.141 202.154 153.141L172.036 143.332L134.606 143.611L105.745 153.141C105.745 153.141 107.007 212.577 112.927 226.595L118.892 281Z" fill="#FB4938"/>
<path d="M172.036 143.332C171.167 148.382 168.334 166.065 154.349 166.065C139.987 166.065 135.573 148.316 134.606 143.61L142.016 140.462L163.657 140.216L172.036 143.332Z" fill="#F8C696"/>
<path d="M172.945 49.6505C176.228 38.5391 169.883 26.8697 158.771 23.5861C147.66 20.3026 135.991 26.6482 132.707 37.7596C129.424 48.8709 135.769 60.5403 146.881 63.8239C157.992 67.1074 169.661 60.7618 172.945 49.6505Z" fill="#272D35"/>
<path d="M148.782 48.3089L132.279 32.0169C131.803 31.5469 131.073 31.4499 130.491 31.7789C129.626 32.2689 129.469 33.4509 130.178 34.1479L146.796 50.4989C146.796 50.4989 148.483 51.4269 148.782 48.3089Z" fill="#FB4938"/>
<path d="M135.376 33.4319C135.376 35.3779 133.799 36.9549 131.853 36.9549C129.907 36.9549 128.33 35.3779 128.33 33.4319C128.33 31.4859 129.907 29.9089 131.853 29.9089C133.799 29.9089 135.376 31.4869 135.376 33.4319Z" fill="#FB4938"/>
<path d="M156.882 48.3089L173.385 32.0169C173.861 31.5469 174.591 31.4499 175.173 31.7789C176.039 32.2689 176.195 33.4509 175.486 34.1479L158.867 50.4999C158.867 50.4999 157.181 51.4269 156.882 48.3089Z" fill="#FB4938"/>
<path d="M177.334 33.4319C177.334 35.3779 175.757 36.9549 173.811 36.9549C171.865 36.9549 170.288 35.3779 170.288 33.4319C170.288 31.4859 171.865 29.9089 173.811 29.9089C175.757 29.9089 177.334 31.4869 177.334 33.4319Z" fill="#FB4938"/>
<path d="M126.044 89.0959C126.044 89.0959 119.986 83.1689 115.148 87.0369C109.433 91.6059 115.411 108.051 125.55 106.309L126.044 89.0959Z" fill="#FFB285"/>
<path d="M126.043 121.538C120.828 121.538 116.586 117.295 116.586 112.081C116.586 106.866 120.828 102.623 126.043 102.623C131.257 102.623 135.501 106.866 135.501 112.081C135.501 117.295 131.258 121.538 126.043 121.538ZM126.043 104.753C122.003 104.753 118.716 108.04 118.716 112.081C118.716 116.121 122.002 119.408 126.043 119.408C130.083 119.408 133.371 116.121 133.371 112.081C133.371 108.04 130.084 104.753 126.043 104.753Z" fill="#FBF9F9"/>
<path d="M124.421 100.858C123.607 98.386 121.286 93.292 115.541 91.022C115.541 91.022 121.679 96.809 122.145 101.286C122.206 101.874 122.687 102.327 123.278 102.308L123.413 102.304C124.149 102.279 124.652 101.557 124.421 100.858Z" fill="#F9A278"/>
<path d="M177.184 89.0959C177.184 89.0959 183.242 83.1689 188.08 87.0369C193.795 91.6059 187.817 108.051 177.679 106.309L177.184 89.0959Z" fill="#FFB285"/>
<path d="M178.75 121.538C173.535 121.538 169.294 117.295 169.294 112.081C169.294 106.866 173.536 102.623 178.75 102.623C183.964 102.623 188.208 106.866 188.208 112.081C188.207 117.295 183.964 121.538 178.75 121.538ZM178.75 104.753C174.71 104.753 171.423 108.04 171.423 112.081C171.423 116.121 174.709 119.408 178.75 119.408C182.79 119.408 186.078 116.121 186.078 112.081C186.077 108.04 182.79 104.753 178.75 104.753Z" fill="#FBF9F9"/>
<path d="M178.807 100.858C179.621 98.386 181.942 93.292 187.687 91.022C187.687 91.022 181.55 96.809 181.083 101.286C181.022 101.874 180.541 102.327 179.95 102.308L179.815 102.304C179.079 102.279 178.576 101.557 178.807 100.858Z" fill="#F9A278"/>
<path d="M164.885 124.248L164.463 132.195L163.934 142.154C163.934 142.154 161.956 145.902 153.032 145.902C144.104 145.902 142.278 143.34 142.278 143.34L141.918 138.922L140.719 124.248H164.885Z" fill="#F8C696"/>
<path d="M164.885 124.248L164.463 132.195C160.74 134.982 151.929 140.462 141.918 138.922L140.719 124.248H164.885Z" fill="#F9A278"/>
<path d="M184.141 82.8351C184.059 83.7861 183.961 84.7701 183.862 85.7531C181.763 106.198 172.542 132.036 152.908 132.036C135.333 132.036 122.217 107.657 119.38 87.721C119.183 86.262 119.003 84.852 118.855 83.458C116.839 64.506 131.545 47.8151 150.596 47.6021H152.301C166.466 47.7821 178.254 57.013 182.533 69.555C183.058 71.063 183.451 72.6041 183.746 74.1951C184.256 76.9661 184.403 79.8681 184.141 82.8351Z" fill="#F8C696"/>
<path d="M151.663 103.307C151.325 103.273 151.005 103.088 150.813 102.777C150.485 102.246 150.65 101.551 151.181 101.223L154.402 99.2341L151.873 98.3041C151.452 98.1491 151.163 97.7601 151.136 97.3121L150.7 90.0481C150.663 89.4251 151.138 88.8911 151.759 88.8541C152.38 88.8121 152.917 89.2901 152.954 89.9131L153.345 96.4401L157.359 97.9161C157.764 98.0661 158.049 98.4331 158.092 98.8631C158.135 99.2921 157.929 99.7091 157.562 99.9361L152.366 103.143C152.147 103.279 151.9 103.331 151.663 103.307Z" fill="#F9A278"/>
<path d="M143.926 76.366C143.926 77.153 143.315 77.804 142.529 77.851C139.717 78.018 133.299 78.725 129.282 81.715C129.282 81.715 130.746 75.262 142.379 74.878C143.223 74.85 143.926 75.522 143.926 76.366Z" fill="#272D35"/>
<path d="M161.478 76.366C161.478 77.153 162.089 77.804 162.874 77.851C165.686 78.018 172.104 78.725 176.12 81.715C176.12 81.715 174.657 75.262 163.023 74.878C162.18 74.85 161.478 75.522 161.478 76.366Z" fill="#272D35"/>
<path d="M160.56 91.4071C160.56 91.4071 160.554 87.3861 165.463 85.3471C168.906 83.9171 171.738 84.8061 171.738 84.8061L174.292 83.0911L172.767 86.5571C172.767 86.5571 164.359 85.0851 160.56 91.4071Z" fill="#272D35"/>
<path d="M144.181 91.4071C144.181 91.4071 144.187 87.3861 139.278 85.3471C135.835 83.9171 133.003 84.8061 133.003 84.8061L130.449 83.0911L131.974 86.5571C131.974 86.5571 140.382 85.0851 144.181 91.4071Z" fill="#272D35"/>
<path d="M139.483 100.153C139.483 102.671 136.227 104.713 132.212 104.713C128.196 104.713 124.94 102.671 124.94 100.153C124.94 97.635 128.196 95.593 132.212 95.593C136.227 95.593 139.483 97.635 139.483 100.153Z" fill="#FFB285"/>
<path d="M179.814 100.153C179.814 102.671 176.558 104.713 172.543 104.713C168.527 104.713 165.271 102.671 165.271 100.153C165.271 97.635 168.527 95.593 172.543 95.593C176.559 95.593 179.814 97.635 179.814 100.153Z" fill="#FFB285"/>
<path d="M152.73 123.146C149.93 122.832 147.926 121.706 147.779 121.621C147.377 121.39 147.238 120.876 147.47 120.473C147.701 120.071 148.215 119.932 148.617 120.163C148.855 120.298 154.29 123.317 159.511 119.98C159.902 119.73 160.422 119.845 160.672 120.235C160.922 120.626 160.808 121.146 160.417 121.396C157.709 123.128 154.965 123.397 152.73 123.146Z" fill="#F9A278"/>
<path d="M165.576 107.148C165.585 107.867 165.531 108.571 165.415 109.257C165.04 111.507 164.023 113.547 162.557 115.174C160.437 117.531 157.375 119.032 153.955 119.077C150.535 119.122 147.434 117.703 145.253 115.402C143.744 113.814 142.674 111.801 142.24 109.562C142.107 108.879 142.034 108.178 142.024 107.458C142.023 107.425 142.026 107.394 142.025 107.362L165.572 107.052C165.573 107.085 165.575 107.115 165.576 107.148Z" fill="#481C3F"/>
<path d="M165.576 107.148C165.585 107.867 165.531 108.571 165.415 109.257L142.239 109.562C142.106 108.879 142.033 108.178 142.023 107.458C142.022 107.425 142.025 107.394 142.024 107.362L165.571 107.052C165.573 107.085 165.575 107.115 165.576 107.148Z" fill="white"/>
<path d="M162.557 115.174C160.437 117.531 157.375 119.032 153.955 119.077C150.535 119.122 147.434 117.703 145.253 115.402C147.302 113.344 150.39 112.013 153.861 111.967C157.333 111.921 160.455 113.17 162.557 115.174Z" fill="#F65C66"/>
<path d="M123.85 113.915C123.675 113.835 117.19 110.785 119.34 101.833C119.995 99.105 120.358 96.595 120.513 94.323C120.206 93.896 113.236 83.996 119.486 71.946H123.751C123.751 71.946 123.956 73.738 124.031 76.373C124.031 76.373 124.031 76.383 124.033 76.403C124.091 77.193 125.243 93.0761 123.076 98.4211C120.507 104.753 119.34 108.997 123.85 113.915Z" fill="#272D35"/>
<path d="M180.533 113.915C180.708 113.835 187.193 110.785 185.043 101.833C184.388 99.105 184.025 96.595 183.87 94.323C184.177 93.896 191.147 83.996 184.897 71.946H180.632C180.632 71.946 180.427 73.738 180.352 76.373C180.352 76.373 180.352 76.383 180.349 76.403C180.292 77.193 179.139 93.0761 181.307 98.4211C183.876 104.753 185.043 108.997 180.533 113.915Z" fill="#272D35"/>
<path d="M185.717 76.555C185.717 76.555 162.05 75.658 151.7 63.303C141.33 75.805 117.502 77.19 117.502 77.19C117.502 77.19 117.965 54.922 132.352 48.272C132.352 48.272 132.355 48.272 132.357 48.269C132.602 48.109 141.291 43.385 152.832 43.709C162.062 43.968 170.72 48.025 170.72 48.025C170.72 48.025 172.318 48.746 172.669 48.964C186.145 56.053 185.717 76.555 185.717 76.555Z" fill="#272D35"/>
<path d="M247.188 281H342.41L340.826 252.184L341.275 150.661L307.745 141.659C303.469 140.509 299.084 139.952 294.7 139.934C290.316 139.952 285.931 140.509 281.655 141.659L248.125 150.661L248.574 252.184L247.188 281Z" fill="#FBA01D"/>
<path d="M256.03 66.1731C256.03 66.1731 252.499 68.1251 252.749 73.7501C252.999 79.3751 256.499 81.0231 256.499 81.0231C256.499 81.0231 252.224 83.2471 252.736 87.2481C253.249 91.2491 257.499 91.6291 257.499 91.6291C257.499 91.6291 254.194 93.2951 255.096 97.2721C255.999 101.249 259.81 102.623 259.81 102.623C259.81 102.623 255.749 104.499 256.749 109.562C257.749 114.625 263.381 114.42 263.381 114.42C263.381 114.42 261.374 117.732 262.874 120.866C264.374 124 268.499 122.686 268.499 122.686C268.499 122.686 268.499 125.875 270.999 127.875C273.499 129.875 277.499 129.78 278.999 127.14L266.429 67.1251L256.03 66.1731Z" fill="#6E304F"/>
<path d="M331.229 66.1731C331.229 66.1731 334.76 68.1251 334.51 73.7501C334.26 79.3751 330.76 81.0231 330.76 81.0231C330.76 81.0231 335.035 83.2471 334.523 87.2481C334.01 91.2491 329.76 91.6291 329.76 91.6291C329.76 91.6291 333.065 93.2951 332.163 97.2721C331.26 101.249 327.449 102.623 327.449 102.623C327.449 102.623 331.51 104.499 330.51 109.562C329.51 114.625 323.878 114.42 323.878 114.42C323.878 114.42 325.885 117.732 324.385 120.866C322.885 124 318.76 122.686 318.76 122.686C318.76 122.686 318.76 125.875 316.26 127.875C313.76 129.875 309.76 129.78 308.26 127.14L320.83 67.1251L331.229 66.1731Z" fill="#6E304F"/>
<path d="M259.805 67.731C259.805 67.731 249.597 65.098 251.377 57.751C253.156 50.404 259.726 51.65 259.726 51.65C259.726 51.65 255.488 44.407 260.659 40.146C265.83 35.885 270.566 38.029 270.566 38.029C270.566 38.029 269.191 30.463 274.798 27.432C280.405 24.401 285.765 29.017 286.175 32.251C286.175 32.251 286.858 26.466 293.469 25.698C300.08 24.93 302.255 30.955 302.255 30.955C302.255 30.955 303.499 24.724 311.405 26.001C319.311 27.278 318.052 34.387 318.052 34.387C318.052 34.387 320.738 31.501 325.4 33.334C331.521 35.741 330.555 41.978 327.568 43.695C327.568 43.695 333.478 46.485 332.463 52.953C331.448 59.422 327.223 58.296 327.223 58.296C327.223 58.296 332.521 60.871 330.67 67.303C328.819 73.736 321.098 72.834 321.098 72.834L259.805 67.731Z" fill="#6E304F"/>
<path d="M308.241 127.14L307.793 135.571L307.232 146.136C307.232 146.136 305.134 150.113 295.667 150.113C286.195 150.113 284.258 147.395 284.258 147.395L283.876 142.708L282.604 127.14H308.241Z" fill="#FDAD80"/>
<path d="M308.241 127.14L307.793 135.571C303.843 138.527 294.496 144.341 283.876 142.707L282.604 127.139L308.241 127.14Z" fill="#F68768"/>
<path d="M266.429 88.8C266.429 88.8 259.176 81.704 253.383 86.335C246.54 91.805 253.698 111.494 265.836 109.409L266.429 88.8Z" fill="#FF976D"/>
<path d="M263.322 101.623C262.477 99.058 260.069 93.773 254.108 91.417C254.108 91.417 260.476 97.421 260.96 102.067C261.024 102.677 261.522 103.147 262.135 103.127L262.275 103.122C263.039 103.098 263.561 102.348 263.322 101.623Z" fill="#F68768"/>
<path d="M325.423 101.466C326.238 98.9941 328.558 93.9001 334.303 91.6301C334.303 91.6301 328.165 97.4171 327.699 101.894C327.638 102.482 327.157 102.935 326.566 102.916L326.431 102.912C325.695 102.887 325.192 102.164 325.423 101.466Z" fill="#F68768"/>
<path d="M321.857 88.8C321.857 88.8 329.11 81.704 334.903 86.335C341.746 91.805 334.588 111.494 322.45 109.409L321.857 88.8Z" fill="#FF976D"/>
<path d="M325.424 101.466C326.239 98.9939 328.559 93.8999 334.304 91.6299C334.304 91.6299 328.166 97.4169 327.7 101.894C327.639 102.482 327.158 102.935 326.567 102.916L326.432 102.912C325.696 102.887 325.193 102.164 325.424 101.466Z" fill="#F68768"/>
<path d="M294.507 135.417C269.446 135.417 261.709 105.651 259.402 83.858C257.275 63.765 272.877 46.057 293.081 45.826C293.349 45.823 293.62 45.821 293.892 45.821C294.23 45.821 294.564 45.823 294.895 45.828C314.852 46.094 330.397 63.321 328.673 83.205C326.758 105.283 319.556 135.417 294.507 135.417Z" fill="#FDAD80"/>
<path d="M280.771 91.674C282.519 91.674 283.935 90.2574 283.935 88.5099C283.935 86.7625 282.519 85.3459 280.771 85.3459C279.024 85.3459 277.607 86.7625 277.607 88.5099C277.607 90.2574 279.024 91.674 280.771 91.674Z" fill="#481C3F"/>
<path d="M308.635 91.674C310.382 91.674 311.799 90.2574 311.799 88.5099C311.799 86.7625 310.382 85.3459 308.635 85.3459C306.887 85.3459 305.471 86.7625 305.471 88.5099C305.471 90.2574 306.887 91.674 308.635 91.674Z" fill="#481C3F"/>
<path d="M269.776 79.3131C269.776 79.3131 272.172 74.3851 276.776 73.1511C281.039 72.0081 284.084 73.107 285.61 73.939C286.276 74.302 286.564 75.105 286.299 75.816C285.986 76.657 285.026 77.0521 284.212 76.6731C281.631 75.4721 275.952 73.9281 269.776 79.3131Z" fill="#481C3F"/>
<path d="M319.717 79.3131C319.717 79.3131 317.321 74.3851 312.717 73.1511C308.454 72.0081 305.408 73.107 303.882 73.939C303.216 74.302 302.929 75.105 303.194 75.816C303.507 76.657 304.467 77.0521 305.281 76.6731C307.862 75.4721 313.541 73.9281 319.717 79.3131Z" fill="#481C3F"/>
<path d="M293.439 103.545C293.043 103.506 292.669 103.289 292.444 102.924C292.06 102.303 292.253 101.489 292.874 101.106L296.644 98.7781L293.684 97.6891C293.192 97.5071 292.853 97.0521 292.821 96.5281L292.311 88.0261C292.267 87.2971 292.823 86.6721 293.551 86.6281C294.278 86.5781 294.906 87.1391 294.95 87.8681L295.408 95.5071L300.106 97.2351C300.58 97.4101 300.913 97.8401 300.964 98.3441C301.015 98.8471 300.773 99.3341 300.343 99.6001L294.262 103.354C294.007 103.512 293.717 103.573 293.439 103.545Z" fill="#F68768"/>
<path d="M300.149 116.96C295.267 117.939 288.847 117.876 282.588 113.77C281.982 113.373 281.812 112.559 282.21 111.952C282.608 111.346 283.421 111.176 284.028 111.574C295.009 118.775 306.983 111.732 307.102 111.66C307.722 111.284 308.53 111.486 308.904 112.108C309.278 112.73 309.077 113.536 308.456 113.91C308.186 114.072 304.895 116.008 300.149 116.96Z" fill="#F68768"/>
<path d="M295.671 122.682C293.472 122.734 290.949 122.282 288.393 120.76C287.956 120.499 287.812 119.934 288.072 119.496C288.333 119.059 288.899 118.915 289.336 119.176C295.481 122.835 301.457 119.35 301.708 119.199C302.144 118.939 302.71 119.079 302.972 119.516C303.234 119.952 303.093 120.517 302.658 120.779C302.474 120.89 299.589 122.588 295.671 122.682Z" fill="#F68768"/>
<path d="M260.508 92.109C260.508 92.109 264.22 89.222 263.38 85.75C263.38 85.75 267.776 81 265.846 76.5C265.846 76.5 272.59 71.417 269.211 65.25C269.211 65.25 277.168 64.5 280.771 59C280.771 59 283.848 64.625 290.611 63.25C297.374 61.875 297.624 59 297.624 59C297.624 59 300.749 64.375 306.499 63.5C312.249 62.625 313.624 60.267 313.624 60.267C313.624 60.267 313.999 64.721 318.249 66.173C318.249 66.173 318.073 73.333 323.124 73.5C323.124 73.5 320.999 78.047 324.374 81.023C324.374 81.023 322.742 86.519 328.121 88.509C328.121 88.509 330.874 86.109 329.249 75.554C327.624 64.999 319.991 48.666 299.995 44.499C279.999 40.332 265.499 54.832 261.832 62.166C258.166 69.5 257.018 82.385 260.508 92.109Z" fill="#6E304F"/>
<path opacity="0.2" d="M289.571 89.964C289.571 95.845 284.805 100.613 278.922 100.613C277.784 100.613 276.685 100.435 275.659 100.102C275.085 99.919 274.531 99.687 274.005 99.413C272.851 98.812 271.824 98.006 270.965 97.043C270.093 96.062 269.399 94.921 268.933 93.668C268.505 92.514 268.271 91.266 268.271 89.963C268.271 84.08 273.04 79.311 278.923 79.311C280.226 79.311 281.474 79.545 282.628 79.973C283.881 80.439 285.024 81.133 286.003 82.005C286.966 82.861 287.772 83.891 288.373 85.045C288.647 85.572 288.878 86.125 289.062 86.699C289.392 87.727 289.571 88.826 289.571 89.964Z" fill="white"/>
<path opacity="0.2" d="M286.002 82.0069L270.965 97.0439C270.093 96.0629 269.399 94.9219 268.933 93.6689L282.627 79.9739C283.88 80.4399 285.024 81.1339 286.002 82.0069Z" fill="white"/>
<path opacity="0.2" d="M289.061 86.7009L275.659 100.103C275.085 99.9199 274.531 99.6879 274.005 99.4139L288.372 85.0469C288.646 85.5729 288.878 86.1259 289.061 86.7009Z" fill="white"/>
<path d="M278.921 101.653C272.476 101.653 267.232 96.4089 267.232 89.9629C267.232 83.5169 272.476 78.2739 278.921 78.2739C285.367 78.2739 290.611 83.5179 290.611 89.9629C290.611 96.4089 285.367 101.653 278.921 101.653ZM278.921 79.8699C273.356 79.8699 268.827 84.3979 268.827 89.9639C268.827 95.5299 273.355 100.058 278.921 100.058C284.487 100.058 289.015 95.5299 289.015 89.9639C289.015 84.3979 284.487 79.8699 278.921 79.8699Z" fill="#272D35"/>
<path opacity="0.2" d="M320.739 89.964C320.739 95.845 315.973 100.613 310.09 100.613C308.952 100.613 307.853 100.435 306.826 100.102C306.252 99.919 305.698 99.687 305.172 99.413C304.018 98.812 302.991 98.006 302.132 97.043C301.26 96.062 300.566 94.921 300.1 93.668C299.672 92.514 299.438 91.266 299.438 89.963C299.438 84.08 304.207 79.311 310.09 79.311C311.393 79.311 312.64 79.545 313.795 79.973C315.048 80.439 316.191 81.133 317.17 82.005C318.133 82.861 318.939 83.891 319.54 85.045C319.814 85.572 320.045 86.125 320.229 86.699C320.561 87.727 320.739 88.826 320.739 89.964Z" fill="white"/>
<path opacity="0.2" d="M317.17 82.0069L302.133 97.0439C301.261 96.0629 300.567 94.9219 300.101 93.6689L313.795 79.9739C315.048 80.4399 316.191 81.1339 317.17 82.0069Z" fill="white"/>
<path opacity="0.2" d="M320.229 86.7009L306.827 100.103C306.253 99.9199 305.699 99.6879 305.173 99.4139L319.54 85.0469C319.814 85.5729 320.045 86.1259 320.229 86.7009Z" fill="white"/>
<path d="M310.089 101.653C303.643 101.653 298.4 96.4089 298.4 89.9629C298.4 83.5169 303.644 78.2739 310.089 78.2739C316.535 78.2739 321.779 83.5179 321.779 89.9629C321.778 96.4089 316.535 101.653 310.089 101.653ZM310.089 79.8699C304.523 79.8699 299.995 84.3979 299.995 89.9639C299.995 95.5299 304.523 100.058 310.089 100.058C315.655 100.058 320.183 95.5299 320.183 89.9639C320.183 84.3979 315.655 79.8699 310.089 79.8699Z" fill="#272D35"/>
<path d="M269.053 85.6578C266.959 84.4148 262.958 82.2818 260.466 82.4838C257.558 82.7198 258.583 84.9698 258.583 84.9698C258.583 84.9698 258.687 84.9278 258.867 84.8708C260.167 84.4618 261.574 84.5598 262.819 85.1138L268.237 87.5228C268.492 86.8948 268.772 86.2768 269.053 85.6578Z" fill="#272D35"/>
<path d="M327.652 82.4839C325.384 82.2999 321.872 84.0479 319.68 85.3009C319.747 85.4459 319.813 85.5909 319.877 85.7369C320.098 86.2389 320.306 86.7419 320.501 87.2489L325.299 85.1149C326.544 84.5609 327.951 84.4629 329.251 84.8719C329.431 84.9289 329.535 84.9709 329.535 84.9709C329.535 84.9709 330.56 82.7199 327.652 82.4839Z" fill="#272D35"/>
<path d="M289.969 89.3689C289.969 89.3689 294.136 84.8029 299.439 89.3689V91.6669C299.439 91.6669 294.816 86.8209 289.969 91.6669V89.3689Z" fill="#272D35"/>
<path d="M147.888 362.668H52.1377L52.8947 346.875L52.8577 338.277L52.8177 329.047L52.4377 243.29L83.3577 234.987L86.6477 234.105C91.0107 232.932 95.4857 232.362 99.9607 232.342C104.434 232.362 108.908 232.932 113.271 234.105L119.203 235.697L147.481 243.289L147.106 327.399L147.063 337.269L147.021 346.874L147.888 362.668Z" fill="#0D5366"/>
<path d="M119.202 235.698L110.9 362.668H86.4054L83.3574 234.988L86.6474 234.106C91.0104 232.933 95.4854 232.363 99.9604 232.343C104.433 232.363 108.907 232.933 113.27 234.106L119.202 235.698Z" fill="white"/>
<path opacity="0.2" d="M110.409 328.131C110.409 328.131 71.6654 342.11 52.8574 338.277L52.8174 329.048L106.083 326.75C106.083 326.75 108.911 325.892 110.409 328.131Z" fill="black"/>
<path opacity="0.2" d="M147.106 327.4L147.063 337.269C128 338.174 102.064 328.131 102.064 328.131L147.106 327.4Z" fill="black"/>
<path d="M161.911 322.826C157.042 336.765 135.241 335.748 110.409 328.131C106.061 326.8 101.62 325.264 97.161 323.571C88.289 320.202 79.346 316.209 70.917 311.947L70.974 311.802L73.515 305.206L74.382 302.961C74.382 302.961 121.979 308.147 144.713 302.887C130.6 258.223 142.939 249.175 147.48 243.289C147.48 243.289 171.102 296.515 161.911 322.826Z" fill="#0D5366"/>
<path opacity="0.2" d="M123.415 305.606C123.415 305.606 110.767 314.102 91.1376 315.509C80.2706 316.288 74.2156 313.999 70.9746 311.802L73.5156 305.206C83.6296 305.787 114.965 307.394 123.415 305.606Z" fill="black"/>
<path opacity="0.2" d="M144.713 302.887C144.713 302.887 141.908 308.385 138.256 315.806C135.208 322.001 119.962 326.652 110.41 328.13C106.062 326.799 101.621 325.263 97.1621 323.57L144.713 302.887Z" fill="black"/>
<path d="M127.89 320.186C56.7473 344.145 34.8613 328.465 34.8613 328.465C30.0703 285.154 52.4373 243.289 52.4373 243.289C65.3673 251.534 64.5223 270.869 64.5223 270.869L60.3873 303.008L59.9133 306.685C81.3283 311.396 121.249 306.249 121.249 306.249L127.89 320.186Z" fill="#0D5366"/>
<path opacity="0.2" d="M60.3883 303.009L59.9143 306.686C59.9143 306.686 51.1163 308.401 45.4873 315.805C45.4873 315.805 48.3233 302.929 60.3843 303.013C60.3843 303.013 60.3833 303.013 60.3883 303.009Z" fill="black"/>
<path d="M121.249 306.25C121.249 306.25 129.126 288.358 141.1 289.951L144.712 302.887C138.157 305.67 137.198 316.91 127.892 320.186L121.249 306.25Z" fill="#FDAD80"/>
<path d="M74.3825 302.961C74.3825 302.961 69.4085 291.286 56.3185 287.897C43.2275 284.508 34.8875 290.676 34.0085 293.005C33.1295 295.333 38.9455 293.108 38.9455 293.108C38.9455 293.108 35.1575 294.18 32.9845 297.74C30.8115 301.3 38.2734 297.459 38.2734 297.459C38.2734 297.459 32.9235 299.804 32.2425 301.978C31.5615 304.152 38.6195 300.479 39.9455 300.549C39.9455 300.549 33.6435 303.054 33.6865 305.297C33.7295 307.54 40.9255 303.882 46.2995 304.171C51.6735 304.461 59.9125 306.687 59.9125 306.687C64.3105 307.523 68.5125 308.143 72.3155 308.319L74.3825 302.961Z" fill="#FDAD80"/>
<path d="M113.738 219.514L113.285 228.035L112.718 238.712C112.718 238.712 110.598 242.731 101.03 242.731C91.4571 242.731 89.5001 239.984 89.5001 239.984L89.1141 235.247L87.8281 219.514H113.738Z" fill="#FDAD80"/>
<path d="M113.738 219.514L113.285 228.035C109.293 231.023 99.8461 236.898 89.1141 235.247L87.8281 219.514H113.738Z" fill="#F68768"/>
<path d="M71.4814 180.766C71.4814 180.766 64.1514 173.595 58.2974 178.274C51.3814 183.803 58.6154 203.701 70.8834 201.593L71.4814 180.766Z" fill="#FF976D"/>
<path d="M67.2109 198.938C67.2109 199.64 66.6419 200.209 65.9399 200.209C65.2379 200.209 64.6689 199.64 64.6689 198.938C64.6689 198.236 65.2379 197.667 65.9399 197.667C66.6419 197.667 67.2109 198.236 67.2109 198.938Z" fill="#272D35"/>
<path d="M68.3413 193.726C67.4873 191.134 65.0533 185.793 59.0303 183.412C59.0303 183.412 65.4663 189.48 65.9553 194.175C66.0193 194.791 66.5233 195.267 67.1433 195.247L67.2853 195.242C68.0553 195.216 68.5833 194.458 68.3413 193.726Z" fill="#F68768"/>
<path d="M131.102 193.566C131.925 191.067 134.271 185.92 140.076 183.625C140.076 183.625 133.873 189.473 133.401 193.998C133.339 194.592 132.853 195.05 132.256 195.031L132.119 195.027C131.378 195.003 130.869 194.273 131.102 193.566Z" fill="#F68768"/>
<path d="M127.498 180.766C127.498 180.766 134.828 173.595 140.682 178.274C147.598 183.803 140.364 203.701 128.096 201.593L127.498 180.766Z" fill="#FF976D"/>
<path d="M134.519 198.938C134.519 199.64 133.95 200.209 133.248 200.209C132.546 200.209 131.977 199.64 131.977 198.938C131.977 198.236 132.546 197.667 133.248 197.667C133.95 197.667 134.519 198.236 134.519 198.938Z" fill="#272D35"/>
<path d="M131.102 193.566C131.925 191.067 134.271 185.92 140.076 183.625C140.076 183.625 133.873 189.473 133.401 193.998C133.339 194.592 132.853 195.05 132.256 195.031L132.119 195.027C131.378 195.003 130.869 194.273 131.102 193.566Z" fill="#F68768"/>
<path d="M134.387 175.113C134.334 175.715 134.279 176.323 134.217 176.935C132.047 199.045 124.49 227.878 99.8571 227.878C75.5821 227.878 67.3901 200.243 64.6991 178.555C64.5811 177.615 64.4771 176.688 64.3791 175.773C62.2291 155.465 77.9971 137.571 98.4161 137.335C98.6861 137.332 98.9591 137.33 99.2341 137.33C99.5761 137.33 99.9141 137.333 100.249 137.337C120.42 137.607 136.13 155.018 134.387 175.113Z" fill="#FDAD80"/>
<path d="M89.6587 179.72C89.6587 181.486 88.2267 182.918 86.4607 182.918C84.6947 182.918 83.2627 181.486 83.2627 179.72C83.2627 177.954 84.6947 176.522 86.4607 176.522C88.2277 176.523 89.6587 177.954 89.6587 179.72Z" fill="#272D35"/>
<path d="M116.936 179.72C116.936 181.486 115.504 182.918 113.738 182.918C111.972 182.918 110.54 181.486 110.54 179.72C110.54 177.954 111.972 176.522 113.738 176.522C115.504 176.523 116.936 177.954 116.936 179.72Z" fill="#272D35"/>
<path d="M128.021 201.165C127.866 200.213 127.613 199.223 127.108 198.193C126.642 197.183 125.865 196.154 124.836 195.377C124.584 195.183 124.312 194.989 124.04 194.833C123.788 194.697 123.516 194.561 123.263 194.464C122.758 194.25 122.234 194.095 121.748 193.978C120.777 193.764 119.883 193.686 119.029 193.667C118.174 193.647 117.359 193.706 116.582 193.783C113.455 194.094 110.639 194.832 107.919 195.415C106.598 195.726 105.278 196.075 103.937 196.328C102.597 196.6 101.237 196.697 99.8776 196.658C98.5176 196.638 97.1586 196.503 95.7796 196.289C94.4196 196.075 93.0406 195.764 91.6616 195.454C90.9426 195.279 90.3596 195.162 89.6996 194.968C89.0396 194.793 88.3786 194.56 87.6986 194.346C86.3586 193.88 84.9796 193.375 83.5036 192.948C82.0086 192.54 80.4346 192.171 78.4536 192.249C77.9676 192.269 77.4436 192.327 76.8606 192.443C76.2976 192.56 75.5986 192.793 74.9576 193.104C73.6566 193.725 72.5296 194.871 71.8696 195.998C71.1896 197.163 70.8596 198.29 70.6846 199.319C70.4906 200.349 70.4706 201.3 70.5096 202.213C70.5876 204.019 70.9176 205.631 71.3446 207.185C71.7716 208.739 72.2966 210.215 72.8986 211.652C73.4816 213.089 74.1606 214.488 74.8796 215.847C75.5986 217.226 76.3756 218.566 77.2686 219.887C77.7156 220.547 78.1816 221.208 78.7056 221.868C79.2106 222.529 79.7736 223.17 80.4346 223.81C80.7646 224.14 81.1146 224.451 81.5026 224.781C81.6966 224.937 81.9106 225.092 82.1246 225.247L82.4746 225.461L82.7656 225.655C83.5616 226.16 84.3386 226.529 85.1156 226.879C86.6306 227.559 88.1456 228.064 89.6606 228.491C92.6906 229.307 95.7206 229.812 98.8276 230.045C101.916 230.142 105.063 229.909 108.228 229.268C111.375 228.608 114.618 227.54 117.609 225.403C118.347 224.859 119.066 224.257 119.726 223.577C119.881 223.402 120.056 223.208 120.192 223.053L120.6 222.587C120.872 222.276 121.124 221.965 121.377 221.655C122.387 220.373 123.242 219.033 124.038 217.654C125.592 214.896 126.777 211.963 127.534 208.836C127.903 207.263 128.175 205.631 128.194 203.883C128.215 203.01 128.176 202.117 128.021 201.165ZM100.363 220.316C89.2916 220.316 82.1246 211.556 79.9496 207.458C77.6386 203.107 80.9056 197.703 86.4606 199.723C90.6946 201.296 99.3506 202.462 99.3506 202.462C115.122 202.112 120.858 194.988 121.455 203.612C121.855 209.369 113.687 220.316 100.363 220.316Z" fill="#272D35"/>
<path d="M99.9155 193.731C99.5155 193.691 99.1365 193.472 98.9095 193.104C98.5215 192.476 98.7165 191.654 99.3445 191.266L103.155 188.913L100.164 187.813C99.6665 187.629 99.3235 187.169 99.2915 186.64L98.7765 178.047C98.7325 177.311 99.2945 176.679 100.03 176.634C100.764 176.584 101.399 177.15 101.443 177.887L101.906 185.608L106.654 187.354C107.133 187.531 107.47 187.965 107.521 188.474C107.572 188.982 107.328 189.475 106.894 189.743L100.748 193.537C100.489 193.698 100.196 193.759 99.9155 193.731Z" fill="#F68768"/>
<path d="M105.559 209.225C100.626 210.214 94.1375 210.151 87.8115 206.002C87.1985 205.6 87.0275 204.778 87.4295 204.165C87.8315 203.552 88.6535 203.38 89.2665 203.783C100.364 211.061 112.465 203.942 112.586 203.87C113.213 203.491 114.029 203.694 114.407 204.323C114.785 204.951 114.582 205.767 113.955 206.144C113.682 206.307 110.356 208.264 105.559 209.225Z" fill="#F68768"/>
<path d="M101.035 215.008C98.8127 215.061 96.2627 214.603 93.6797 213.066C93.2377 212.802 93.0927 212.231 93.3557 211.789C93.6197 211.347 94.1917 211.202 94.6327 211.465C100.843 215.163 106.883 211.641 107.137 211.489C107.577 211.226 108.15 211.368 108.414 211.809C108.678 212.25 108.537 212.82 108.097 213.086C107.91 213.197 104.995 214.914 101.035 215.008Z" fill="#F68768"/>
<path opacity="0.5" d="M134.387 175.113C134.334 175.715 134.279 176.323 134.217 176.935C134.217 176.935 122.67 161.725 123.002 150.113C123.002 150.113 91.002 159.42 75.67 149.808C75.67 149.808 77.23 172.943 64.7 178.555C64.582 177.615 64.478 176.688 64.38 175.773C62.23 155.465 77.998 137.571 98.417 137.335C98.687 137.332 98.96 137.33 99.235 137.33C99.577 137.33 99.915 137.333 100.25 137.337C120.42 137.607 136.13 155.018 134.387 175.113Z" fill="#272D35"/>
<path d="M92.9438 167.585C92.9438 167.585 93.8958 169.49 92.9438 172.427C92.9438 172.427 83.0158 170.775 76.2698 174.649L75.6348 172.109C75.6348 172.109 79.9338 164.648 92.9438 167.585Z" fill="#272D35"/>
<path d="M107.726 167.585C107.726 167.585 106.774 169.49 107.726 172.427C107.726 172.427 117.654 170.775 124.4 174.649L125.035 172.109C125.035 172.109 120.736 164.648 107.726 167.585Z" fill="#272D35"/>
<path d="M304.062 362.667H399.814L398.947 346.874L399.406 243.289L375.266 236.808L369.591 235.284L365.197 234.105C360.832 232.931 356.36 232.362 351.886 232.343C347.412 232.362 342.938 232.931 338.576 234.105L336.076 234.777L330.228 236.346L304.365 243.289L304.822 346.874L304.062 362.667Z" fill="#952DC6"/>
<path d="M413.846 322.818C408.977 336.757 387.176 335.74 362.344 328.123C357.996 326.792 353.556 325.256 349.096 323.563C340.224 320.194 331.281 316.201 322.852 311.939L322.909 311.794L325.45 305.199L326.317 302.954C326.317 302.954 373.914 308.14 396.648 302.88C382.536 258.216 394.864 249.176 399.405 243.29C399.405 243.29 423.037 296.507 413.846 322.818Z" fill="#7720A2"/>
<path opacity="0.2" d="M375.35 305.598C375.35 305.598 362.702 314.094 343.073 315.501C332.206 316.28 326.151 313.991 322.91 311.794L325.451 305.199C335.565 305.779 366.899 307.386 375.35 305.598Z" fill="black"/>
<path opacity="0.2" d="M396.648 302.879C396.648 302.879 393.843 308.377 390.191 315.799C387.143 321.994 371.898 326.645 362.345 328.123C357.997 326.792 353.557 325.256 349.097 323.563L396.648 302.879Z" fill="black"/>
<path d="M379.825 320.179C308.682 344.138 286.796 328.458 286.796 328.458C282.005 285.147 304.372 243.282 304.372 243.282C317.302 251.527 316.457 270.862 316.457 270.862L312.322 303.001L311.848 306.678C333.263 311.389 373.184 306.242 373.184 306.242L379.825 320.179Z" fill="#7720A2"/>
<path opacity="0.2" d="M312.323 303.002L311.849 306.679C311.849 306.679 303.051 308.394 297.422 315.798C297.422 315.798 300.258 302.922 312.319 303.006C312.319 303.006 312.318 303.005 312.323 303.002Z" fill="black"/>
<path d="M373.185 306.242C373.185 306.242 381.062 288.35 393.036 289.943L396.648 302.879C390.093 305.662 389.134 316.902 379.828 320.178L373.185 306.242Z" fill="#E97E5E"/>
<path d="M326.318 302.954C326.318 302.954 321.344 291.279 308.254 287.89C295.163 284.501 286.823 290.67 285.944 292.998C285.065 295.326 290.881 293.101 290.881 293.101C290.881 293.101 287.093 294.173 284.92 297.733C282.747 301.292 290.209 297.452 290.209 297.452C290.209 297.452 284.859 299.797 284.178 301.971C283.497 304.145 290.555 300.472 291.881 300.542C291.881 300.542 285.579 303.046 285.622 305.29C285.665 307.533 292.861 303.875 298.235 304.164C303.609 304.454 311.848 306.68 311.848 306.68C316.245 307.516 320.448 308.136 324.251 308.312L326.318 302.954Z" fill="#E97E5E"/>
<path d="M365.701 219.292L365.244 227.894L364.671 238.674C364.671 238.674 362.531 242.731 352.871 242.731C343.207 242.731 341.231 239.958 341.231 239.958L340.841 235.176L339.543 219.292H365.701Z" fill="#E97E5E"/>
<path d="M365.701 219.292L365.244 227.894C361.214 230.91 351.677 236.842 340.841 235.176L339.543 219.292H365.701Z" fill="#D45B45"/>
<path d="M323.683 180.173C323.683 180.173 316.283 172.933 310.373 177.658C303.391 183.24 310.694 203.328 323.079 201.2L323.683 180.173Z" fill="#E36C4F"/>
<path d="M320.084 192.9C319.27 190.428 316.949 185.334 311.204 183.064C311.204 183.064 317.341 188.851 317.808 193.328C317.87 193.916 318.35 194.369 318.941 194.35L319.076 194.346C319.811 194.321 320.314 193.599 320.084 192.9Z" fill="#D45B45"/>
<path d="M377.927 180.173C377.927 180.173 385.327 172.933 391.238 177.658C398.22 183.24 390.917 203.328 378.532 201.2L377.927 180.173Z" fill="#E36C4F"/>
<path d="M381.922 192.9C382.736 190.428 385.057 185.334 390.802 183.064C390.802 183.064 384.665 188.851 384.198 193.328C384.136 193.916 383.656 194.369 383.065 194.35L382.93 194.346C382.195 194.321 381.692 193.599 381.922 192.9Z" fill="#D45B45"/>
<path d="M351.688 227.737C326.118 227.737 318.224 197.366 315.87 175.131C313.7 154.63 329.619 136.562 350.233 136.326C350.507 136.323 350.783 136.321 351.06 136.321C351.404 136.321 351.745 136.323 352.084 136.328C372.446 136.6 388.307 154.177 386.548 174.465C384.594 196.991 377.246 227.737 351.688 227.737Z" fill="#E97E5E"/>
<path d="M373.524 203.068C373.414 202.41 373.274 201.755 373.106 201.093L372.975 200.606L372.842 200.156C372.75 199.849 372.648 199.526 372.528 199.186C372.293 198.516 371.981 197.768 371.514 197.031C371.051 196.294 370.419 195.591 369.716 195.041C369.528 194.901 369.083 194.538 368.566 194.276C368.049 194.009 367.515 193.846 367.053 193.751C366.94 193.731 366.82 193.706 366.713 193.691L366.55 193.666L366.509 193.661L366.45 193.653L366.33 193.643C366.17 193.628 366.003 193.618 365.878 193.621C365.748 193.624 365.599 193.621 365.489 193.634C364.999 193.661 364.621 193.736 364.248 193.811C363.525 193.971 362.898 194.164 362.295 194.366C361.695 194.569 361.121 194.781 360.556 194.996C359.434 195.431 358.348 195.871 357.278 196.279C356.215 196.689 355.148 197.077 354.183 197.339C354.061 197.374 353.949 197.399 353.834 197.426L353.444 197.516C353.194 197.571 352.981 197.608 352.846 197.623C352.714 197.633 352.64 197.626 352.485 197.61C352.335 197.593 352.115 197.553 351.873 197.503C351.76 197.481 351.605 197.448 351.51 197.423C351.413 197.396 351.336 197.383 351.226 197.346C351.021 197.286 350.795 197.208 350.563 197.123C350.095 196.951 349.594 196.743 349.074 196.523C348.034 196.08 346.936 195.598 345.751 195.148C345.154 194.918 344.544 194.71 343.854 194.516C343.151 194.326 342.434 194.193 341.711 194.116C340.991 194.041 340.266 194.024 339.548 194.056L339.281 194.071C339.189 194.076 339.108 194.079 338.993 194.093C338.776 194.12 338.557 194.141 338.342 194.18C338.127 194.223 337.91 194.26 337.698 194.318C337.485 194.378 337.272 194.433 337.062 194.506C335.387 195.066 333.877 196.178 332.847 197.691C332.332 198.444 331.94 199.296 331.7 200.194L331.618 200.517L331.562 200.762C331.522 200.927 331.49 201.089 331.458 201.252C331.39 201.58 331.333 201.904 331.281 202.232C331.074 203.534 330.961 204.834 330.933 206.137C330.878 208.742 331.157 211.364 331.842 213.964C332.53 216.556 333.675 219.129 335.385 221.424C337.083 223.719 339.398 225.662 341.98 226.939C344.565 228.229 347.344 228.899 350.032 229.121C351.382 229.238 352.699 229.256 354.037 229.186C355.374 229.121 356.73 228.944 358.083 228.648C360.785 228.063 363.505 226.931 365.82 225.175C366.978 224.305 368.033 223.3 368.953 222.203C369.861 221.095 370.643 219.903 371.281 218.665C372.561 216.185 373.289 213.55 373.639 210.932C373.811 209.619 373.881 208.307 373.864 206.997C373.852 205.688 373.741 204.378 373.524 203.068ZM367.29 209.858C366.857 211.813 366.139 213.663 365.149 215.24C364.659 216.033 364.094 216.748 363.476 217.39C362.861 218.032 362.189 218.602 361.459 219.082C361.156 219.28 360.844 219.465 360.523 219.638C358.733 220.602 356.495 220.087 355.334 218.417C354.713 217.524 353.92 216.774 352.998 216.749C352.011 216.723 351.07 217.641 350.315 218.703C349.2 220.27 347.152 220.896 345.399 220.104C345.372 220.092 345.346 220.079 345.319 220.067C343.716 219.332 342.333 218.267 341.183 216.894C338.875 214.154 337.609 210.139 337.401 206.067C337.351 205.049 337.362 204.024 337.45 203.024C337.473 202.774 337.499 202.527 337.531 202.279L337.58 201.914L337.608 201.732L337.627 201.632C337.662 201.402 337.738 201.174 337.858 200.954C338.093 200.516 338.504 200.129 339.015 199.904C339.143 199.849 339.278 199.804 339.415 199.769C339.483 199.749 339.556 199.742 339.626 199.724C339.654 199.716 339.718 199.709 339.77 199.702L339.936 199.684C340.376 199.637 340.818 199.621 341.253 199.641C342.868 199.674 344.933 200.516 347.14 201.354C347.698 201.566 348.278 201.779 348.908 201.982C349.225 202.084 349.554 202.182 349.911 202.272C350.081 202.32 350.286 202.357 350.474 202.397C350.661 202.437 350.791 202.457 350.966 202.484C351.294 202.539 351.647 202.592 352.075 202.622C352.498 202.655 353.011 202.642 353.454 202.582C353.897 202.522 354.251 202.44 354.566 202.365L355.023 202.25C355.188 202.205 355.359 202.163 355.514 202.115C356.784 201.748 357.895 201.328 359.01 200.93C360.115 200.53 361.201 200.135 362.264 199.793C362.794 199.62 363.318 199.455 363.825 199.315C364.333 199.172 364.825 199.057 365.243 198.992C365.44 198.962 365.639 198.94 365.729 198.947C365.764 198.944 365.758 198.954 365.773 198.952C365.793 198.952 365.771 198.957 365.756 198.957L365.803 198.97C365.838 198.975 365.86 198.985 365.89 198.992C365.993 199.025 366.019 199.047 366.014 199.052C366.011 199.062 366.021 199.067 366.281 199.292C366.476 199.48 366.621 199.659 366.756 199.92C366.894 200.175 367.021 200.51 367.144 200.942C367.207 201.154 367.264 201.39 367.324 201.642L367.414 202.035L367.489 202.392C367.581 202.862 367.643 203.352 367.688 203.845C367.866 205.83 367.722 207.905 367.29 209.858Z" fill="#272D35"/>
<path d="M344.174 167.585C344.174 167.585 345.126 169.49 344.174 172.426C344.174 172.426 334.246 170.774 327.5 174.648L326.865 172.108C326.865 172.108 331.164 164.648 344.174 167.585Z" fill="#272D35"/>
<path d="M358.956 167.585C358.956 167.585 358.004 169.49 358.956 172.426C358.956 172.426 368.884 170.774 375.63 174.648L376.265 172.108C376.265 172.108 371.966 164.648 358.956 167.585Z" fill="#272D35"/>
<path d="M340.188 178.796C340.594 180.584 339.474 182.363 337.686 182.769C335.898 183.175 334.119 182.055 333.713 180.267C333.307 178.479 334.427 176.7 336.215 176.294C338.003 175.888 339.782 177.008 340.188 178.796Z" fill="#272D35"/>
<path d="M369.806 178.796C370.212 180.584 369.092 182.363 367.304 182.769C365.516 183.175 363.737 182.055 363.331 180.267C362.925 178.479 364.045 176.7 365.833 176.294C367.621 175.888 369.4 177.008 369.806 178.796Z" fill="#272D35"/>
<path d="M379.14 147.471C379.14 147.471 392.823 156.586 385.827 181.123L384.154 181C384.781 174.206 381.705 167.82 380.938 165.496C379.141 160.054 371.297 156.786 371.787 150.903C371.787 150.903 342.519 160.054 326.678 151.066C326.678 151.066 326.524 159.009 322.112 163.698C320.016 165.925 317.613 174.499 318.48 182.029L316.887 182.853C314.876 175.174 312.165 165.983 312.144 161.967C312.094 152.593 318.555 150.542 318.555 150.542C318.555 150.542 314.642 137.76 325.595 132.037C336.548 126.314 351.798 126.164 361.151 124.193C373.75 121.538 393.954 130.724 379.14 147.471Z" fill="#272D35"/>
<path d="M351.746 195.818C351.342 195.778 350.96 195.557 350.731 195.185C350.339 194.551 350.536 193.721 351.17 193.33L355.016 190.955L351.996 189.844C351.494 189.659 351.148 189.194 351.116 188.66L350.596 179.985C350.552 179.242 351.118 178.603 351.861 178.559C352.603 178.508 353.244 179.08 353.288 179.824L353.755 187.618L358.548 189.381C359.032 189.56 359.371 189.998 359.423 190.512C359.475 191.025 359.229 191.523 358.79 191.794L352.586 195.624C352.324 195.784 352.029 195.846 351.746 195.818Z" fill="#D45B45"/>
<path d="M357.444 207.905C352.463 208.904 345.913 208.84 339.526 204.651C338.907 204.245 338.735 203.415 339.14 202.796C339.546 202.177 340.376 202.004 340.995 202.41C352.199 209.757 364.416 202.571 364.538 202.497C365.171 202.114 365.995 202.32 366.377 202.954C366.758 203.588 366.554 204.411 365.92 204.793C365.645 204.959 362.287 206.935 357.444 207.905Z" fill="#D45B45"/>
<path d="M352.876 215.01C350.632 215.063 348.058 214.601 345.45 213.049C345.004 212.783 344.857 212.206 345.123 211.759C345.389 211.313 345.967 211.166 346.412 211.432C352.682 215.165 358.779 211.609 359.036 211.456C359.48 211.19 360.058 211.334 360.325 211.779C360.592 212.224 360.449 212.8 360.005 213.068C359.817 213.182 356.873 214.914 352.876 215.01Z" fill="#D45B45"/>
<path d="M292.366 262.887C292.439 297.7 249.636 308.257 224.624 305.082C199.612 308.256 156.81 297.699 156.882 262.887C156.947 232.466 178.972 235.819 177.412 208.596C177.105 203.252 176.681 197.97 176.294 192.795C174.441 168.087 173.496 145.763 190.894 130.294C201.423 120.938 215.602 118.647 224.623 119.079C233.645 118.648 247.824 120.938 258.352 130.294C276.95 146.829 274.584 171.199 272.566 197.936C272.3 201.451 272.038 205.012 271.835 208.596C270.276 235.819 292.304 232.466 292.366 262.887Z" fill="#272D35"/>
<path d="M186.2 362.667C191.273 343.541 200.692 294.634 180.694 247.444C180.694 247.444 174.471 283.961 171.864 315.861C170.196 336.275 171.545 353.156 172.732 362.667H186.2Z" fill="#CA644B"/>
<path d="M274.878 362.667C278.093 343.411 283.979 293.932 270.159 245.951C270.159 245.951 261.857 283.665 259.25 315.564C257.577 336.041 258.062 353.085 258.624 362.667H274.878Z" fill="#CA644B"/>
<path d="M189.818 296.996L191.206 325.033L185.067 362.667H265.579L259.44 325.033L261.812 296.777C269.977 289.336 266.4 273.386 266.4 273.386L270.16 245.952L248.292 237.816L235.451 233.04L214.026 233.276L202.109 238.341L180.694 247.446L184.258 273.387C184.258 273.387 181.356 290.636 189.818 296.996Z" fill="#47D6BC"/>
<path d="M248.292 237.815C245.451 244.379 238.713 255.366 225.427 255.366C211.864 255.366 204.948 244.511 202.109 238.339L214.026 233.274L235.451 233.038L248.292 237.815Z" fill="#CA644B"/>
<path d="M254.955 299.563C254.955 299.563 231.411 316.206 197.515 300.578C197.515 300.578 229.178 309.103 254.955 299.563Z" fill="#00A498"/>
<path d="M235.801 221.59L235.619 227.825L235.219 241.405C227.966 243.995 222.574 243.99 215.311 241.405L214.844 234.207L214.026 221.59H235.801Z" fill="#CA644B"/>
<path d="M199.63 185.751C199.63 185.751 193.572 179.824 188.734 183.692C183.019 188.261 188.997 204.706 199.136 202.964L199.63 185.751Z" fill="#C24D3C"/>
<path d="M199.63 218.194C194.415 218.194 190.174 213.951 190.174 208.737C190.174 203.522 194.416 199.279 199.63 199.279C204.845 199.279 209.088 203.522 209.088 208.737C209.087 213.951 204.844 218.194 199.63 218.194ZM199.63 201.409C195.59 201.409 192.303 204.696 192.303 208.737C192.303 212.777 195.589 216.064 199.63 216.064C203.67 216.064 206.958 212.777 206.958 208.737C206.957 204.696 203.67 201.409 199.63 201.409Z" fill="#FBF9F9"/>
<path d="M198.008 197.514C197.194 195.042 194.873 189.948 189.128 187.678C189.128 187.678 195.266 193.465 195.732 197.942C195.793 198.53 196.274 198.983 196.865 198.964L197 198.96C197.735 198.935 198.238 198.213 198.008 197.514Z" fill="#A0443F"/>
<path d="M250.771 185.751C250.771 185.751 256.829 179.824 261.667 183.692C267.382 188.261 261.404 204.706 251.266 202.964L250.771 185.751Z" fill="#C24D3C"/>
<path d="M252.336 218.194C247.122 218.194 242.879 213.951 242.879 208.737C242.879 203.522 247.121 199.279 252.336 199.279C257.551 199.279 261.794 203.522 261.794 208.737C261.794 213.951 257.551 218.194 252.336 218.194ZM252.336 201.409C248.296 201.409 245.009 204.696 245.009 208.737C245.009 212.777 248.295 216.064 252.336 216.064C256.376 216.064 259.664 212.777 259.664 208.737C259.664 204.696 256.377 201.409 252.336 201.409Z" fill="#FBF9F9"/>
<path d="M252.393 197.514C253.207 195.042 255.528 189.948 261.273 187.678C261.273 187.678 255.135 193.465 254.669 197.942C254.608 198.53 254.127 198.983 253.536 198.964L253.401 198.96C252.666 198.935 252.163 198.213 252.393 197.514Z" fill="#A0443F"/>
<path d="M235.801 221.59L235.619 227.825C231.739 230.597 223.847 235.147 214.844 234.207L214.026 221.59H235.801Z" fill="#A0443F"/>
<path d="M256.533 159.061V185.118C256.533 192.126 255.446 199.116 253.073 205.733C251.782 209.338 250.041 213.101 247.72 216.359C247.72 216.359 247.671 216.428 247.578 216.555C246.461 218.048 238.769 227.614 225.044 227.614C211.844 227.614 203.025 217.051 202.488 216.391L202.485 216.388C202.475 216.379 202.472 216.372 202.469 216.366C202.466 216.363 202.466 216.363 202.466 216.36C200.142 213.102 198.401 209.339 197.11 205.734C194.741 199.117 193.654 192.128 193.654 185.119V159.062C210.498 149.007 225.093 149.007 225.093 149.007C225.093 149.007 239.689 149.006 256.533 159.061Z" fill="#CA644B"/>
<path d="M224.55 200.797C224.212 200.764 223.892 200.578 223.7 200.267C223.372 199.736 223.537 199.041 224.068 198.714L227.289 196.725L224.76 195.795C224.339 195.64 224.05 195.251 224.023 194.803L223.587 187.538C223.55 186.916 224.024 186.381 224.646 186.344C225.267 186.302 225.804 186.78 225.841 187.403L226.232 193.93L230.246 195.406C230.651 195.556 230.936 195.923 230.979 196.353C231.022 196.783 230.816 197.199 230.449 197.426L225.253 200.633C225.035 200.769 224.787 200.82 224.55 200.797Z" fill="#A0443F"/>
<path d="M224.702 220.636C221.902 220.322 219.898 219.196 219.751 219.111C219.348 218.88 219.21 218.366 219.442 217.964C219.673 217.562 220.187 217.423 220.589 217.654C220.826 217.789 226.262 220.808 231.483 217.471C231.874 217.221 232.394 217.336 232.644 217.726C232.893 218.117 232.78 218.637 232.388 218.887C229.68 220.618 226.937 220.887 224.702 220.636Z" fill="#A0443F"/>
<path d="M237.546 204.638C237.555 205.357 237.501 206.061 237.385 206.747C237.01 208.997 235.993 211.037 234.527 212.664C232.407 215.022 229.345 216.522 225.925 216.567C222.505 216.612 219.404 215.193 217.223 212.892C215.714 211.304 214.644 209.291 214.21 207.052C214.077 206.369 214.004 205.668 213.994 204.948C213.994 204.915 213.996 204.885 213.995 204.852L237.542 204.542C237.543 204.575 237.546 204.605 237.546 204.638Z" fill="#481C3F"/>
<path d="M237.546 204.638C237.555 205.357 237.501 206.061 237.385 206.747L214.209 207.052C214.076 206.369 214.003 205.668 213.993 204.948C213.993 204.915 213.995 204.885 213.994 204.852L237.541 204.542C237.543 204.575 237.546 204.605 237.546 204.638Z" fill="white"/>
<path d="M234.529 212.664C232.409 215.022 229.347 216.522 225.927 216.567C222.507 216.612 219.406 215.193 217.225 212.892C219.274 210.834 222.362 209.503 225.833 209.457C229.305 209.411 232.426 210.66 234.529 212.664Z" fill="#F65C66"/>
<path d="M205.614 196.166C206.15 196.166 206.585 195.732 206.585 195.195C206.585 194.659 206.15 194.224 205.614 194.224C205.077 194.224 204.643 194.659 204.643 195.195C204.643 195.732 205.077 196.166 205.614 196.166Z" fill="#A0443F"/>
<path d="M203.879 198.001C203.879 198.537 203.444 198.972 202.908 198.972C202.372 198.972 201.937 198.537 201.937 198.001C201.937 197.465 202.372 197.029 202.908 197.029C203.444 197.029 203.879 197.465 203.879 198.001Z" fill="#A0443F"/>
<path d="M209.334 198.001C209.334 198.537 208.899 198.972 208.363 198.972C207.827 198.972 207.392 198.537 207.392 198.001C207.392 197.465 207.827 197.029 208.363 197.029C208.899 197.03 209.334 197.465 209.334 198.001Z" fill="#A0443F"/>
<path d="M244.52 195.195C244.52 195.731 244.955 196.166 245.492 196.166C246.029 196.166 246.463 195.731 246.463 195.195C246.463 194.659 246.028 194.224 245.492 194.224C244.955 194.224 244.52 194.659 244.52 195.195Z" fill="#A0443F"/>
<path d="M247.226 198.001C247.226 198.537 247.661 198.972 248.197 198.972C248.734 198.972 249.169 198.537 249.169 198.001C249.169 197.465 248.734 197.029 248.197 197.029C247.661 197.03 247.226 197.465 247.226 198.001Z" fill="#A0443F"/>
<path d="M241.771 198.001C241.771 198.537 242.206 198.972 242.742 198.972C243.278 198.972 243.714 198.537 243.714 198.001C243.714 197.465 243.279 197.029 242.742 197.029C242.205 197.029 241.771 197.465 241.771 198.001Z" fill="#A0443F"/>
<path d="M216.487 174.384C216.487 175.195 215.857 175.866 215.048 175.915C212.15 176.087 205.536 176.816 201.396 179.897C201.396 179.897 202.904 173.247 214.894 172.851C215.763 172.821 216.487 173.514 216.487 174.384Z" fill="#272D35"/>
<path d="M234.576 174.384C234.576 175.195 235.206 175.866 236.015 175.915C238.913 176.087 245.527 176.816 249.667 179.897C249.667 179.897 248.159 173.247 236.169 172.851C235.3 172.821 234.576 173.514 234.576 174.384Z" fill="#272D35"/>
<path d="M193.654 184.211C193.654 184.211 202.027 175.461 199.957 154.489L189.435 158.701L193.654 184.211Z" fill="#272D35"/>
<path d="M256.816 184.211C256.816 184.211 248.443 175.461 250.513 154.489L261.035 158.701L256.816 184.211Z" fill="#272D35"/>
<path d="M199.21 159.859C199.21 159.859 229.975 149.532 251.878 159.859V150.996C251.878 150.996 238.905 145.016 224.914 145.016C206.685 145.016 197.6 153.58 197.6 153.58L199.21 159.859Z" fill="#272D35"/>
<path d="M199.646 169.35C199.646 169.35 242.854 173.364 251.878 155.632C260.902 137.9 203.916 149.541 203.916 149.541C203.916 149.541 195.298 152.437 199.646 169.35Z" fill="#272D35"/>
<path d="M214.708 186.038C214.248 187.689 212.537 188.654 210.887 188.195C209.233 187.734 208.267 186.023 208.727 184.373C208.873 183.849 209.148 183.392 209.505 183.027C206.768 183.525 205.062 184.582 205.062 184.582C210.469 178.123 216.798 183.396 216.798 183.396C215.721 183.085 214.689 182.902 213.71 182.822C214.615 183.581 215.045 184.825 214.708 186.038Z" fill="#272D35"/>
<path d="M235.478 186.038C235.938 187.689 237.649 188.654 239.299 188.195C240.953 187.734 241.919 186.023 241.459 184.373C241.313 183.849 241.039 183.392 240.682 183.027C243.419 183.525 245.124 184.582 245.124 184.582C239.718 178.123 233.388 183.396 233.388 183.396C234.465 183.085 235.497 182.902 236.476 182.822C235.571 183.581 235.14 184.825 235.478 186.038Z" fill="#272D35"/>
<path d="M264.484 170.527C264.484 170.444 261.793 159.301 257.398 150.766C251.692 139.688 239.355 135.645 224.924 135.645C224.824 135.645 224.724 135.648 224.624 135.648C224.524 135.648 224.424 135.645 224.324 135.645C209.893 135.645 197.556 139.688 191.85 150.766C187.455 159.301 184.764 170.444 184.764 170.527C184.76 169.802 183.042 151.894 194.893 139.995C202.096 132.757 212.001 129.09 224.324 129.09C224.424 129.09 224.524 129.093 224.624 129.093C224.724 129.093 224.824 129.09 224.924 129.09C237.247 129.09 247.152 132.757 254.355 139.995C266.205 151.894 264.487 169.802 264.484 170.527Z" fill="#47D6BC"/>
</svg>
